G04 EAGLE Gerber RS-274X export*
G75*
%MOMM*%
%FSLAX34Y34*%
%LPD*%
%INBottom Copper*%
%IPPOS*%
%AMOC8*
5,1,8,0,0,1.08239X$1,22.5*%
G01*
%ADD10R,1.524000X1.397000*%
%ADD11R,1.500000X1.300000*%
%ADD12R,1.295400X1.738275*%
%ADD13R,1.300000X1.500000*%
%ADD14P,1.924489X8X202.500000*%
%ADD15C,1.676400*%
%ADD16R,1.473200X0.508000*%
%ADD17R,0.508000X1.473200*%
%ADD18C,0.377500*%
%ADD19C,1.524000*%
%ADD20R,2.184400X1.574800*%
%ADD21C,0.939800*%
%ADD22C,0.956400*%
%ADD23C,0.203200*%

G36*
X441977Y187972D02*
X441977Y187972D01*
X442048Y187974D01*
X442097Y187992D01*
X442149Y188000D01*
X442212Y188034D01*
X442279Y188059D01*
X442320Y188091D01*
X442366Y188116D01*
X442415Y188168D01*
X442471Y188212D01*
X442500Y188256D01*
X442535Y188294D01*
X442566Y188359D01*
X442604Y188419D01*
X442617Y188470D01*
X442639Y188517D01*
X442647Y188588D01*
X442664Y188658D01*
X442660Y188710D01*
X442666Y188761D01*
X442651Y188832D01*
X442645Y188903D01*
X442625Y188951D01*
X442614Y189002D01*
X442577Y189063D01*
X442549Y189129D01*
X442504Y189185D01*
X442488Y189213D01*
X442470Y189228D01*
X442444Y189260D01*
X409447Y222257D01*
X409447Y226822D01*
X409444Y226842D01*
X409446Y226861D01*
X409424Y226963D01*
X409408Y227065D01*
X409398Y227082D01*
X409394Y227102D01*
X409341Y227191D01*
X409292Y227282D01*
X409278Y227296D01*
X409268Y227313D01*
X409189Y227380D01*
X409114Y227452D01*
X409096Y227460D01*
X409081Y227473D01*
X408985Y227512D01*
X408891Y227555D01*
X408871Y227557D01*
X408853Y227565D01*
X408686Y227583D01*
X408418Y227583D01*
X408338Y227663D01*
X408322Y227675D01*
X408310Y227690D01*
X408223Y227746D01*
X408139Y227807D01*
X408120Y227812D01*
X408103Y227823D01*
X408002Y227848D01*
X407904Y227879D01*
X407884Y227878D01*
X407864Y227883D01*
X407761Y227875D01*
X407658Y227873D01*
X407639Y227866D01*
X407619Y227864D01*
X407524Y227824D01*
X407427Y227788D01*
X407411Y227776D01*
X407393Y227768D01*
X407262Y227663D01*
X407182Y227583D01*
X400418Y227583D01*
X399227Y228774D01*
X399227Y245190D01*
X400418Y246381D01*
X407182Y246381D01*
X407262Y246301D01*
X407278Y246289D01*
X407290Y246274D01*
X407378Y246218D01*
X407461Y246157D01*
X407480Y246152D01*
X407497Y246141D01*
X407598Y246116D01*
X407697Y246085D01*
X407717Y246086D01*
X407736Y246081D01*
X407839Y246089D01*
X407942Y246091D01*
X407961Y246098D01*
X407981Y246100D01*
X408076Y246140D01*
X408173Y246176D01*
X408189Y246188D01*
X408207Y246196D01*
X408338Y246301D01*
X408418Y246381D01*
X415182Y246381D01*
X415262Y246301D01*
X415278Y246289D01*
X415290Y246274D01*
X415378Y246218D01*
X415461Y246157D01*
X415480Y246152D01*
X415497Y246141D01*
X415598Y246116D01*
X415697Y246085D01*
X415717Y246086D01*
X415736Y246081D01*
X415839Y246089D01*
X415942Y246091D01*
X415961Y246098D01*
X415981Y246100D01*
X416076Y246140D01*
X416173Y246176D01*
X416189Y246188D01*
X416207Y246196D01*
X416338Y246301D01*
X416418Y246381D01*
X423182Y246381D01*
X423262Y246301D01*
X423278Y246289D01*
X423290Y246274D01*
X423378Y246218D01*
X423461Y246157D01*
X423480Y246152D01*
X423497Y246141D01*
X423598Y246116D01*
X423697Y246085D01*
X423717Y246086D01*
X423736Y246081D01*
X423839Y246089D01*
X423942Y246091D01*
X423961Y246098D01*
X423981Y246100D01*
X424076Y246140D01*
X424173Y246176D01*
X424189Y246188D01*
X424207Y246196D01*
X424338Y246301D01*
X424418Y246381D01*
X431182Y246381D01*
X431262Y246301D01*
X431278Y246289D01*
X431290Y246274D01*
X431378Y246218D01*
X431461Y246157D01*
X431480Y246152D01*
X431497Y246141D01*
X431598Y246116D01*
X431697Y246085D01*
X431717Y246086D01*
X431736Y246081D01*
X431839Y246089D01*
X431942Y246091D01*
X431961Y246098D01*
X431981Y246100D01*
X432076Y246140D01*
X432173Y246176D01*
X432189Y246188D01*
X432207Y246196D01*
X432338Y246301D01*
X432418Y246381D01*
X439182Y246381D01*
X439262Y246301D01*
X439278Y246289D01*
X439290Y246274D01*
X439378Y246218D01*
X439461Y246157D01*
X439480Y246152D01*
X439497Y246141D01*
X439598Y246116D01*
X439697Y246085D01*
X439717Y246086D01*
X439736Y246081D01*
X439839Y246089D01*
X439942Y246091D01*
X439961Y246098D01*
X439981Y246100D01*
X440076Y246140D01*
X440173Y246176D01*
X440189Y246188D01*
X440207Y246196D01*
X440338Y246301D01*
X440418Y246381D01*
X447182Y246381D01*
X447262Y246301D01*
X447278Y246289D01*
X447290Y246274D01*
X447378Y246218D01*
X447461Y246157D01*
X447480Y246152D01*
X447497Y246141D01*
X447598Y246116D01*
X447697Y246085D01*
X447717Y246086D01*
X447736Y246081D01*
X447839Y246089D01*
X447942Y246091D01*
X447961Y246098D01*
X447981Y246100D01*
X448076Y246140D01*
X448173Y246176D01*
X448189Y246188D01*
X448207Y246196D01*
X448338Y246301D01*
X448418Y246381D01*
X448510Y246381D01*
X448581Y246392D01*
X448652Y246394D01*
X448701Y246412D01*
X448753Y246420D01*
X448816Y246454D01*
X448883Y246479D01*
X448924Y246511D01*
X448970Y246536D01*
X449019Y246588D01*
X449075Y246632D01*
X449104Y246676D01*
X449139Y246714D01*
X449170Y246779D01*
X449208Y246839D01*
X449221Y246890D01*
X449243Y246937D01*
X449251Y247008D01*
X449268Y247078D01*
X449264Y247130D01*
X449270Y247181D01*
X449255Y247252D01*
X449249Y247323D01*
X449229Y247371D01*
X449218Y247422D01*
X449181Y247483D01*
X449153Y247549D01*
X449108Y247605D01*
X449092Y247633D01*
X449074Y247648D01*
X449048Y247680D01*
X431014Y265714D01*
X430940Y265767D01*
X430871Y265827D01*
X430841Y265839D01*
X430814Y265858D01*
X430727Y265885D01*
X430643Y265919D01*
X430602Y265923D01*
X430579Y265930D01*
X430547Y265929D01*
X430476Y265937D01*
X412932Y265937D01*
X412817Y265918D01*
X412701Y265901D01*
X412696Y265899D01*
X412689Y265898D01*
X412587Y265843D01*
X412482Y265790D01*
X412478Y265785D01*
X412472Y265782D01*
X412392Y265698D01*
X412310Y265614D01*
X412306Y265608D01*
X412303Y265604D01*
X412295Y265587D01*
X412229Y265467D01*
X412107Y265173D01*
X410213Y263279D01*
X407739Y262254D01*
X405061Y262254D01*
X402587Y263279D01*
X400588Y265278D01*
X400530Y265319D01*
X400478Y265369D01*
X400431Y265391D01*
X400389Y265421D01*
X400320Y265442D01*
X400255Y265472D01*
X400203Y265478D01*
X400153Y265494D01*
X400082Y265492D01*
X400011Y265500D01*
X399960Y265489D01*
X399908Y265487D01*
X399840Y265463D01*
X399770Y265447D01*
X399725Y265421D01*
X399677Y265403D01*
X399621Y265358D01*
X399559Y265321D01*
X399525Y265282D01*
X399485Y265249D01*
X399446Y265189D01*
X399399Y265134D01*
X399380Y265086D01*
X399352Y265042D01*
X399334Y264973D01*
X399307Y264906D01*
X399299Y264835D01*
X399291Y264804D01*
X399293Y264780D01*
X399289Y264739D01*
X399289Y264526D01*
X399116Y263879D01*
X398883Y263476D01*
X398842Y263369D01*
X398799Y263262D01*
X398798Y263252D01*
X398796Y263246D01*
X398795Y263224D01*
X398781Y263095D01*
X398781Y256018D01*
X398701Y255938D01*
X398689Y255922D01*
X398674Y255910D01*
X398618Y255822D01*
X398557Y255739D01*
X398552Y255720D01*
X398541Y255703D01*
X398516Y255602D01*
X398485Y255503D01*
X398486Y255483D01*
X398481Y255464D01*
X398489Y255361D01*
X398491Y255258D01*
X398498Y255239D01*
X398500Y255219D01*
X398540Y255124D01*
X398576Y255027D01*
X398588Y255011D01*
X398596Y254993D01*
X398701Y254862D01*
X398781Y254782D01*
X398781Y248018D01*
X397590Y246827D01*
X381174Y246827D01*
X379983Y248018D01*
X379983Y254782D01*
X380063Y254862D01*
X380075Y254878D01*
X380090Y254890D01*
X380146Y254977D01*
X380207Y255061D01*
X380212Y255080D01*
X380223Y255097D01*
X380248Y255198D01*
X380279Y255296D01*
X380278Y255316D01*
X380283Y255336D01*
X380275Y255439D01*
X380273Y255542D01*
X380266Y255561D01*
X380264Y255581D01*
X380224Y255676D01*
X380188Y255773D01*
X380176Y255789D01*
X380168Y255807D01*
X380063Y255938D01*
X379983Y256018D01*
X379983Y263095D01*
X379965Y263208D01*
X379949Y263322D01*
X379945Y263332D01*
X379944Y263338D01*
X379933Y263358D01*
X379881Y263476D01*
X379648Y263879D01*
X379475Y264526D01*
X379475Y266131D01*
X388874Y266131D01*
X388893Y266134D01*
X388913Y266132D01*
X389015Y266154D01*
X389117Y266170D01*
X389134Y266180D01*
X389154Y266184D01*
X389243Y266237D01*
X389334Y266286D01*
X389348Y266300D01*
X389365Y266310D01*
X389432Y266389D01*
X389503Y266464D01*
X389512Y266482D01*
X389525Y266497D01*
X389563Y266593D01*
X389607Y266687D01*
X389609Y266707D01*
X389617Y266725D01*
X389635Y266892D01*
X389635Y267908D01*
X389633Y267921D01*
X389634Y267931D01*
X389633Y267937D01*
X389634Y267947D01*
X389612Y268049D01*
X389595Y268151D01*
X389586Y268168D01*
X389582Y268188D01*
X389529Y268277D01*
X389480Y268368D01*
X389466Y268382D01*
X389456Y268399D01*
X389377Y268466D01*
X389302Y268538D01*
X389284Y268546D01*
X389269Y268559D01*
X389172Y268598D01*
X389079Y268641D01*
X389059Y268643D01*
X389041Y268651D01*
X388874Y268669D01*
X379475Y268669D01*
X379475Y270274D01*
X379486Y270313D01*
X379497Y270432D01*
X379510Y270549D01*
X379510Y270554D01*
X379510Y270558D01*
X379484Y270671D01*
X379458Y270790D01*
X379456Y270793D01*
X379455Y270798D01*
X379393Y270899D01*
X379332Y271001D01*
X379329Y271004D01*
X379327Y271007D01*
X379235Y271084D01*
X379145Y271161D01*
X379141Y271162D01*
X379138Y271165D01*
X379028Y271208D01*
X378917Y271253D01*
X378912Y271253D01*
X378909Y271255D01*
X378895Y271255D01*
X378750Y271271D01*
X377498Y271271D01*
X377408Y271257D01*
X377317Y271249D01*
X377287Y271237D01*
X377255Y271232D01*
X377175Y271189D01*
X377091Y271153D01*
X377059Y271127D01*
X377038Y271116D01*
X377016Y271093D01*
X376960Y271048D01*
X358133Y252221D01*
X356544Y252221D01*
X356429Y252202D01*
X356313Y252185D01*
X356308Y252183D01*
X356301Y252182D01*
X356199Y252127D01*
X356094Y252074D01*
X356090Y252069D01*
X356084Y252066D01*
X356004Y251982D01*
X355922Y251898D01*
X355918Y251892D01*
X355915Y251888D01*
X355907Y251871D01*
X355841Y251751D01*
X355719Y251457D01*
X353825Y249563D01*
X351351Y248538D01*
X348673Y248538D01*
X346199Y249563D01*
X344305Y251457D01*
X343280Y253931D01*
X343280Y256609D01*
X344305Y259083D01*
X346199Y260977D01*
X348673Y262002D01*
X351351Y262002D01*
X353825Y260977D01*
X355507Y259295D01*
X355523Y259283D01*
X355536Y259268D01*
X355623Y259212D01*
X355707Y259152D01*
X355726Y259146D01*
X355743Y259135D01*
X355843Y259110D01*
X355942Y259079D01*
X355962Y259080D01*
X355981Y259075D01*
X356084Y259083D01*
X356188Y259086D01*
X356206Y259092D01*
X356226Y259094D01*
X356321Y259134D01*
X356419Y259170D01*
X356434Y259183D01*
X356453Y259190D01*
X356584Y259295D01*
X372648Y275360D01*
X374657Y277369D01*
X379222Y277369D01*
X379242Y277372D01*
X379261Y277370D01*
X379363Y277392D01*
X379465Y277408D01*
X379482Y277418D01*
X379502Y277422D01*
X379591Y277475D01*
X379682Y277524D01*
X379696Y277538D01*
X379713Y277548D01*
X379780Y277627D01*
X379852Y277702D01*
X379860Y277720D01*
X379873Y277735D01*
X379912Y277831D01*
X379955Y277925D01*
X379957Y277945D01*
X379965Y277963D01*
X379983Y278130D01*
X379983Y279095D01*
X379965Y279208D01*
X379949Y279322D01*
X379945Y279332D01*
X379944Y279338D01*
X379933Y279358D01*
X379881Y279476D01*
X379648Y279879D01*
X379475Y280526D01*
X379475Y282131D01*
X388874Y282131D01*
X388893Y282134D01*
X388913Y282132D01*
X389015Y282154D01*
X389117Y282170D01*
X389134Y282180D01*
X389154Y282184D01*
X389243Y282237D01*
X389334Y282286D01*
X389348Y282300D01*
X389365Y282310D01*
X389386Y282335D01*
X389387Y282334D01*
X389462Y282262D01*
X389480Y282254D01*
X389495Y282241D01*
X389592Y282202D01*
X389685Y282159D01*
X389705Y282157D01*
X389723Y282149D01*
X389890Y282131D01*
X399289Y282131D01*
X399289Y280526D01*
X399244Y280359D01*
X399232Y280240D01*
X399219Y280123D01*
X399220Y280118D01*
X399220Y280114D01*
X399246Y279998D01*
X399271Y279882D01*
X399274Y279879D01*
X399275Y279875D01*
X399337Y279773D01*
X399398Y279671D01*
X399401Y279668D01*
X399403Y279665D01*
X399494Y279588D01*
X399585Y279511D01*
X399588Y279510D01*
X399592Y279507D01*
X399702Y279464D01*
X399813Y279419D01*
X399818Y279419D01*
X399821Y279417D01*
X399834Y279417D01*
X399979Y279401D01*
X400558Y279401D01*
X400578Y279404D01*
X400597Y279402D01*
X400699Y279424D01*
X400801Y279440D01*
X400818Y279450D01*
X400838Y279454D01*
X400927Y279507D01*
X401018Y279556D01*
X401032Y279570D01*
X401049Y279580D01*
X401116Y279659D01*
X401188Y279734D01*
X401196Y279752D01*
X401209Y279767D01*
X401248Y279863D01*
X401291Y279957D01*
X401293Y279977D01*
X401301Y279995D01*
X401319Y280162D01*
X401319Y286766D01*
X401316Y286786D01*
X401318Y286805D01*
X401296Y286907D01*
X401280Y287009D01*
X401270Y287026D01*
X401266Y287046D01*
X401213Y287135D01*
X401164Y287226D01*
X401150Y287240D01*
X401140Y287257D01*
X401061Y287324D01*
X400986Y287396D01*
X400968Y287404D01*
X400953Y287417D01*
X400857Y287456D01*
X400763Y287499D01*
X400743Y287501D01*
X400725Y287509D01*
X400558Y287527D01*
X399945Y287527D01*
X399828Y287508D01*
X399710Y287490D01*
X399707Y287488D01*
X399702Y287488D01*
X399597Y287432D01*
X399492Y287377D01*
X399489Y287374D01*
X399485Y287372D01*
X399403Y287286D01*
X399320Y287201D01*
X399319Y287197D01*
X399316Y287194D01*
X399265Y287086D01*
X399214Y286979D01*
X399214Y286975D01*
X399212Y286971D01*
X399199Y286854D01*
X399185Y286735D01*
X399185Y286730D01*
X399185Y286727D01*
X399188Y286713D01*
X399210Y286569D01*
X399289Y286275D01*
X399289Y284669D01*
X389890Y284669D01*
X389871Y284666D01*
X389851Y284668D01*
X389749Y284646D01*
X389647Y284630D01*
X389630Y284620D01*
X389610Y284616D01*
X389521Y284563D01*
X389430Y284514D01*
X389416Y284500D01*
X389399Y284490D01*
X389378Y284465D01*
X389377Y284466D01*
X389302Y284538D01*
X389284Y284546D01*
X389269Y284559D01*
X389172Y284598D01*
X389079Y284641D01*
X389059Y284643D01*
X389041Y284651D01*
X388874Y284669D01*
X379475Y284669D01*
X379475Y286274D01*
X379648Y286921D01*
X379881Y287324D01*
X379922Y287431D01*
X379926Y287443D01*
X379944Y287479D01*
X379944Y287487D01*
X379965Y287538D01*
X379966Y287548D01*
X379968Y287554D01*
X379969Y287576D01*
X379983Y287705D01*
X379983Y294894D01*
X379980Y294914D01*
X379982Y294933D01*
X379960Y295035D01*
X379944Y295137D01*
X379934Y295154D01*
X379930Y295174D01*
X379877Y295263D01*
X379828Y295354D01*
X379814Y295368D01*
X379804Y295385D01*
X379725Y295452D01*
X379650Y295524D01*
X379632Y295532D01*
X379617Y295545D01*
X379521Y295584D01*
X379427Y295627D01*
X379407Y295629D01*
X379389Y295637D01*
X379222Y295655D01*
X357178Y295655D01*
X357088Y295641D01*
X356997Y295633D01*
X356967Y295621D01*
X356935Y295616D01*
X356855Y295573D01*
X356771Y295537D01*
X356739Y295511D01*
X356718Y295500D01*
X356696Y295477D01*
X356640Y295432D01*
X328415Y267207D01*
X326524Y267207D01*
X326504Y267204D01*
X326485Y267206D01*
X326383Y267184D01*
X326281Y267168D01*
X326264Y267158D01*
X326244Y267154D01*
X326155Y267101D01*
X326064Y267052D01*
X326050Y267038D01*
X326033Y267028D01*
X325966Y266949D01*
X325894Y266874D01*
X325886Y266856D01*
X325873Y266841D01*
X325834Y266745D01*
X325791Y266651D01*
X325789Y266631D01*
X325781Y266613D01*
X325763Y266446D01*
X325763Y261238D01*
X324572Y260047D01*
X324523Y260047D01*
X324499Y260043D01*
X324475Y260046D01*
X324378Y260024D01*
X324280Y260008D01*
X324259Y259996D01*
X324235Y259991D01*
X324150Y259939D01*
X324063Y259892D01*
X324046Y259875D01*
X324025Y259862D01*
X323962Y259786D01*
X323893Y259714D01*
X323883Y259692D01*
X323868Y259674D01*
X323832Y259581D01*
X323790Y259491D01*
X323787Y259467D01*
X323778Y259445D01*
X323774Y259345D01*
X323763Y259247D01*
X323768Y259223D01*
X323767Y259199D01*
X323794Y259103D01*
X323815Y259006D01*
X323827Y258985D01*
X323834Y258962D01*
X323890Y258880D01*
X323941Y258795D01*
X323959Y258779D01*
X323973Y258760D01*
X324052Y258700D01*
X324128Y258635D01*
X324150Y258626D01*
X324170Y258612D01*
X324326Y258551D01*
X324711Y258448D01*
X325290Y258113D01*
X325763Y257640D01*
X326098Y257061D01*
X326271Y256414D01*
X326271Y251103D01*
X316992Y251103D01*
X316972Y251100D01*
X316953Y251102D01*
X316851Y251080D01*
X316749Y251063D01*
X316732Y251054D01*
X316712Y251050D01*
X316623Y250997D01*
X316532Y250948D01*
X316518Y250934D01*
X316501Y250924D01*
X316434Y250845D01*
X316363Y250770D01*
X316354Y250752D01*
X316341Y250737D01*
X316302Y250641D01*
X316259Y250547D01*
X316257Y250527D01*
X316249Y250509D01*
X316231Y250342D01*
X316231Y249579D01*
X316229Y249579D01*
X316229Y250342D01*
X316226Y250362D01*
X316228Y250381D01*
X316206Y250483D01*
X316189Y250585D01*
X316180Y250602D01*
X316176Y250622D01*
X316123Y250711D01*
X316074Y250802D01*
X316060Y250816D01*
X316050Y250833D01*
X315971Y250900D01*
X315896Y250971D01*
X315878Y250980D01*
X315863Y250993D01*
X315767Y251032D01*
X315673Y251075D01*
X315653Y251077D01*
X315635Y251085D01*
X315468Y251103D01*
X306189Y251103D01*
X306189Y256414D01*
X306362Y257061D01*
X306697Y257640D01*
X307170Y258113D01*
X307749Y258448D01*
X308134Y258551D01*
X308156Y258561D01*
X308180Y258565D01*
X308268Y258611D01*
X308358Y258652D01*
X308376Y258668D01*
X308397Y258680D01*
X308466Y258751D01*
X308539Y258819D01*
X308550Y258840D01*
X308567Y258858D01*
X308609Y258948D01*
X308656Y259035D01*
X308660Y259059D01*
X308670Y259081D01*
X308681Y259180D01*
X308698Y259278D01*
X308695Y259302D01*
X308697Y259325D01*
X308676Y259422D01*
X308661Y259521D01*
X308650Y259542D01*
X308645Y259566D01*
X308594Y259651D01*
X308549Y259740D01*
X308531Y259756D01*
X308519Y259777D01*
X308443Y259842D01*
X308372Y259911D01*
X308350Y259921D01*
X308332Y259937D01*
X308240Y259974D01*
X308150Y260017D01*
X308126Y260020D01*
X308104Y260029D01*
X307937Y260047D01*
X307888Y260047D01*
X306697Y261238D01*
X306697Y266446D01*
X306694Y266466D01*
X306696Y266485D01*
X306674Y266587D01*
X306658Y266689D01*
X306648Y266706D01*
X306644Y266726D01*
X306591Y266815D01*
X306542Y266906D01*
X306528Y266920D01*
X306518Y266937D01*
X306439Y267004D01*
X306364Y267076D01*
X306346Y267084D01*
X306331Y267097D01*
X306235Y267136D01*
X306141Y267179D01*
X306121Y267181D01*
X306103Y267189D01*
X305936Y267207D01*
X298250Y267207D01*
X298160Y267193D01*
X298069Y267185D01*
X298039Y267173D01*
X298007Y267168D01*
X297927Y267125D01*
X297843Y267089D01*
X297811Y267063D01*
X297790Y267052D01*
X297768Y267029D01*
X297712Y266984D01*
X276506Y245778D01*
X276453Y245704D01*
X276393Y245635D01*
X276381Y245605D01*
X276362Y245578D01*
X276335Y245491D01*
X276301Y245407D01*
X276297Y245366D01*
X276290Y245343D01*
X276291Y245311D01*
X276283Y245240D01*
X276283Y219814D01*
X273986Y217517D01*
X259414Y217517D01*
X257117Y219814D01*
X257117Y265473D01*
X257103Y265563D01*
X257095Y265654D01*
X257083Y265684D01*
X257078Y265715D01*
X257047Y265773D01*
X257047Y281512D01*
X258238Y282703D01*
X275162Y282703D01*
X276353Y281512D01*
X276353Y265781D01*
X276335Y265724D01*
X276301Y265639D01*
X276297Y265599D01*
X276290Y265576D01*
X276291Y265544D01*
X276283Y265473D01*
X276283Y256016D01*
X276294Y255945D01*
X276296Y255874D01*
X276314Y255825D01*
X276322Y255773D01*
X276356Y255710D01*
X276381Y255643D01*
X276413Y255602D01*
X276438Y255556D01*
X276490Y255507D01*
X276534Y255451D01*
X276578Y255422D01*
X276616Y255387D01*
X276681Y255356D01*
X276741Y255318D01*
X276792Y255305D01*
X276839Y255283D01*
X276910Y255275D01*
X276980Y255258D01*
X277032Y255262D01*
X277083Y255256D01*
X277154Y255271D01*
X277225Y255277D01*
X277273Y255297D01*
X277324Y255308D01*
X277385Y255345D01*
X277451Y255373D01*
X277507Y255418D01*
X277535Y255434D01*
X277550Y255452D01*
X277582Y255478D01*
X295409Y273305D01*
X305936Y273305D01*
X305956Y273308D01*
X305975Y273306D01*
X306077Y273328D01*
X306179Y273344D01*
X306196Y273354D01*
X306216Y273358D01*
X306305Y273411D01*
X306396Y273460D01*
X306410Y273474D01*
X306427Y273484D01*
X306494Y273563D01*
X306566Y273638D01*
X306574Y273656D01*
X306587Y273671D01*
X306626Y273767D01*
X306669Y273861D01*
X306671Y273881D01*
X306679Y273899D01*
X306697Y274066D01*
X306697Y275922D01*
X307888Y277113D01*
X324572Y277113D01*
X325763Y275922D01*
X325763Y275016D01*
X325774Y274945D01*
X325776Y274874D01*
X325794Y274825D01*
X325802Y274773D01*
X325836Y274710D01*
X325861Y274643D01*
X325893Y274602D01*
X325918Y274556D01*
X325970Y274507D01*
X326014Y274451D01*
X326058Y274422D01*
X326096Y274387D01*
X326161Y274356D01*
X326221Y274318D01*
X326272Y274305D01*
X326319Y274283D01*
X326390Y274275D01*
X326460Y274258D01*
X326512Y274262D01*
X326563Y274256D01*
X326634Y274271D01*
X326705Y274277D01*
X326753Y274297D01*
X326804Y274308D01*
X326865Y274345D01*
X326931Y274373D01*
X326987Y274418D01*
X327015Y274434D01*
X327030Y274452D01*
X327062Y274478D01*
X354337Y301753D01*
X379222Y301753D01*
X379242Y301756D01*
X379261Y301754D01*
X379363Y301776D01*
X379465Y301792D01*
X379482Y301802D01*
X379502Y301806D01*
X379591Y301859D01*
X379682Y301908D01*
X379696Y301922D01*
X379713Y301932D01*
X379780Y302011D01*
X379852Y302086D01*
X379860Y302104D01*
X379873Y302119D01*
X379912Y302215D01*
X379955Y302309D01*
X379957Y302329D01*
X379965Y302347D01*
X379983Y302514D01*
X379983Y302782D01*
X380063Y302862D01*
X380075Y302878D01*
X380090Y302890D01*
X380146Y302977D01*
X380207Y303061D01*
X380212Y303080D01*
X380223Y303097D01*
X380248Y303198D01*
X380279Y303296D01*
X380278Y303316D01*
X380283Y303336D01*
X380275Y303439D01*
X380273Y303542D01*
X380266Y303561D01*
X380264Y303581D01*
X380224Y303676D01*
X380188Y303773D01*
X380176Y303789D01*
X380168Y303807D01*
X380063Y303938D01*
X379983Y304018D01*
X379983Y304238D01*
X379969Y304328D01*
X379961Y304419D01*
X379949Y304449D01*
X379944Y304481D01*
X379901Y304561D01*
X379865Y304645D01*
X379839Y304677D01*
X379828Y304698D01*
X379805Y304720D01*
X379760Y304776D01*
X378944Y305592D01*
X378870Y305645D01*
X378801Y305705D01*
X378771Y305717D01*
X378744Y305736D01*
X378657Y305763D01*
X378573Y305797D01*
X378532Y305801D01*
X378509Y305808D01*
X378477Y305807D01*
X378406Y305815D01*
X327921Y305815D01*
X327062Y306674D01*
X327004Y306716D01*
X326952Y306765D01*
X326905Y306787D01*
X326863Y306818D01*
X326794Y306839D01*
X326729Y306869D01*
X326677Y306875D01*
X326627Y306890D01*
X326556Y306888D01*
X326485Y306896D01*
X326434Y306885D01*
X326382Y306884D01*
X326314Y306859D01*
X326244Y306844D01*
X326199Y306817D01*
X326151Y306799D01*
X326095Y306754D01*
X326033Y306718D01*
X325999Y306678D01*
X325959Y306646D01*
X325920Y306585D01*
X325873Y306531D01*
X325854Y306482D01*
X325826Y306439D01*
X325808Y306369D01*
X325781Y306303D01*
X325773Y306231D01*
X325765Y306200D01*
X325767Y306177D01*
X325763Y306136D01*
X325763Y305738D01*
X324572Y304547D01*
X307888Y304547D01*
X306697Y305738D01*
X306697Y311150D01*
X306694Y311170D01*
X306696Y311189D01*
X306674Y311291D01*
X306658Y311393D01*
X306648Y311410D01*
X306644Y311430D01*
X306591Y311519D01*
X306542Y311610D01*
X306528Y311624D01*
X306518Y311641D01*
X306439Y311708D01*
X306364Y311780D01*
X306346Y311788D01*
X306331Y311801D01*
X306235Y311840D01*
X306141Y311883D01*
X306121Y311885D01*
X306103Y311893D01*
X305936Y311911D01*
X281185Y311911D01*
X277652Y315444D01*
X277594Y315486D01*
X277542Y315535D01*
X277495Y315557D01*
X277453Y315588D01*
X277384Y315609D01*
X277319Y315639D01*
X277267Y315645D01*
X277217Y315660D01*
X277146Y315658D01*
X277075Y315666D01*
X277024Y315655D01*
X276972Y315654D01*
X276904Y315629D01*
X276834Y315614D01*
X276789Y315587D01*
X276741Y315569D01*
X276685Y315524D01*
X276623Y315488D01*
X276589Y315448D01*
X276549Y315416D01*
X276510Y315355D01*
X276463Y315301D01*
X276444Y315252D01*
X276416Y315209D01*
X276398Y315139D01*
X276371Y315073D01*
X276363Y315001D01*
X276355Y314970D01*
X276357Y314947D01*
X276353Y314906D01*
X276353Y301418D01*
X275162Y300227D01*
X258238Y300227D01*
X257047Y301418D01*
X257047Y317149D01*
X257065Y317205D01*
X257099Y317291D01*
X257103Y317331D01*
X257110Y317354D01*
X257109Y317386D01*
X257117Y317457D01*
X257117Y364386D01*
X259414Y366683D01*
X273986Y366683D01*
X276283Y364386D01*
X276283Y325752D01*
X276289Y325711D01*
X276289Y325708D01*
X276293Y325687D01*
X276297Y325662D01*
X276305Y325571D01*
X276317Y325541D01*
X276322Y325509D01*
X276339Y325479D01*
X276341Y325467D01*
X276368Y325423D01*
X276401Y325345D01*
X276427Y325313D01*
X276438Y325292D01*
X276457Y325274D01*
X276467Y325256D01*
X276482Y325244D01*
X276506Y325214D01*
X283488Y318232D01*
X283562Y318179D01*
X283631Y318119D01*
X283661Y318107D01*
X283688Y318088D01*
X283775Y318061D01*
X283859Y318027D01*
X283900Y318023D01*
X283923Y318016D01*
X283955Y318017D01*
X284026Y318009D01*
X305936Y318009D01*
X305956Y318012D01*
X305975Y318010D01*
X306077Y318032D01*
X306179Y318048D01*
X306196Y318058D01*
X306216Y318062D01*
X306305Y318115D01*
X306396Y318164D01*
X306410Y318178D01*
X306427Y318188D01*
X306494Y318267D01*
X306566Y318342D01*
X306574Y318360D01*
X306587Y318375D01*
X306626Y318471D01*
X306669Y318565D01*
X306671Y318585D01*
X306679Y318603D01*
X306697Y318770D01*
X306697Y320422D01*
X307888Y321613D01*
X307937Y321613D01*
X307961Y321617D01*
X307985Y321614D01*
X308082Y321636D01*
X308180Y321652D01*
X308201Y321664D01*
X308225Y321669D01*
X308310Y321721D01*
X308397Y321768D01*
X308414Y321785D01*
X308434Y321798D01*
X308498Y321874D01*
X308567Y321946D01*
X308577Y321968D01*
X308592Y321986D01*
X308628Y322079D01*
X308670Y322169D01*
X308673Y322193D01*
X308682Y322215D01*
X308686Y322315D01*
X308697Y322413D01*
X308692Y322437D01*
X308693Y322461D01*
X308666Y322556D01*
X308645Y322654D01*
X308633Y322675D01*
X308626Y322698D01*
X308570Y322779D01*
X308519Y322865D01*
X308501Y322881D01*
X308487Y322900D01*
X308408Y322960D01*
X308332Y323025D01*
X308310Y323034D01*
X308290Y323048D01*
X308134Y323109D01*
X307749Y323212D01*
X307170Y323547D01*
X306697Y324020D01*
X306362Y324599D01*
X306189Y325246D01*
X306189Y330557D01*
X315468Y330557D01*
X315488Y330560D01*
X315507Y330558D01*
X315609Y330580D01*
X315711Y330597D01*
X315728Y330606D01*
X315748Y330610D01*
X315837Y330663D01*
X315928Y330712D01*
X315942Y330726D01*
X315959Y330736D01*
X316026Y330815D01*
X316097Y330890D01*
X316106Y330908D01*
X316119Y330923D01*
X316158Y331019D01*
X316201Y331113D01*
X316203Y331133D01*
X316211Y331151D01*
X316229Y331318D01*
X316229Y332081D01*
X316231Y332081D01*
X316231Y331318D01*
X316234Y331298D01*
X316232Y331279D01*
X316254Y331177D01*
X316271Y331075D01*
X316280Y331058D01*
X316284Y331038D01*
X316337Y330949D01*
X316386Y330858D01*
X316400Y330844D01*
X316410Y330827D01*
X316489Y330760D01*
X316564Y330689D01*
X316582Y330680D01*
X316597Y330667D01*
X316693Y330628D01*
X316787Y330585D01*
X316807Y330583D01*
X316825Y330575D01*
X316992Y330557D01*
X326271Y330557D01*
X326271Y325246D01*
X326098Y324599D01*
X325763Y324020D01*
X325290Y323547D01*
X324711Y323212D01*
X324326Y323109D01*
X324304Y323099D01*
X324280Y323095D01*
X324192Y323049D01*
X324102Y323008D01*
X324084Y322992D01*
X324063Y322980D01*
X323994Y322909D01*
X323921Y322841D01*
X323910Y322820D01*
X323893Y322802D01*
X323851Y322712D01*
X323804Y322625D01*
X323800Y322601D01*
X323790Y322579D01*
X323779Y322480D01*
X323762Y322382D01*
X323765Y322358D01*
X323763Y322335D01*
X323784Y322238D01*
X323799Y322139D01*
X323810Y322118D01*
X323815Y322094D01*
X323866Y322009D01*
X323911Y321920D01*
X323929Y321904D01*
X323941Y321883D01*
X324017Y321818D01*
X324088Y321749D01*
X324110Y321739D01*
X324128Y321723D01*
X324220Y321686D01*
X324310Y321643D01*
X324334Y321640D01*
X324356Y321631D01*
X324523Y321613D01*
X324572Y321613D01*
X325763Y320422D01*
X325763Y316912D01*
X325777Y316822D01*
X325785Y316731D01*
X325797Y316701D01*
X325802Y316669D01*
X325845Y316589D01*
X325881Y316505D01*
X325907Y316473D01*
X325918Y316452D01*
X325941Y316430D01*
X325986Y316374D01*
X326360Y316000D01*
X330224Y312136D01*
X330298Y312083D01*
X330367Y312023D01*
X330397Y312011D01*
X330424Y311992D01*
X330511Y311965D01*
X330595Y311931D01*
X330636Y311927D01*
X330659Y311920D01*
X330691Y311921D01*
X330762Y311913D01*
X380799Y311913D01*
X380889Y311927D01*
X380980Y311935D01*
X381010Y311947D01*
X381041Y311952D01*
X381080Y311973D01*
X397590Y311973D01*
X398781Y310782D01*
X398781Y304018D01*
X398701Y303938D01*
X398689Y303922D01*
X398674Y303910D01*
X398618Y303822D01*
X398557Y303739D01*
X398552Y303720D01*
X398541Y303703D01*
X398516Y303602D01*
X398485Y303503D01*
X398486Y303483D01*
X398481Y303464D01*
X398489Y303361D01*
X398491Y303258D01*
X398498Y303239D01*
X398500Y303219D01*
X398540Y303124D01*
X398576Y303027D01*
X398588Y303011D01*
X398596Y302993D01*
X398701Y302862D01*
X398781Y302782D01*
X398781Y296018D01*
X398701Y295938D01*
X398689Y295922D01*
X398674Y295910D01*
X398618Y295823D01*
X398557Y295739D01*
X398552Y295720D01*
X398541Y295703D01*
X398516Y295602D01*
X398485Y295504D01*
X398486Y295484D01*
X398481Y295464D01*
X398489Y295361D01*
X398491Y295258D01*
X398498Y295239D01*
X398500Y295219D01*
X398540Y295124D01*
X398576Y295027D01*
X398588Y295011D01*
X398596Y294993D01*
X398701Y294862D01*
X398781Y294782D01*
X398781Y294386D01*
X398784Y294366D01*
X398782Y294347D01*
X398804Y294245D01*
X398820Y294143D01*
X398830Y294126D01*
X398834Y294106D01*
X398887Y294017D01*
X398936Y293926D01*
X398950Y293912D01*
X398960Y293895D01*
X399039Y293828D01*
X399114Y293756D01*
X399132Y293748D01*
X399147Y293735D01*
X399243Y293696D01*
X399337Y293653D01*
X399357Y293651D01*
X399375Y293643D01*
X399542Y293625D01*
X403599Y293625D01*
X403830Y293394D01*
X403846Y293382D01*
X403858Y293367D01*
X403946Y293311D01*
X404029Y293250D01*
X404048Y293244D01*
X404065Y293234D01*
X404166Y293208D01*
X404265Y293178D01*
X404284Y293178D01*
X404304Y293174D01*
X404407Y293182D01*
X404510Y293184D01*
X404529Y293191D01*
X404549Y293193D01*
X404644Y293233D01*
X404741Y293269D01*
X404757Y293281D01*
X404775Y293289D01*
X404906Y293394D01*
X413265Y301753D01*
X459686Y301753D01*
X459776Y301767D01*
X459867Y301775D01*
X459897Y301787D01*
X459929Y301792D01*
X460009Y301835D01*
X460093Y301871D01*
X460125Y301897D01*
X460146Y301908D01*
X460168Y301931D01*
X460224Y301976D01*
X462033Y303785D01*
X464058Y303785D01*
X464078Y303788D01*
X464097Y303786D01*
X464199Y303808D01*
X464301Y303824D01*
X464318Y303834D01*
X464338Y303838D01*
X464427Y303891D01*
X464518Y303940D01*
X464532Y303954D01*
X464549Y303964D01*
X464616Y304043D01*
X464688Y304118D01*
X464696Y304136D01*
X464709Y304151D01*
X464748Y304247D01*
X464791Y304341D01*
X464793Y304361D01*
X464801Y304379D01*
X464819Y304546D01*
X464819Y310782D01*
X466010Y311973D01*
X469646Y311973D01*
X469666Y311976D01*
X469685Y311974D01*
X469787Y311996D01*
X469889Y312012D01*
X469906Y312022D01*
X469926Y312026D01*
X470015Y312079D01*
X470106Y312128D01*
X470120Y312142D01*
X470137Y312152D01*
X470204Y312231D01*
X470276Y312306D01*
X470284Y312324D01*
X470297Y312339D01*
X470336Y312435D01*
X470379Y312529D01*
X470381Y312549D01*
X470389Y312567D01*
X470407Y312734D01*
X470407Y354831D01*
X471654Y356078D01*
X471666Y356094D01*
X471681Y356106D01*
X471737Y356194D01*
X471798Y356277D01*
X471804Y356296D01*
X471814Y356313D01*
X471840Y356414D01*
X471870Y356513D01*
X471870Y356532D01*
X471874Y356552D01*
X471866Y356655D01*
X471864Y356758D01*
X471857Y356777D01*
X471855Y356797D01*
X471815Y356892D01*
X471779Y356989D01*
X471767Y357005D01*
X471759Y357023D01*
X471654Y357154D01*
X470384Y358424D01*
X470310Y358477D01*
X470241Y358537D01*
X470211Y358549D01*
X470184Y358568D01*
X470097Y358595D01*
X470013Y358629D01*
X469972Y358633D01*
X469949Y358640D01*
X469917Y358639D01*
X469846Y358647D01*
X466710Y358647D01*
X463162Y360117D01*
X460447Y362832D01*
X458977Y366380D01*
X458977Y385460D01*
X460447Y389008D01*
X463162Y391723D01*
X466710Y393193D01*
X470550Y393193D01*
X474098Y391723D01*
X476813Y389008D01*
X478283Y385460D01*
X478283Y366380D01*
X476813Y362832D01*
X476245Y362264D01*
X476233Y362247D01*
X476217Y362235D01*
X476161Y362148D01*
X476101Y362064D01*
X476095Y362045D01*
X476084Y362028D01*
X476059Y361928D01*
X476029Y361829D01*
X476029Y361809D01*
X476024Y361790D01*
X476032Y361687D01*
X476035Y361583D01*
X476042Y361564D01*
X476043Y361544D01*
X476084Y361449D01*
X476119Y361352D01*
X476132Y361336D01*
X476140Y361318D01*
X476245Y361187D01*
X478537Y358895D01*
X478537Y354337D01*
X476728Y352528D01*
X476675Y352454D01*
X476615Y352385D01*
X476603Y352355D01*
X476584Y352328D01*
X476557Y352241D01*
X476523Y352157D01*
X476519Y352116D01*
X476512Y352093D01*
X476513Y352061D01*
X476505Y351990D01*
X476505Y312734D01*
X476508Y312714D01*
X476506Y312695D01*
X476528Y312593D01*
X476544Y312491D01*
X476554Y312474D01*
X476558Y312454D01*
X476611Y312365D01*
X476660Y312274D01*
X476674Y312260D01*
X476684Y312243D01*
X476763Y312176D01*
X476838Y312104D01*
X476856Y312096D01*
X476871Y312083D01*
X476967Y312044D01*
X477061Y312001D01*
X477081Y311999D01*
X477099Y311991D01*
X477266Y311973D01*
X482426Y311973D01*
X483617Y310782D01*
X483617Y306886D01*
X483628Y306815D01*
X483630Y306744D01*
X483648Y306695D01*
X483656Y306643D01*
X483690Y306580D01*
X483715Y306513D01*
X483747Y306472D01*
X483772Y306426D01*
X483824Y306377D01*
X483868Y306321D01*
X483912Y306292D01*
X483950Y306257D01*
X484015Y306226D01*
X484075Y306188D01*
X484126Y306175D01*
X484173Y306153D01*
X484244Y306145D01*
X484314Y306128D01*
X484366Y306132D01*
X484417Y306126D01*
X484488Y306141D01*
X484559Y306147D01*
X484607Y306167D01*
X484658Y306178D01*
X484719Y306215D01*
X484785Y306243D01*
X484841Y306288D01*
X484869Y306304D01*
X484884Y306322D01*
X484916Y306348D01*
X486640Y308072D01*
X492790Y314222D01*
X492843Y314296D01*
X492903Y314365D01*
X492915Y314395D01*
X492934Y314422D01*
X492961Y314509D01*
X492995Y314593D01*
X492999Y314634D01*
X493006Y314657D01*
X493005Y314689D01*
X493013Y314760D01*
X493013Y348125D01*
X495022Y350134D01*
X515056Y370168D01*
X515098Y370226D01*
X515147Y370278D01*
X515169Y370325D01*
X515200Y370367D01*
X515221Y370436D01*
X515251Y370501D01*
X515257Y370553D01*
X515272Y370603D01*
X515270Y370674D01*
X515278Y370745D01*
X515267Y370796D01*
X515266Y370848D01*
X515241Y370916D01*
X515226Y370986D01*
X515199Y371031D01*
X515181Y371079D01*
X515136Y371135D01*
X515100Y371197D01*
X515060Y371231D01*
X515028Y371271D01*
X514967Y371310D01*
X514913Y371357D01*
X514864Y371376D01*
X514821Y371404D01*
X514751Y371422D01*
X514685Y371449D01*
X514613Y371457D01*
X514582Y371465D01*
X514559Y371463D01*
X514518Y371467D01*
X503858Y371467D01*
X502667Y372658D01*
X502667Y378206D01*
X502664Y378226D01*
X502666Y378245D01*
X502644Y378347D01*
X502628Y378449D01*
X502618Y378466D01*
X502614Y378486D01*
X502561Y378575D01*
X502512Y378666D01*
X502498Y378680D01*
X502488Y378697D01*
X502409Y378764D01*
X502334Y378836D01*
X502316Y378844D01*
X502301Y378857D01*
X502205Y378896D01*
X502111Y378939D01*
X502091Y378941D01*
X502073Y378949D01*
X501906Y378967D01*
X490481Y378967D01*
X474448Y395000D01*
X474374Y395053D01*
X474305Y395113D01*
X474275Y395125D01*
X474248Y395144D01*
X474161Y395171D01*
X474077Y395205D01*
X474036Y395209D01*
X474013Y395216D01*
X473981Y395215D01*
X473910Y395223D01*
X387658Y395223D01*
X387568Y395209D01*
X387477Y395201D01*
X387447Y395189D01*
X387415Y395184D01*
X387335Y395141D01*
X387251Y395105D01*
X387219Y395079D01*
X387198Y395068D01*
X387176Y395045D01*
X387120Y395000D01*
X377078Y384959D01*
X377075Y384957D01*
X376984Y384908D01*
X376970Y384894D01*
X376953Y384884D01*
X376886Y384805D01*
X376814Y384730D01*
X376806Y384712D01*
X376793Y384697D01*
X376754Y384601D01*
X376711Y384507D01*
X376709Y384487D01*
X376701Y384469D01*
X376683Y384302D01*
X376683Y366380D01*
X375213Y362832D01*
X372498Y360117D01*
X368950Y358647D01*
X365110Y358647D01*
X361562Y360117D01*
X358847Y362832D01*
X357377Y366380D01*
X357377Y385460D01*
X358847Y389008D01*
X361562Y391723D01*
X365110Y393193D01*
X368950Y393193D01*
X372498Y391723D01*
X372837Y391384D01*
X372911Y391331D01*
X372981Y391271D01*
X373011Y391259D01*
X373037Y391240D01*
X373124Y391213D01*
X373209Y391179D01*
X373250Y391175D01*
X373272Y391168D01*
X373304Y391169D01*
X373376Y391161D01*
X374342Y391161D01*
X374432Y391175D01*
X374523Y391183D01*
X374553Y391195D01*
X374585Y391200D01*
X374665Y391243D01*
X374749Y391279D01*
X374781Y391305D01*
X374802Y391316D01*
X374824Y391339D01*
X374880Y391384D01*
X384817Y401321D01*
X476751Y401321D01*
X492784Y385288D01*
X492858Y385235D01*
X492927Y385175D01*
X492957Y385163D01*
X492984Y385144D01*
X493071Y385117D01*
X493155Y385083D01*
X493196Y385079D01*
X493219Y385072D01*
X493251Y385073D01*
X493322Y385065D01*
X501906Y385065D01*
X501926Y385068D01*
X501945Y385066D01*
X502047Y385088D01*
X502149Y385104D01*
X502166Y385114D01*
X502186Y385118D01*
X502275Y385171D01*
X502366Y385220D01*
X502380Y385234D01*
X502397Y385244D01*
X502464Y385323D01*
X502536Y385398D01*
X502544Y385416D01*
X502557Y385431D01*
X502596Y385527D01*
X502639Y385621D01*
X502641Y385641D01*
X502649Y385659D01*
X502667Y385826D01*
X502667Y389342D01*
X503858Y390533D01*
X508254Y390533D01*
X508274Y390536D01*
X508293Y390534D01*
X508395Y390556D01*
X508497Y390572D01*
X508514Y390582D01*
X508534Y390586D01*
X508623Y390639D01*
X508714Y390688D01*
X508728Y390702D01*
X508745Y390712D01*
X508812Y390791D01*
X508884Y390866D01*
X508892Y390884D01*
X508905Y390899D01*
X508944Y390995D01*
X508987Y391089D01*
X508989Y391109D01*
X508997Y391127D01*
X509015Y391294D01*
X509015Y391407D01*
X516897Y399289D01*
X578859Y399289D01*
X582312Y395836D01*
X582386Y395783D01*
X582455Y395723D01*
X582485Y395711D01*
X582512Y395692D01*
X582599Y395665D01*
X582683Y395631D01*
X582724Y395627D01*
X582747Y395620D01*
X582779Y395621D01*
X582850Y395613D01*
X594742Y395613D01*
X595933Y394422D01*
X595933Y377738D01*
X594742Y376547D01*
X580058Y376547D01*
X578867Y377738D01*
X578867Y390342D01*
X578853Y390432D01*
X578845Y390523D01*
X578833Y390553D01*
X578828Y390585D01*
X578785Y390665D01*
X578749Y390749D01*
X578723Y390781D01*
X578712Y390802D01*
X578689Y390824D01*
X578644Y390880D01*
X576556Y392968D01*
X576482Y393021D01*
X576413Y393081D01*
X576383Y393093D01*
X576356Y393112D01*
X576269Y393139D01*
X576185Y393173D01*
X576144Y393177D01*
X576121Y393184D01*
X576089Y393183D01*
X576018Y393191D01*
X519738Y393191D01*
X519648Y393177D01*
X519557Y393169D01*
X519527Y393157D01*
X519495Y393152D01*
X519415Y393109D01*
X519331Y393073D01*
X519299Y393047D01*
X519278Y393036D01*
X519256Y393013D01*
X519200Y392968D01*
X518064Y391832D01*
X518022Y391774D01*
X517973Y391722D01*
X517951Y391675D01*
X517920Y391633D01*
X517899Y391564D01*
X517869Y391499D01*
X517863Y391447D01*
X517848Y391397D01*
X517850Y391326D01*
X517842Y391255D01*
X517853Y391204D01*
X517854Y391152D01*
X517879Y391084D01*
X517894Y391014D01*
X517921Y390969D01*
X517939Y390921D01*
X517984Y390865D01*
X518020Y390803D01*
X518060Y390769D01*
X518092Y390729D01*
X518153Y390690D01*
X518207Y390643D01*
X518256Y390624D01*
X518299Y390596D01*
X518369Y390578D01*
X518435Y390551D01*
X518507Y390543D01*
X518538Y390535D01*
X518539Y390536D01*
X519733Y389342D01*
X519733Y376682D01*
X519744Y376611D01*
X519746Y376540D01*
X519764Y376491D01*
X519772Y376439D01*
X519806Y376376D01*
X519831Y376309D01*
X519863Y376268D01*
X519888Y376222D01*
X519939Y376173D01*
X519984Y376117D01*
X520028Y376088D01*
X520066Y376053D01*
X520131Y376022D01*
X520191Y375984D01*
X520242Y375971D01*
X520289Y375949D01*
X520360Y375941D01*
X520430Y375924D01*
X520482Y375928D01*
X520533Y375922D01*
X520604Y375937D01*
X520675Y375943D01*
X520723Y375963D01*
X520774Y375974D01*
X520835Y376011D01*
X520901Y376039D01*
X520957Y376084D01*
X520985Y376100D01*
X521000Y376118D01*
X521032Y376144D01*
X521444Y376556D01*
X521497Y376630D01*
X521557Y376699D01*
X521569Y376729D01*
X521588Y376756D01*
X521615Y376843D01*
X521649Y376927D01*
X521653Y376968D01*
X521660Y376991D01*
X521659Y377023D01*
X521667Y377094D01*
X521667Y389342D01*
X522858Y390533D01*
X537542Y390533D01*
X538733Y389342D01*
X538733Y372658D01*
X537542Y371467D01*
X525294Y371467D01*
X525204Y371453D01*
X525113Y371445D01*
X525083Y371433D01*
X525051Y371428D01*
X524971Y371385D01*
X524887Y371349D01*
X524855Y371323D01*
X524834Y371312D01*
X524812Y371289D01*
X524756Y371244D01*
X499334Y345822D01*
X499281Y345748D01*
X499221Y345679D01*
X499209Y345649D01*
X499190Y345622D01*
X499163Y345535D01*
X499129Y345451D01*
X499125Y345410D01*
X499118Y345387D01*
X499119Y345355D01*
X499111Y345284D01*
X499111Y311919D01*
X496340Y309148D01*
X496298Y309090D01*
X496249Y309038D01*
X496227Y308991D01*
X496196Y308949D01*
X496175Y308880D01*
X496145Y308815D01*
X496139Y308763D01*
X496124Y308713D01*
X496126Y308642D01*
X496118Y308571D01*
X496129Y308520D01*
X496130Y308468D01*
X496155Y308400D01*
X496170Y308330D01*
X496197Y308285D01*
X496215Y308237D01*
X496260Y308181D01*
X496296Y308119D01*
X496336Y308085D01*
X496368Y308045D01*
X496429Y308006D01*
X496483Y307959D01*
X496532Y307940D01*
X496575Y307912D01*
X496645Y307894D01*
X496711Y307867D01*
X496783Y307859D01*
X496814Y307851D01*
X496837Y307853D01*
X496878Y307849D01*
X498595Y307849D01*
X538989Y267455D01*
X538989Y254436D01*
X539008Y254320D01*
X539025Y254205D01*
X539027Y254200D01*
X539028Y254193D01*
X539083Y254091D01*
X539136Y253986D01*
X539141Y253982D01*
X539144Y253976D01*
X539229Y253895D01*
X539312Y253814D01*
X539318Y253810D01*
X539322Y253807D01*
X539339Y253799D01*
X539459Y253733D01*
X539753Y253611D01*
X541647Y251717D01*
X542672Y249243D01*
X542672Y246565D01*
X542550Y246270D01*
X542523Y246157D01*
X542494Y246043D01*
X542495Y246037D01*
X542494Y246031D01*
X542505Y245915D01*
X542514Y245798D01*
X542516Y245792D01*
X542517Y245786D01*
X542565Y245679D01*
X542610Y245572D01*
X542615Y245566D01*
X542617Y245561D01*
X542629Y245548D01*
X542715Y245441D01*
X543784Y244372D01*
X543800Y244360D01*
X543812Y244345D01*
X543900Y244289D01*
X543983Y244228D01*
X544002Y244222D01*
X544019Y244212D01*
X544120Y244186D01*
X544219Y244156D01*
X544238Y244156D01*
X544258Y244152D01*
X544361Y244160D01*
X544464Y244162D01*
X544483Y244169D01*
X544503Y244171D01*
X544598Y244211D01*
X544695Y244247D01*
X544711Y244259D01*
X544729Y244267D01*
X544860Y244372D01*
X551441Y250953D01*
X582415Y250953D01*
X582900Y250468D01*
X582958Y250426D01*
X583010Y250377D01*
X583057Y250355D01*
X583099Y250324D01*
X583168Y250303D01*
X583233Y250273D01*
X583285Y250267D01*
X583335Y250252D01*
X583406Y250254D01*
X583477Y250246D01*
X583528Y250257D01*
X583580Y250258D01*
X583648Y250283D01*
X583718Y250298D01*
X583763Y250325D01*
X583811Y250343D01*
X583867Y250388D01*
X583929Y250424D01*
X583963Y250464D01*
X584003Y250496D01*
X584042Y250557D01*
X584089Y250611D01*
X584108Y250660D01*
X584136Y250703D01*
X584154Y250773D01*
X584181Y250839D01*
X584189Y250911D01*
X584197Y250942D01*
X584195Y250965D01*
X584199Y251006D01*
X584199Y256406D01*
X584196Y256426D01*
X584198Y256445D01*
X584176Y256547D01*
X584160Y256649D01*
X584150Y256666D01*
X584146Y256686D01*
X584093Y256775D01*
X584044Y256866D01*
X584030Y256880D01*
X584020Y256897D01*
X583941Y256964D01*
X583866Y257036D01*
X583848Y257044D01*
X583833Y257057D01*
X583737Y257096D01*
X583643Y257139D01*
X583623Y257141D01*
X583605Y257149D01*
X583438Y257167D01*
X580058Y257167D01*
X578867Y258358D01*
X578867Y275042D01*
X580058Y276233D01*
X594742Y276233D01*
X595933Y275042D01*
X595933Y259461D01*
X595936Y259441D01*
X595934Y259422D01*
X595956Y259320D01*
X595972Y259218D01*
X595982Y259201D01*
X595986Y259181D01*
X596039Y259092D01*
X596088Y259001D01*
X596102Y258987D01*
X596112Y258970D01*
X596191Y258903D01*
X596266Y258831D01*
X596284Y258823D01*
X596299Y258810D01*
X596395Y258771D01*
X596489Y258728D01*
X596509Y258726D01*
X596527Y258718D01*
X596694Y258700D01*
X596715Y258700D01*
X596815Y258658D01*
X596859Y258648D01*
X596901Y258629D01*
X596978Y258620D01*
X597054Y258602D01*
X597100Y258607D01*
X597145Y258602D01*
X597222Y258618D01*
X597299Y258625D01*
X597341Y258644D01*
X597386Y258654D01*
X597453Y258694D01*
X597524Y258725D01*
X597558Y258756D01*
X597597Y258780D01*
X597648Y258839D01*
X597705Y258892D01*
X597727Y258932D01*
X597757Y258967D01*
X597786Y259039D01*
X597823Y259107D01*
X597832Y259152D01*
X597849Y259195D01*
X597864Y259331D01*
X597867Y259349D01*
X597866Y259354D01*
X597867Y259362D01*
X597867Y275042D01*
X599058Y276233D01*
X613742Y276233D01*
X614933Y275042D01*
X614933Y270002D01*
X614936Y269982D01*
X614934Y269963D01*
X614956Y269861D01*
X614972Y269759D01*
X614982Y269742D01*
X614986Y269722D01*
X615039Y269633D01*
X615088Y269542D01*
X615102Y269528D01*
X615112Y269511D01*
X615191Y269444D01*
X615266Y269372D01*
X615284Y269364D01*
X615299Y269351D01*
X615395Y269312D01*
X615489Y269269D01*
X615509Y269267D01*
X615527Y269259D01*
X615694Y269241D01*
X645614Y269241D01*
X645704Y269255D01*
X645795Y269263D01*
X645825Y269275D01*
X645857Y269280D01*
X645937Y269323D01*
X646021Y269359D01*
X646053Y269385D01*
X646074Y269396D01*
X646096Y269419D01*
X646152Y269464D01*
X664801Y288113D01*
X664869Y288207D01*
X664939Y288302D01*
X664941Y288308D01*
X664945Y288313D01*
X664979Y288424D01*
X665015Y288535D01*
X665015Y288542D01*
X665017Y288548D01*
X665014Y288664D01*
X665013Y288781D01*
X665011Y288789D01*
X665011Y288794D01*
X665004Y288811D01*
X664966Y288942D01*
X664844Y289237D01*
X664844Y291915D01*
X665869Y294389D01*
X667763Y296283D01*
X670237Y297308D01*
X672915Y297308D01*
X675389Y296283D01*
X677283Y294389D01*
X678308Y291915D01*
X678308Y289237D01*
X677283Y286763D01*
X675389Y284869D01*
X672915Y283844D01*
X670237Y283844D01*
X669942Y283966D01*
X669829Y283993D01*
X669715Y284022D01*
X669709Y284021D01*
X669703Y284022D01*
X669587Y284011D01*
X669470Y284002D01*
X669464Y284000D01*
X669458Y283999D01*
X669351Y283951D01*
X669244Y283906D01*
X669238Y283901D01*
X669233Y283899D01*
X669220Y283887D01*
X669113Y283801D01*
X648455Y263143D01*
X615694Y263143D01*
X615674Y263140D01*
X615655Y263142D01*
X615553Y263120D01*
X615451Y263104D01*
X615434Y263094D01*
X615414Y263090D01*
X615325Y263037D01*
X615234Y262988D01*
X615220Y262974D01*
X615203Y262964D01*
X615136Y262885D01*
X615064Y262810D01*
X615056Y262792D01*
X615043Y262777D01*
X615004Y262681D01*
X614961Y262587D01*
X614959Y262567D01*
X614951Y262549D01*
X614933Y262382D01*
X614933Y258358D01*
X613742Y257167D01*
X601535Y257167D01*
X601464Y257156D01*
X601392Y257154D01*
X601343Y257136D01*
X601292Y257128D01*
X601229Y257094D01*
X601161Y257069D01*
X601120Y257037D01*
X601075Y257012D01*
X601025Y256961D01*
X600969Y256916D01*
X600941Y256872D01*
X600905Y256834D01*
X600875Y256769D01*
X600836Y256709D01*
X600823Y256658D01*
X600802Y256611D01*
X600794Y256540D01*
X600776Y256470D01*
X600780Y256418D01*
X600774Y256367D01*
X600790Y256296D01*
X600795Y256225D01*
X600816Y256177D01*
X600827Y256126D01*
X600864Y256065D01*
X600892Y255999D01*
X600936Y255943D01*
X600953Y255915D01*
X600971Y255900D01*
X600996Y255868D01*
X601083Y255781D01*
X601205Y255487D01*
X601267Y255387D01*
X601326Y255287D01*
X601331Y255283D01*
X601334Y255278D01*
X601424Y255203D01*
X601513Y255127D01*
X601519Y255125D01*
X601524Y255121D01*
X601632Y255079D01*
X601741Y255035D01*
X601749Y255034D01*
X601754Y255033D01*
X601772Y255032D01*
X601908Y255017D01*
X651710Y255017D01*
X651800Y255031D01*
X651891Y255039D01*
X651921Y255051D01*
X651953Y255056D01*
X652033Y255099D01*
X652117Y255135D01*
X652149Y255161D01*
X652170Y255172D01*
X652192Y255195D01*
X652248Y255240D01*
X681766Y284758D01*
X681819Y284832D01*
X681879Y284901D01*
X681891Y284931D01*
X681910Y284958D01*
X681937Y285045D01*
X681971Y285129D01*
X681975Y285170D01*
X681982Y285193D01*
X681981Y285225D01*
X681989Y285296D01*
X681989Y311476D01*
X681971Y311590D01*
X681953Y311707D01*
X681951Y311712D01*
X681950Y311719D01*
X681895Y311821D01*
X681842Y311926D01*
X681837Y311930D01*
X681834Y311936D01*
X681750Y312016D01*
X681666Y312098D01*
X681660Y312102D01*
X681656Y312105D01*
X681639Y312113D01*
X681519Y312179D01*
X681225Y312301D01*
X679331Y314195D01*
X678306Y316669D01*
X678306Y319347D01*
X679331Y321821D01*
X681225Y323715D01*
X683699Y324740D01*
X686377Y324740D01*
X688851Y323715D01*
X690745Y321821D01*
X691095Y320975D01*
X691119Y320936D01*
X691135Y320893D01*
X691184Y320833D01*
X691225Y320766D01*
X691260Y320737D01*
X691289Y320701D01*
X691354Y320659D01*
X691414Y320609D01*
X691457Y320593D01*
X691496Y320568D01*
X691571Y320549D01*
X691644Y320521D01*
X691690Y320519D01*
X691734Y320508D01*
X691812Y320514D01*
X691890Y320511D01*
X691934Y320524D01*
X691980Y320527D01*
X692051Y320558D01*
X692126Y320579D01*
X692164Y320606D01*
X692206Y320624D01*
X692313Y320709D01*
X692328Y320720D01*
X692331Y320724D01*
X692337Y320728D01*
X693704Y322096D01*
X693757Y322170D01*
X693817Y322239D01*
X693829Y322269D01*
X693848Y322296D01*
X693875Y322383D01*
X693909Y322467D01*
X693913Y322508D01*
X693920Y322531D01*
X693919Y322563D01*
X693927Y322634D01*
X693927Y336242D01*
X693913Y336332D01*
X693905Y336423D01*
X693893Y336453D01*
X693888Y336485D01*
X693845Y336565D01*
X693809Y336649D01*
X693783Y336681D01*
X693772Y336702D01*
X693749Y336724D01*
X693704Y336780D01*
X676124Y354360D01*
X676050Y354413D01*
X675981Y354473D01*
X675951Y354485D01*
X675924Y354504D01*
X675837Y354531D01*
X675753Y354565D01*
X675712Y354569D01*
X675689Y354576D01*
X675657Y354575D01*
X675586Y354583D01*
X639755Y354583D01*
X639684Y354572D01*
X639612Y354570D01*
X639563Y354552D01*
X639512Y354544D01*
X639449Y354510D01*
X639381Y354485D01*
X639341Y354453D01*
X639295Y354428D01*
X639245Y354376D01*
X639189Y354332D01*
X639161Y354288D01*
X639125Y354250D01*
X639095Y354185D01*
X639056Y354125D01*
X639043Y354074D01*
X639022Y354027D01*
X639014Y353956D01*
X638996Y353886D01*
X639000Y353834D01*
X638994Y353783D01*
X639010Y353712D01*
X639015Y353641D01*
X639036Y353593D01*
X639047Y353542D01*
X639083Y353481D01*
X639112Y353415D01*
X639156Y353359D01*
X639173Y353331D01*
X639191Y353316D01*
X639216Y353284D01*
X639945Y352555D01*
X640970Y350081D01*
X640970Y347403D01*
X639945Y344929D01*
X638051Y343035D01*
X637757Y342913D01*
X637658Y342852D01*
X637557Y342792D01*
X637553Y342787D01*
X637548Y342784D01*
X637473Y342694D01*
X637397Y342605D01*
X637395Y342599D01*
X637391Y342594D01*
X637349Y342486D01*
X637305Y342377D01*
X637304Y342369D01*
X637303Y342364D01*
X637302Y342346D01*
X637287Y342210D01*
X637287Y305823D01*
X614927Y283463D01*
X561268Y283463D01*
X561154Y283445D01*
X561037Y283427D01*
X561032Y283425D01*
X561025Y283424D01*
X560923Y283369D01*
X560818Y283316D01*
X560814Y283311D01*
X560808Y283308D01*
X560728Y283224D01*
X560646Y283140D01*
X560642Y283134D01*
X560639Y283130D01*
X560631Y283113D01*
X560565Y282993D01*
X560443Y282699D01*
X558549Y280805D01*
X556075Y279780D01*
X553397Y279780D01*
X550923Y280805D01*
X549029Y282699D01*
X548004Y285173D01*
X548004Y287851D01*
X549029Y290325D01*
X550923Y292219D01*
X553397Y293244D01*
X556075Y293244D01*
X558549Y292219D01*
X560443Y290325D01*
X560565Y290031D01*
X560626Y289932D01*
X560686Y289831D01*
X560691Y289827D01*
X560694Y289822D01*
X560785Y289747D01*
X560873Y289671D01*
X560879Y289669D01*
X560884Y289665D01*
X560992Y289623D01*
X561101Y289579D01*
X561109Y289578D01*
X561114Y289577D01*
X561132Y289576D01*
X561268Y289561D01*
X612086Y289561D01*
X612176Y289575D01*
X612267Y289583D01*
X612297Y289595D01*
X612329Y289600D01*
X612409Y289643D01*
X612493Y289679D01*
X612525Y289705D01*
X612546Y289716D01*
X612568Y289739D01*
X612624Y289784D01*
X628172Y305331D01*
X628228Y305410D01*
X628291Y305485D01*
X628300Y305510D01*
X628315Y305531D01*
X628344Y305624D01*
X628379Y305715D01*
X628380Y305741D01*
X628388Y305766D01*
X628385Y305863D01*
X628389Y305961D01*
X628382Y305986D01*
X628381Y306012D01*
X628348Y306103D01*
X628321Y306197D01*
X628306Y306218D01*
X628297Y306243D01*
X628236Y306319D01*
X628180Y306399D01*
X628159Y306415D01*
X628143Y306435D01*
X628061Y306488D01*
X627983Y306546D01*
X627958Y306554D01*
X627936Y306568D01*
X627842Y306592D01*
X627749Y306622D01*
X627723Y306622D01*
X627698Y306628D01*
X627601Y306620D01*
X627503Y306620D01*
X627472Y306610D01*
X627452Y306609D01*
X627422Y306596D01*
X627342Y306573D01*
X626433Y306196D01*
X623755Y306196D01*
X621281Y307221D01*
X619387Y309115D01*
X618362Y311589D01*
X618362Y314267D01*
X618484Y314562D01*
X618511Y314674D01*
X618540Y314789D01*
X618539Y314795D01*
X618540Y314801D01*
X618529Y314917D01*
X618520Y315034D01*
X618518Y315040D01*
X618517Y315046D01*
X618470Y315152D01*
X618424Y315260D01*
X618419Y315266D01*
X618417Y315271D01*
X618405Y315284D01*
X618319Y315391D01*
X615164Y318546D01*
X615090Y318599D01*
X615021Y318659D01*
X614991Y318671D01*
X614964Y318690D01*
X614877Y318717D01*
X614793Y318751D01*
X614752Y318755D01*
X614729Y318762D01*
X614697Y318761D01*
X614626Y318769D01*
X517580Y318769D01*
X517465Y318750D01*
X517349Y318733D01*
X517344Y318731D01*
X517337Y318730D01*
X517235Y318675D01*
X517130Y318622D01*
X517126Y318617D01*
X517120Y318614D01*
X517040Y318530D01*
X516958Y318446D01*
X516954Y318440D01*
X516951Y318436D01*
X516943Y318419D01*
X516877Y318299D01*
X516755Y318005D01*
X514861Y316111D01*
X512387Y315086D01*
X509709Y315086D01*
X507235Y316111D01*
X505341Y318005D01*
X504316Y320479D01*
X504316Y323157D01*
X505341Y325631D01*
X507235Y327525D01*
X509709Y328550D01*
X512387Y328550D01*
X514861Y327525D01*
X516755Y325631D01*
X516877Y325337D01*
X516938Y325237D01*
X516998Y325137D01*
X517003Y325133D01*
X517007Y325128D01*
X517096Y325053D01*
X517185Y324977D01*
X517191Y324975D01*
X517196Y324971D01*
X517304Y324929D01*
X517413Y324885D01*
X517421Y324884D01*
X517426Y324883D01*
X517444Y324882D01*
X517580Y324867D01*
X575256Y324867D01*
X575327Y324878D01*
X575398Y324880D01*
X575447Y324898D01*
X575499Y324906D01*
X575562Y324940D01*
X575629Y324965D01*
X575670Y324997D01*
X575716Y325022D01*
X575765Y325074D01*
X575821Y325118D01*
X575850Y325162D01*
X575885Y325200D01*
X575916Y325265D01*
X575954Y325325D01*
X575967Y325376D01*
X575989Y325423D01*
X575997Y325494D01*
X576014Y325564D01*
X576010Y325616D01*
X576016Y325667D01*
X576001Y325738D01*
X575995Y325809D01*
X575975Y325857D01*
X575964Y325908D01*
X575927Y325969D01*
X575899Y326035D01*
X575854Y326091D01*
X575838Y326119D01*
X575820Y326134D01*
X575794Y326166D01*
X571984Y329976D01*
X569975Y331985D01*
X569975Y354831D01*
X579889Y364745D01*
X692651Y364745D01*
X724940Y332456D01*
X725014Y332403D01*
X725083Y332343D01*
X725113Y332331D01*
X725140Y332312D01*
X725227Y332285D01*
X725311Y332251D01*
X725352Y332247D01*
X725375Y332240D01*
X725407Y332241D01*
X725478Y332233D01*
X813816Y332233D01*
X813836Y332236D01*
X813855Y332234D01*
X813957Y332256D01*
X814059Y332272D01*
X814076Y332282D01*
X814096Y332286D01*
X814185Y332339D01*
X814276Y332388D01*
X814290Y332402D01*
X814307Y332412D01*
X814374Y332491D01*
X814446Y332566D01*
X814454Y332584D01*
X814467Y332599D01*
X814506Y332695D01*
X814549Y332789D01*
X814551Y332809D01*
X814559Y332827D01*
X814577Y332994D01*
X814577Y334724D01*
X820976Y341123D01*
X830024Y341123D01*
X836423Y334724D01*
X836423Y325676D01*
X830024Y319277D01*
X820976Y319277D01*
X814427Y325826D01*
X814422Y325834D01*
X814408Y325848D01*
X814398Y325865D01*
X814319Y325932D01*
X814244Y326004D01*
X814226Y326012D01*
X814211Y326025D01*
X814115Y326064D01*
X814021Y326107D01*
X814001Y326109D01*
X813983Y326117D01*
X813816Y326135D01*
X722637Y326135D01*
X690348Y358424D01*
X690274Y358477D01*
X690205Y358537D01*
X690175Y358549D01*
X690148Y358568D01*
X690061Y358595D01*
X689977Y358629D01*
X689936Y358633D01*
X689913Y358640D01*
X689881Y358639D01*
X689810Y358647D01*
X682298Y358647D01*
X682227Y358636D01*
X682156Y358634D01*
X682107Y358616D01*
X682055Y358608D01*
X681992Y358574D01*
X681925Y358549D01*
X681884Y358517D01*
X681838Y358492D01*
X681789Y358440D01*
X681733Y358396D01*
X681704Y358352D01*
X681669Y358314D01*
X681638Y358249D01*
X681600Y358189D01*
X681587Y358138D01*
X681565Y358091D01*
X681557Y358020D01*
X681540Y357950D01*
X681544Y357898D01*
X681538Y357847D01*
X681553Y357776D01*
X681559Y357705D01*
X681579Y357657D01*
X681590Y357606D01*
X681627Y357545D01*
X681655Y357479D01*
X681700Y357423D01*
X681716Y357395D01*
X681734Y357380D01*
X681760Y357348D01*
X700025Y339083D01*
X700025Y319793D01*
X696184Y315952D01*
X696131Y315878D01*
X696071Y315809D01*
X696059Y315779D01*
X696040Y315752D01*
X696013Y315665D01*
X695979Y315581D01*
X695975Y315540D01*
X695968Y315517D01*
X695969Y315485D01*
X695961Y315414D01*
X695961Y296855D01*
X695972Y296784D01*
X695974Y296712D01*
X695992Y296663D01*
X696000Y296612D01*
X696034Y296549D01*
X696059Y296481D01*
X696091Y296440D01*
X696116Y296395D01*
X696168Y296345D01*
X696212Y296289D01*
X696256Y296261D01*
X696294Y296225D01*
X696359Y296195D01*
X696419Y296156D01*
X696470Y296143D01*
X696517Y296122D01*
X696588Y296114D01*
X696658Y296096D01*
X696710Y296100D01*
X696761Y296094D01*
X696832Y296110D01*
X696903Y296115D01*
X696951Y296136D01*
X697002Y296147D01*
X697063Y296183D01*
X697129Y296212D01*
X697185Y296256D01*
X697213Y296273D01*
X697219Y296279D01*
X699701Y297308D01*
X702379Y297308D01*
X704853Y296283D01*
X706747Y294389D01*
X706869Y294095D01*
X706930Y293995D01*
X706990Y293895D01*
X706995Y293891D01*
X706999Y293886D01*
X707088Y293811D01*
X707177Y293735D01*
X707183Y293733D01*
X707188Y293729D01*
X707296Y293687D01*
X707405Y293643D01*
X707413Y293642D01*
X707418Y293641D01*
X707436Y293640D01*
X707572Y293625D01*
X736038Y293625D01*
X736128Y293639D01*
X736219Y293647D01*
X736249Y293659D01*
X736281Y293664D01*
X736361Y293707D01*
X736445Y293743D01*
X736477Y293769D01*
X736498Y293780D01*
X736520Y293803D01*
X736576Y293848D01*
X750577Y307849D01*
X813816Y307849D01*
X813836Y307852D01*
X813855Y307850D01*
X813957Y307872D01*
X814059Y307888D01*
X814076Y307898D01*
X814096Y307902D01*
X814185Y307955D01*
X814276Y308004D01*
X814290Y308018D01*
X814307Y308028D01*
X814374Y308107D01*
X814446Y308182D01*
X814454Y308200D01*
X814467Y308215D01*
X814506Y308311D01*
X814549Y308405D01*
X814551Y308425D01*
X814559Y308443D01*
X814577Y308610D01*
X814577Y309324D01*
X820976Y315723D01*
X830024Y315723D01*
X836423Y309324D01*
X836423Y300276D01*
X830024Y293877D01*
X820976Y293877D01*
X814577Y300276D01*
X814577Y300990D01*
X814574Y301010D01*
X814576Y301029D01*
X814554Y301131D01*
X814538Y301233D01*
X814528Y301250D01*
X814524Y301270D01*
X814471Y301359D01*
X814422Y301450D01*
X814408Y301464D01*
X814398Y301481D01*
X814319Y301548D01*
X814244Y301620D01*
X814226Y301628D01*
X814211Y301641D01*
X814115Y301680D01*
X814021Y301723D01*
X814001Y301725D01*
X813983Y301733D01*
X813816Y301751D01*
X753418Y301751D01*
X753328Y301737D01*
X753237Y301729D01*
X753207Y301717D01*
X753175Y301712D01*
X753095Y301669D01*
X753011Y301633D01*
X752979Y301607D01*
X752958Y301596D01*
X752936Y301573D01*
X752880Y301528D01*
X738879Y287527D01*
X719511Y287527D01*
X719440Y287516D01*
X719368Y287514D01*
X719319Y287496D01*
X719268Y287488D01*
X719205Y287454D01*
X719137Y287429D01*
X719097Y287397D01*
X719051Y287372D01*
X719001Y287320D01*
X718945Y287276D01*
X718917Y287232D01*
X718881Y287194D01*
X718851Y287129D01*
X718812Y287069D01*
X718799Y287018D01*
X718778Y286971D01*
X718770Y286900D01*
X718752Y286830D01*
X718756Y286778D01*
X718750Y286727D01*
X718766Y286656D01*
X718771Y286585D01*
X718792Y286537D01*
X718803Y286486D01*
X718839Y286425D01*
X718868Y286359D01*
X718912Y286303D01*
X718929Y286275D01*
X718947Y286260D01*
X718972Y286228D01*
X720971Y284229D01*
X721093Y283935D01*
X721154Y283836D01*
X721214Y283735D01*
X721219Y283731D01*
X721222Y283726D01*
X721312Y283651D01*
X721401Y283575D01*
X721407Y283573D01*
X721412Y283569D01*
X721520Y283527D01*
X721629Y283483D01*
X721637Y283482D01*
X721642Y283481D01*
X721660Y283480D01*
X721796Y283465D01*
X743966Y283465D01*
X743986Y283468D01*
X744005Y283466D01*
X744107Y283488D01*
X744209Y283504D01*
X744226Y283514D01*
X744246Y283518D01*
X744335Y283571D01*
X744426Y283620D01*
X744440Y283634D01*
X744457Y283644D01*
X744524Y283723D01*
X744596Y283798D01*
X744604Y283816D01*
X744617Y283831D01*
X744656Y283927D01*
X744699Y284021D01*
X744701Y284041D01*
X744709Y284059D01*
X744727Y284226D01*
X744727Y288116D01*
X745918Y289307D01*
X747268Y289307D01*
X747288Y289310D01*
X747307Y289308D01*
X747409Y289330D01*
X747511Y289346D01*
X747528Y289356D01*
X747548Y289360D01*
X747637Y289413D01*
X747728Y289462D01*
X747742Y289476D01*
X747759Y289486D01*
X747826Y289565D01*
X747898Y289640D01*
X747906Y289658D01*
X747919Y289673D01*
X747958Y289769D01*
X748001Y289863D01*
X748003Y289883D01*
X748011Y289901D01*
X748029Y290068D01*
X748029Y293686D01*
X748476Y294133D01*
X800924Y294133D01*
X801371Y293686D01*
X801371Y290068D01*
X801374Y290048D01*
X801372Y290029D01*
X801394Y289927D01*
X801410Y289825D01*
X801420Y289808D01*
X801424Y289788D01*
X801477Y289699D01*
X801526Y289608D01*
X801540Y289594D01*
X801550Y289577D01*
X801629Y289510D01*
X801704Y289438D01*
X801722Y289430D01*
X801737Y289417D01*
X801833Y289378D01*
X801927Y289335D01*
X801947Y289333D01*
X801965Y289325D01*
X802132Y289307D01*
X803482Y289307D01*
X804673Y288116D01*
X804673Y284226D01*
X804676Y284206D01*
X804674Y284187D01*
X804696Y284085D01*
X804712Y283983D01*
X804722Y283966D01*
X804726Y283946D01*
X804779Y283857D01*
X804828Y283766D01*
X804842Y283752D01*
X804852Y283735D01*
X804931Y283668D01*
X805006Y283596D01*
X805024Y283588D01*
X805039Y283575D01*
X805135Y283536D01*
X805229Y283493D01*
X805249Y283491D01*
X805267Y283483D01*
X805434Y283465D01*
X813816Y283465D01*
X813836Y283468D01*
X813855Y283466D01*
X813957Y283488D01*
X814059Y283504D01*
X814076Y283514D01*
X814096Y283518D01*
X814185Y283571D01*
X814276Y283620D01*
X814290Y283634D01*
X814307Y283644D01*
X814365Y283712D01*
X820976Y290323D01*
X830024Y290323D01*
X836423Y283924D01*
X836423Y274876D01*
X830024Y268477D01*
X820976Y268477D01*
X814577Y274876D01*
X814577Y276606D01*
X814574Y276626D01*
X814576Y276645D01*
X814554Y276747D01*
X814538Y276849D01*
X814528Y276866D01*
X814524Y276886D01*
X814471Y276975D01*
X814422Y277066D01*
X814408Y277080D01*
X814398Y277097D01*
X814319Y277164D01*
X814244Y277236D01*
X814226Y277244D01*
X814211Y277257D01*
X814115Y277296D01*
X814021Y277339D01*
X814001Y277341D01*
X813983Y277349D01*
X813816Y277367D01*
X805434Y277367D01*
X805414Y277364D01*
X805395Y277366D01*
X805293Y277344D01*
X805191Y277328D01*
X805174Y277318D01*
X805154Y277314D01*
X805065Y277261D01*
X804974Y277212D01*
X804960Y277198D01*
X804943Y277188D01*
X804876Y277109D01*
X804804Y277034D01*
X804796Y277016D01*
X804783Y277001D01*
X804744Y276905D01*
X804701Y276811D01*
X804699Y276791D01*
X804691Y276773D01*
X804673Y276606D01*
X804673Y270684D01*
X803482Y269493D01*
X802132Y269493D01*
X802112Y269490D01*
X802093Y269492D01*
X801991Y269470D01*
X801889Y269454D01*
X801872Y269444D01*
X801852Y269440D01*
X801763Y269387D01*
X801672Y269338D01*
X801658Y269324D01*
X801641Y269314D01*
X801574Y269235D01*
X801502Y269160D01*
X801494Y269142D01*
X801481Y269127D01*
X801442Y269031D01*
X801399Y268937D01*
X801397Y268917D01*
X801389Y268899D01*
X801371Y268732D01*
X801371Y265114D01*
X800924Y264667D01*
X748476Y264667D01*
X748029Y265114D01*
X748029Y268732D01*
X748026Y268752D01*
X748028Y268771D01*
X748006Y268873D01*
X747990Y268975D01*
X747980Y268992D01*
X747976Y269012D01*
X747923Y269101D01*
X747874Y269192D01*
X747860Y269206D01*
X747850Y269223D01*
X747771Y269290D01*
X747696Y269362D01*
X747678Y269370D01*
X747663Y269383D01*
X747567Y269422D01*
X747473Y269465D01*
X747453Y269467D01*
X747435Y269475D01*
X747268Y269493D01*
X745918Y269493D01*
X744727Y270684D01*
X744727Y276606D01*
X744724Y276626D01*
X744726Y276645D01*
X744704Y276747D01*
X744688Y276849D01*
X744678Y276866D01*
X744674Y276886D01*
X744621Y276975D01*
X744572Y277066D01*
X744558Y277080D01*
X744548Y277097D01*
X744469Y277164D01*
X744394Y277236D01*
X744376Y277244D01*
X744361Y277257D01*
X744265Y277296D01*
X744171Y277339D01*
X744151Y277341D01*
X744133Y277349D01*
X743966Y277367D01*
X721796Y277367D01*
X721682Y277349D01*
X721565Y277331D01*
X721560Y277329D01*
X721553Y277328D01*
X721451Y277273D01*
X721346Y277220D01*
X721342Y277215D01*
X721336Y277212D01*
X721256Y277128D01*
X721174Y277044D01*
X721170Y277038D01*
X721167Y277034D01*
X721159Y277017D01*
X721093Y276897D01*
X720971Y276603D01*
X719077Y274709D01*
X716603Y273684D01*
X713925Y273684D01*
X711451Y274709D01*
X709557Y276603D01*
X708532Y279077D01*
X708532Y281755D01*
X709557Y284229D01*
X711556Y286228D01*
X711597Y286286D01*
X711647Y286338D01*
X711669Y286385D01*
X711699Y286427D01*
X711720Y286496D01*
X711750Y286561D01*
X711756Y286613D01*
X711772Y286663D01*
X711770Y286734D01*
X711778Y286805D01*
X711767Y286856D01*
X711765Y286908D01*
X711741Y286976D01*
X711725Y287046D01*
X711699Y287091D01*
X711681Y287139D01*
X711636Y287195D01*
X711599Y287257D01*
X711560Y287291D01*
X711527Y287331D01*
X711467Y287370D01*
X711412Y287417D01*
X711364Y287436D01*
X711320Y287464D01*
X711251Y287482D01*
X711184Y287509D01*
X711113Y287517D01*
X711082Y287525D01*
X711058Y287523D01*
X711017Y287527D01*
X707572Y287527D01*
X707457Y287508D01*
X707341Y287491D01*
X707336Y287489D01*
X707329Y287488D01*
X707227Y287433D01*
X707122Y287380D01*
X707118Y287375D01*
X707112Y287372D01*
X707032Y287288D01*
X706950Y287204D01*
X706946Y287198D01*
X706943Y287194D01*
X706935Y287177D01*
X706869Y287057D01*
X706747Y286763D01*
X704853Y284869D01*
X702379Y283844D01*
X699701Y283844D01*
X697199Y284881D01*
X697150Y284927D01*
X697103Y284949D01*
X697061Y284979D01*
X696992Y285000D01*
X696927Y285030D01*
X696875Y285036D01*
X696826Y285052D01*
X696754Y285050D01*
X696683Y285058D01*
X696632Y285047D01*
X696580Y285045D01*
X696512Y285021D01*
X696442Y285005D01*
X696398Y284979D01*
X696349Y284961D01*
X696293Y284916D01*
X696231Y284879D01*
X696197Y284840D01*
X696157Y284807D01*
X696118Y284747D01*
X696071Y284692D01*
X696052Y284644D01*
X696024Y284600D01*
X696006Y284531D01*
X695979Y284464D01*
X695971Y284393D01*
X695963Y284362D01*
X695965Y284338D01*
X695961Y284297D01*
X695961Y283217D01*
X693952Y281208D01*
X602004Y189260D01*
X601962Y189202D01*
X601913Y189150D01*
X601891Y189103D01*
X601860Y189061D01*
X601839Y188992D01*
X601809Y188927D01*
X601803Y188875D01*
X601788Y188825D01*
X601790Y188754D01*
X601782Y188683D01*
X601793Y188632D01*
X601794Y188580D01*
X601819Y188512D01*
X601834Y188442D01*
X601861Y188398D01*
X601879Y188349D01*
X601924Y188293D01*
X601960Y188231D01*
X602000Y188197D01*
X602032Y188157D01*
X602093Y188118D01*
X602147Y188071D01*
X602196Y188052D01*
X602239Y188024D01*
X602309Y188006D01*
X602375Y187979D01*
X602447Y187971D01*
X602478Y187963D01*
X602501Y187965D01*
X602542Y187961D01*
X784972Y187961D01*
X785043Y187972D01*
X785114Y187974D01*
X785163Y187992D01*
X785215Y188000D01*
X785278Y188034D01*
X785345Y188059D01*
X785386Y188091D01*
X785432Y188116D01*
X785481Y188168D01*
X785537Y188212D01*
X785566Y188256D01*
X785601Y188294D01*
X785632Y188359D01*
X785670Y188419D01*
X785683Y188470D01*
X785705Y188517D01*
X785713Y188588D01*
X785730Y188658D01*
X785726Y188710D01*
X785732Y188761D01*
X785717Y188832D01*
X785711Y188903D01*
X785691Y188951D01*
X785680Y189002D01*
X785643Y189063D01*
X785615Y189129D01*
X785570Y189185D01*
X785554Y189213D01*
X785536Y189228D01*
X785510Y189260D01*
X782998Y191773D01*
X779927Y199187D01*
X779927Y207213D01*
X782998Y214627D01*
X788673Y220302D01*
X796087Y223373D01*
X804113Y223373D01*
X811527Y220302D01*
X817202Y214627D01*
X820273Y207213D01*
X820273Y199187D01*
X817202Y191773D01*
X814690Y189260D01*
X814648Y189202D01*
X814599Y189150D01*
X814577Y189103D01*
X814546Y189061D01*
X814525Y188992D01*
X814495Y188927D01*
X814489Y188875D01*
X814474Y188825D01*
X814476Y188754D01*
X814468Y188683D01*
X814479Y188632D01*
X814480Y188580D01*
X814505Y188512D01*
X814520Y188442D01*
X814547Y188397D01*
X814565Y188349D01*
X814610Y188293D01*
X814646Y188231D01*
X814686Y188197D01*
X814718Y188157D01*
X814779Y188118D01*
X814833Y188071D01*
X814882Y188052D01*
X814925Y188024D01*
X814995Y188006D01*
X815061Y187979D01*
X815133Y187971D01*
X815164Y187963D01*
X815187Y187965D01*
X815228Y187961D01*
X858828Y187961D01*
X858848Y187964D01*
X858867Y187962D01*
X858969Y187984D01*
X859071Y188000D01*
X859088Y188010D01*
X859108Y188014D01*
X859197Y188067D01*
X859288Y188116D01*
X859302Y188130D01*
X859319Y188140D01*
X859386Y188219D01*
X859458Y188294D01*
X859466Y188312D01*
X859479Y188327D01*
X859518Y188423D01*
X859561Y188517D01*
X859563Y188537D01*
X859571Y188555D01*
X859589Y188722D01*
X859589Y404878D01*
X859586Y404898D01*
X859588Y404917D01*
X859566Y405019D01*
X859550Y405121D01*
X859540Y405138D01*
X859536Y405158D01*
X859483Y405247D01*
X859434Y405338D01*
X859420Y405352D01*
X859410Y405369D01*
X859331Y405436D01*
X859256Y405508D01*
X859238Y405516D01*
X859223Y405529D01*
X859127Y405568D01*
X859033Y405611D01*
X859013Y405613D01*
X858995Y405621D01*
X858828Y405639D01*
X814718Y405639D01*
X814647Y405628D01*
X814576Y405626D01*
X814527Y405608D01*
X814475Y405600D01*
X814412Y405566D01*
X814345Y405541D01*
X814304Y405509D01*
X814258Y405484D01*
X814209Y405432D01*
X814153Y405388D01*
X814124Y405344D01*
X814089Y405306D01*
X814058Y405241D01*
X814020Y405181D01*
X814007Y405130D01*
X813985Y405083D01*
X813977Y405012D01*
X813960Y404942D01*
X813964Y404890D01*
X813958Y404839D01*
X813973Y404768D01*
X813979Y404697D01*
X813999Y404649D01*
X814010Y404598D01*
X814047Y404537D01*
X814075Y404471D01*
X814120Y404415D01*
X814136Y404387D01*
X814154Y404372D01*
X814180Y404340D01*
X817202Y401317D01*
X820273Y393903D01*
X820273Y385877D01*
X817202Y378463D01*
X811527Y372788D01*
X804113Y369717D01*
X796087Y369717D01*
X788673Y372788D01*
X782998Y378463D01*
X779927Y385877D01*
X779927Y393903D01*
X782998Y401317D01*
X786020Y404340D01*
X786062Y404398D01*
X786111Y404450D01*
X786133Y404497D01*
X786164Y404539D01*
X786185Y404608D01*
X786215Y404673D01*
X786221Y404725D01*
X786236Y404775D01*
X786234Y404846D01*
X786242Y404917D01*
X786231Y404968D01*
X786230Y405020D01*
X786205Y405088D01*
X786190Y405158D01*
X786163Y405203D01*
X786145Y405251D01*
X786100Y405307D01*
X786064Y405369D01*
X786024Y405403D01*
X785992Y405443D01*
X785931Y405482D01*
X785877Y405529D01*
X785828Y405548D01*
X785785Y405576D01*
X785715Y405594D01*
X785649Y405621D01*
X785577Y405629D01*
X785546Y405637D01*
X785523Y405635D01*
X785482Y405639D01*
X176022Y405639D01*
X176002Y405636D01*
X175983Y405638D01*
X175881Y405616D01*
X175779Y405600D01*
X175762Y405590D01*
X175742Y405586D01*
X175653Y405533D01*
X175562Y405484D01*
X175548Y405470D01*
X175531Y405460D01*
X175464Y405381D01*
X175392Y405306D01*
X175384Y405288D01*
X175371Y405273D01*
X175332Y405177D01*
X175289Y405083D01*
X175287Y405063D01*
X175279Y405045D01*
X175261Y404878D01*
X175261Y188722D01*
X175264Y188702D01*
X175262Y188683D01*
X175284Y188581D01*
X175300Y188479D01*
X175310Y188462D01*
X175314Y188442D01*
X175367Y188353D01*
X175416Y188262D01*
X175430Y188248D01*
X175440Y188231D01*
X175519Y188164D01*
X175594Y188092D01*
X175612Y188084D01*
X175627Y188071D01*
X175723Y188032D01*
X175817Y187989D01*
X175837Y187987D01*
X175855Y187979D01*
X176022Y187961D01*
X441906Y187961D01*
X441977Y187972D01*
G37*
G36*
X593888Y196103D02*
X593888Y196103D01*
X593979Y196111D01*
X594009Y196123D01*
X594041Y196128D01*
X594121Y196171D01*
X594205Y196207D01*
X594237Y196233D01*
X594258Y196244D01*
X594280Y196267D01*
X594336Y196312D01*
X598200Y200176D01*
X598253Y200250D01*
X598313Y200319D01*
X598325Y200349D01*
X598344Y200376D01*
X598371Y200463D01*
X598405Y200547D01*
X598409Y200588D01*
X598416Y200611D01*
X598415Y200643D01*
X598423Y200714D01*
X598423Y240030D01*
X598420Y240050D01*
X598422Y240069D01*
X598400Y240171D01*
X598384Y240273D01*
X598374Y240290D01*
X598370Y240310D01*
X598317Y240399D01*
X598268Y240490D01*
X598254Y240504D01*
X598244Y240521D01*
X598165Y240588D01*
X598090Y240660D01*
X598072Y240668D01*
X598057Y240681D01*
X597961Y240720D01*
X597867Y240763D01*
X597847Y240765D01*
X597829Y240773D01*
X597662Y240791D01*
X596011Y240791D01*
X595991Y240788D01*
X595972Y240790D01*
X595870Y240768D01*
X595768Y240752D01*
X595751Y240742D01*
X595731Y240738D01*
X595642Y240685D01*
X595551Y240636D01*
X595537Y240622D01*
X595520Y240612D01*
X595453Y240533D01*
X595381Y240458D01*
X595373Y240440D01*
X595360Y240425D01*
X595321Y240329D01*
X595278Y240235D01*
X595276Y240215D01*
X595268Y240197D01*
X595250Y240030D01*
X595250Y238883D01*
X595264Y238793D01*
X595272Y238702D01*
X595284Y238672D01*
X595289Y238641D01*
X595332Y238560D01*
X595368Y238476D01*
X595394Y238444D01*
X595405Y238423D01*
X595428Y238401D01*
X595473Y238345D01*
X596012Y237806D01*
X596012Y204154D01*
X595981Y204123D01*
X595928Y204049D01*
X595868Y203980D01*
X595856Y203949D01*
X595837Y203923D01*
X595810Y203836D01*
X595776Y203751D01*
X595772Y203711D01*
X595765Y203688D01*
X595766Y203656D01*
X595758Y203585D01*
X595758Y201088D01*
X595585Y200441D01*
X595250Y199862D01*
X594777Y199389D01*
X594198Y199054D01*
X593551Y198881D01*
X588263Y198881D01*
X588263Y209351D01*
X588260Y209371D01*
X588262Y209391D01*
X588240Y209492D01*
X588223Y209594D01*
X588214Y209612D01*
X588210Y209631D01*
X588157Y209720D01*
X588108Y209811D01*
X588094Y209825D01*
X588084Y209842D01*
X588005Y209910D01*
X587930Y209981D01*
X587912Y209989D01*
X587897Y210002D01*
X587801Y210041D01*
X587707Y210084D01*
X587687Y210087D01*
X587669Y210094D01*
X587502Y210113D01*
X585978Y210113D01*
X585958Y210109D01*
X585939Y210111D01*
X585837Y210089D01*
X585735Y210073D01*
X585718Y210063D01*
X585698Y210059D01*
X585609Y210006D01*
X585518Y209958D01*
X585504Y209943D01*
X585487Y209933D01*
X585420Y209854D01*
X585349Y209779D01*
X585340Y209761D01*
X585327Y209746D01*
X585288Y209650D01*
X585245Y209556D01*
X585243Y209537D01*
X585235Y209518D01*
X585217Y209351D01*
X585217Y198881D01*
X579929Y198881D01*
X579282Y199054D01*
X578703Y199389D01*
X578230Y199862D01*
X577895Y200441D01*
X577722Y201088D01*
X577722Y203585D01*
X577708Y203675D01*
X577700Y203766D01*
X577688Y203796D01*
X577683Y203828D01*
X577640Y203908D01*
X577604Y203992D01*
X577578Y204024D01*
X577567Y204045D01*
X577544Y204067D01*
X577499Y204123D01*
X577468Y204154D01*
X577468Y237806D01*
X578007Y238345D01*
X578060Y238419D01*
X578120Y238488D01*
X578132Y238518D01*
X578151Y238545D01*
X578178Y238632D01*
X578212Y238717D01*
X578216Y238757D01*
X578223Y238780D01*
X578222Y238812D01*
X578230Y238883D01*
X578230Y241380D01*
X579421Y242571D01*
X580336Y242571D01*
X580407Y242582D01*
X580478Y242584D01*
X580527Y242602D01*
X580579Y242610D01*
X580642Y242644D01*
X580709Y242669D01*
X580750Y242701D01*
X580796Y242726D01*
X580845Y242778D01*
X580901Y242822D01*
X580930Y242866D01*
X580965Y242904D01*
X580996Y242969D01*
X581034Y243029D01*
X581047Y243080D01*
X581069Y243127D01*
X581077Y243198D01*
X581094Y243268D01*
X581090Y243320D01*
X581096Y243371D01*
X581081Y243442D01*
X581075Y243513D01*
X581055Y243561D01*
X581044Y243612D01*
X581007Y243673D01*
X580979Y243739D01*
X580934Y243795D01*
X580918Y243823D01*
X580900Y243838D01*
X580874Y243870D01*
X580112Y244632D01*
X580038Y244685D01*
X579969Y244745D01*
X579939Y244757D01*
X579912Y244776D01*
X579825Y244803D01*
X579741Y244837D01*
X579700Y244841D01*
X579677Y244848D01*
X579645Y244847D01*
X579574Y244855D01*
X557838Y244855D01*
X557767Y244844D01*
X557696Y244842D01*
X557647Y244824D01*
X557595Y244816D01*
X557532Y244782D01*
X557465Y244757D01*
X557424Y244725D01*
X557378Y244700D01*
X557329Y244648D01*
X557273Y244604D01*
X557245Y244560D01*
X557209Y244522D01*
X557178Y244457D01*
X557140Y244397D01*
X557127Y244346D01*
X557105Y244299D01*
X557097Y244228D01*
X557080Y244158D01*
X557084Y244106D01*
X557078Y244055D01*
X557093Y243984D01*
X557099Y243913D01*
X557119Y243865D01*
X557130Y243814D01*
X557167Y243753D01*
X557195Y243687D01*
X557240Y243631D01*
X557256Y243603D01*
X557274Y243588D01*
X557300Y243556D01*
X557808Y243048D01*
X558062Y242794D01*
X558136Y242741D01*
X558205Y242681D01*
X558235Y242669D01*
X558262Y242650D01*
X558349Y242623D01*
X558433Y242589D01*
X558474Y242585D01*
X558497Y242578D01*
X558529Y242579D01*
X558600Y242571D01*
X563579Y242571D01*
X564770Y241380D01*
X564770Y238883D01*
X564784Y238793D01*
X564792Y238702D01*
X564804Y238672D01*
X564809Y238641D01*
X564852Y238560D01*
X564888Y238476D01*
X564914Y238444D01*
X564925Y238423D01*
X564948Y238401D01*
X564993Y238345D01*
X565532Y237806D01*
X565532Y204154D01*
X565501Y204123D01*
X565448Y204049D01*
X565388Y203980D01*
X565376Y203949D01*
X565357Y203923D01*
X565330Y203836D01*
X565296Y203751D01*
X565292Y203711D01*
X565285Y203688D01*
X565286Y203656D01*
X565278Y203585D01*
X565278Y201088D01*
X565105Y200441D01*
X564770Y199862D01*
X564297Y199389D01*
X563718Y199054D01*
X563071Y198881D01*
X557783Y198881D01*
X557783Y209351D01*
X557780Y209371D01*
X557782Y209391D01*
X557760Y209492D01*
X557743Y209594D01*
X557734Y209612D01*
X557730Y209631D01*
X557677Y209720D01*
X557628Y209811D01*
X557614Y209825D01*
X557604Y209842D01*
X557525Y209910D01*
X557450Y209981D01*
X557432Y209989D01*
X557417Y210002D01*
X557321Y210041D01*
X557227Y210084D01*
X557207Y210087D01*
X557189Y210094D01*
X557022Y210113D01*
X555498Y210113D01*
X555478Y210109D01*
X555459Y210111D01*
X555357Y210089D01*
X555255Y210073D01*
X555238Y210063D01*
X555218Y210059D01*
X555129Y210006D01*
X555038Y209958D01*
X555024Y209943D01*
X555007Y209933D01*
X554940Y209854D01*
X554869Y209779D01*
X554860Y209761D01*
X554847Y209746D01*
X554808Y209650D01*
X554765Y209556D01*
X554763Y209537D01*
X554755Y209518D01*
X554737Y209351D01*
X554737Y198881D01*
X549449Y198881D01*
X548802Y199054D01*
X548223Y199389D01*
X547750Y199862D01*
X547415Y200441D01*
X547242Y201088D01*
X547242Y203585D01*
X547228Y203675D01*
X547220Y203766D01*
X547208Y203796D01*
X547203Y203827D01*
X547160Y203908D01*
X547124Y203992D01*
X547098Y204024D01*
X547087Y204045D01*
X547064Y204067D01*
X547019Y204123D01*
X546988Y204154D01*
X546988Y236039D01*
X546977Y236110D01*
X546975Y236181D01*
X546957Y236230D01*
X546949Y236282D01*
X546915Y236345D01*
X546890Y236412D01*
X546858Y236453D01*
X546833Y236499D01*
X546782Y236548D01*
X546737Y236604D01*
X546693Y236633D01*
X546655Y236668D01*
X546590Y236699D01*
X546530Y236737D01*
X546479Y236750D01*
X546432Y236772D01*
X546361Y236780D01*
X546291Y236797D01*
X546239Y236793D01*
X546188Y236799D01*
X546117Y236784D01*
X546046Y236778D01*
X545998Y236758D01*
X545947Y236747D01*
X545886Y236710D01*
X545820Y236682D01*
X545764Y236637D01*
X545736Y236621D01*
X545721Y236603D01*
X545689Y236577D01*
X545362Y236250D01*
X535536Y226424D01*
X535483Y226350D01*
X535423Y226281D01*
X535411Y226251D01*
X535392Y226224D01*
X535365Y226137D01*
X535331Y226053D01*
X535327Y226012D01*
X535320Y225989D01*
X535321Y225957D01*
X535313Y225886D01*
X535313Y221868D01*
X534122Y220677D01*
X534073Y220677D01*
X534049Y220673D01*
X534025Y220676D01*
X533928Y220654D01*
X533830Y220638D01*
X533809Y220626D01*
X533785Y220621D01*
X533700Y220569D01*
X533613Y220522D01*
X533596Y220505D01*
X533576Y220492D01*
X533512Y220416D01*
X533443Y220344D01*
X533433Y220322D01*
X533418Y220304D01*
X533382Y220211D01*
X533340Y220121D01*
X533337Y220097D01*
X533328Y220075D01*
X533324Y219975D01*
X533313Y219877D01*
X533318Y219853D01*
X533317Y219829D01*
X533344Y219734D01*
X533365Y219636D01*
X533377Y219615D01*
X533384Y219592D01*
X533440Y219511D01*
X533491Y219425D01*
X533509Y219409D01*
X533523Y219390D01*
X533602Y219330D01*
X533678Y219265D01*
X533700Y219256D01*
X533720Y219242D01*
X533876Y219181D01*
X534261Y219078D01*
X534840Y218743D01*
X535313Y218270D01*
X535648Y217691D01*
X535821Y217044D01*
X535821Y211733D01*
X526542Y211733D01*
X526522Y211730D01*
X526503Y211732D01*
X526401Y211710D01*
X526299Y211693D01*
X526282Y211684D01*
X526262Y211680D01*
X526173Y211627D01*
X526082Y211578D01*
X526068Y211564D01*
X526051Y211554D01*
X525984Y211475D01*
X525913Y211400D01*
X525904Y211382D01*
X525891Y211367D01*
X525852Y211271D01*
X525809Y211177D01*
X525807Y211157D01*
X525799Y211139D01*
X525781Y210972D01*
X525781Y210209D01*
X525779Y210209D01*
X525779Y210972D01*
X525776Y210992D01*
X525778Y211011D01*
X525756Y211113D01*
X525739Y211215D01*
X525730Y211232D01*
X525726Y211252D01*
X525673Y211341D01*
X525624Y211432D01*
X525610Y211446D01*
X525600Y211463D01*
X525521Y211530D01*
X525446Y211601D01*
X525428Y211610D01*
X525413Y211623D01*
X525317Y211662D01*
X525223Y211705D01*
X525203Y211707D01*
X525185Y211715D01*
X525018Y211733D01*
X515739Y211733D01*
X515739Y217044D01*
X515912Y217691D01*
X516247Y218270D01*
X516720Y218743D01*
X517299Y219078D01*
X517684Y219181D01*
X517706Y219191D01*
X517730Y219195D01*
X517818Y219241D01*
X517908Y219282D01*
X517926Y219298D01*
X517947Y219310D01*
X518016Y219381D01*
X518089Y219449D01*
X518100Y219470D01*
X518117Y219488D01*
X518159Y219578D01*
X518206Y219665D01*
X518210Y219689D01*
X518220Y219711D01*
X518231Y219810D01*
X518248Y219908D01*
X518245Y219932D01*
X518247Y219955D01*
X518226Y220052D01*
X518211Y220151D01*
X518200Y220172D01*
X518195Y220196D01*
X518144Y220281D01*
X518099Y220370D01*
X518081Y220386D01*
X518069Y220407D01*
X517993Y220472D01*
X517922Y220541D01*
X517900Y220551D01*
X517882Y220567D01*
X517790Y220604D01*
X517700Y220647D01*
X517676Y220650D01*
X517654Y220659D01*
X517487Y220677D01*
X517438Y220677D01*
X516247Y221868D01*
X516247Y236552D01*
X517438Y237743D01*
X534122Y237743D01*
X535326Y236539D01*
X535326Y236520D01*
X535344Y236471D01*
X535352Y236419D01*
X535386Y236356D01*
X535411Y236289D01*
X535443Y236248D01*
X535468Y236202D01*
X535520Y236153D01*
X535564Y236097D01*
X535608Y236068D01*
X535646Y236033D01*
X535711Y236002D01*
X535771Y235964D01*
X535822Y235951D01*
X535869Y235929D01*
X535940Y235921D01*
X536010Y235904D01*
X536062Y235908D01*
X536113Y235902D01*
X536184Y235917D01*
X536255Y235923D01*
X536303Y235943D01*
X536354Y235954D01*
X536415Y235991D01*
X536481Y236019D01*
X536537Y236064D01*
X536565Y236080D01*
X536580Y236098D01*
X536612Y236124D01*
X539472Y238984D01*
X539484Y239000D01*
X539499Y239012D01*
X539555Y239099D01*
X539616Y239183D01*
X539622Y239203D01*
X539632Y239219D01*
X539658Y239320D01*
X539688Y239419D01*
X539688Y239438D01*
X539692Y239458D01*
X539684Y239561D01*
X539682Y239664D01*
X539675Y239683D01*
X539673Y239703D01*
X539633Y239798D01*
X539597Y239895D01*
X539585Y239911D01*
X539577Y239929D01*
X539472Y240060D01*
X538403Y241129D01*
X538309Y241197D01*
X538214Y241267D01*
X538208Y241269D01*
X538203Y241273D01*
X538092Y241307D01*
X537981Y241343D01*
X537974Y241343D01*
X537968Y241345D01*
X537852Y241342D01*
X537735Y241341D01*
X537727Y241339D01*
X537722Y241339D01*
X537705Y241332D01*
X537574Y241294D01*
X537279Y241172D01*
X534601Y241172D01*
X532127Y242197D01*
X530233Y244091D01*
X529208Y246565D01*
X529208Y249243D01*
X530233Y251717D01*
X532127Y253611D01*
X532421Y253733D01*
X532520Y253794D01*
X532621Y253854D01*
X532625Y253859D01*
X532630Y253862D01*
X532705Y253952D01*
X532781Y254041D01*
X532783Y254047D01*
X532787Y254052D01*
X532829Y254160D01*
X532873Y254269D01*
X532874Y254277D01*
X532875Y254282D01*
X532876Y254300D01*
X532891Y254436D01*
X532891Y264614D01*
X532877Y264704D01*
X532869Y264795D01*
X532857Y264825D01*
X532852Y264857D01*
X532809Y264937D01*
X532773Y265021D01*
X532747Y265053D01*
X532736Y265074D01*
X532713Y265096D01*
X532668Y265152D01*
X515163Y282657D01*
X515084Y282714D01*
X515009Y282776D01*
X514985Y282786D01*
X514963Y282801D01*
X514870Y282829D01*
X514779Y282864D01*
X514753Y282865D01*
X514728Y282873D01*
X514631Y282871D01*
X514534Y282875D01*
X514509Y282867D01*
X514482Y282867D01*
X514391Y282833D01*
X514298Y282806D01*
X514276Y282791D01*
X514251Y282782D01*
X514175Y282721D01*
X514095Y282666D01*
X514080Y282645D01*
X514059Y282629D01*
X514007Y282547D01*
X513949Y282469D01*
X513941Y282444D01*
X513926Y282422D01*
X513903Y282327D01*
X513872Y282235D01*
X513873Y282209D01*
X513866Y282183D01*
X513874Y282086D01*
X513875Y281989D01*
X513884Y281957D01*
X513885Y281938D01*
X513898Y281908D01*
X513922Y281828D01*
X514478Y280485D01*
X514478Y277807D01*
X513453Y275333D01*
X511559Y273439D01*
X509085Y272414D01*
X506407Y272414D01*
X503933Y273439D01*
X502039Y275333D01*
X501014Y277807D01*
X501014Y278638D01*
X501011Y278658D01*
X501013Y278677D01*
X500991Y278779D01*
X500975Y278881D01*
X500965Y278898D01*
X500961Y278918D01*
X500908Y279007D01*
X500859Y279098D01*
X500845Y279112D01*
X500835Y279129D01*
X500756Y279196D01*
X500681Y279268D01*
X500663Y279276D01*
X500648Y279289D01*
X500552Y279328D01*
X500458Y279371D01*
X500438Y279373D01*
X500420Y279381D01*
X500253Y279399D01*
X484815Y279399D01*
X484699Y279380D01*
X484580Y279362D01*
X484577Y279360D01*
X484573Y279360D01*
X484468Y279304D01*
X484362Y279249D01*
X484359Y279246D01*
X484355Y279244D01*
X484273Y279158D01*
X484191Y279073D01*
X484189Y279069D01*
X484186Y279066D01*
X484135Y278957D01*
X484085Y278851D01*
X484084Y278847D01*
X484082Y278843D01*
X484069Y278725D01*
X484055Y278607D01*
X484056Y278602D01*
X484055Y278599D01*
X484058Y278585D01*
X484080Y278441D01*
X484125Y278274D01*
X484125Y276669D01*
X474726Y276669D01*
X474707Y276666D01*
X474687Y276668D01*
X474585Y276646D01*
X474483Y276630D01*
X474466Y276620D01*
X474446Y276616D01*
X474357Y276563D01*
X474266Y276514D01*
X474252Y276500D01*
X474235Y276490D01*
X474214Y276465D01*
X474213Y276466D01*
X474138Y276538D01*
X474120Y276546D01*
X474105Y276559D01*
X474008Y276598D01*
X473915Y276641D01*
X473895Y276643D01*
X473877Y276651D01*
X473710Y276669D01*
X464311Y276669D01*
X464311Y278274D01*
X464484Y278921D01*
X464717Y279324D01*
X464758Y279431D01*
X464801Y279538D01*
X464802Y279548D01*
X464804Y279554D01*
X464805Y279576D01*
X464819Y279705D01*
X464819Y286782D01*
X464899Y286862D01*
X464911Y286878D01*
X464926Y286890D01*
X464982Y286978D01*
X465043Y287061D01*
X465048Y287080D01*
X465059Y287097D01*
X465084Y287198D01*
X465115Y287297D01*
X465114Y287317D01*
X465119Y287336D01*
X465111Y287439D01*
X465109Y287542D01*
X465102Y287561D01*
X465100Y287581D01*
X465060Y287676D01*
X465024Y287773D01*
X465012Y287789D01*
X465004Y287807D01*
X464899Y287938D01*
X464819Y288018D01*
X464819Y294782D01*
X464899Y294862D01*
X464911Y294878D01*
X464926Y294890D01*
X464982Y294978D01*
X465043Y295061D01*
X465048Y295080D01*
X465059Y295097D01*
X465084Y295198D01*
X465115Y295297D01*
X465114Y295317D01*
X465119Y295336D01*
X465111Y295439D01*
X465109Y295542D01*
X465102Y295561D01*
X465100Y295581D01*
X465060Y295676D01*
X465024Y295773D01*
X465012Y295789D01*
X465004Y295807D01*
X464899Y295938D01*
X464819Y296018D01*
X464819Y296110D01*
X464808Y296181D01*
X464806Y296252D01*
X464788Y296301D01*
X464780Y296353D01*
X464746Y296416D01*
X464721Y296483D01*
X464689Y296524D01*
X464664Y296570D01*
X464612Y296619D01*
X464568Y296675D01*
X464524Y296704D01*
X464486Y296739D01*
X464421Y296770D01*
X464361Y296808D01*
X464310Y296821D01*
X464263Y296843D01*
X464192Y296851D01*
X464122Y296868D01*
X464070Y296864D01*
X464019Y296870D01*
X463948Y296855D01*
X463877Y296849D01*
X463829Y296829D01*
X463778Y296818D01*
X463717Y296781D01*
X463651Y296753D01*
X463595Y296708D01*
X463567Y296692D01*
X463552Y296674D01*
X463520Y296648D01*
X462527Y295655D01*
X426903Y295655D01*
X426832Y295644D01*
X426760Y295642D01*
X426711Y295624D01*
X426660Y295616D01*
X426597Y295582D01*
X426529Y295557D01*
X426488Y295525D01*
X426443Y295500D01*
X426393Y295448D01*
X426337Y295404D01*
X426309Y295360D01*
X426273Y295322D01*
X426243Y295257D01*
X426204Y295197D01*
X426191Y295146D01*
X426170Y295099D01*
X426162Y295028D01*
X426144Y294958D01*
X426148Y294906D01*
X426142Y294855D01*
X426158Y294784D01*
X426163Y294713D01*
X426184Y294665D01*
X426195Y294614D01*
X426231Y294553D01*
X426260Y294487D01*
X426304Y294431D01*
X426321Y294403D01*
X426327Y294397D01*
X427356Y291915D01*
X427356Y289237D01*
X427234Y288942D01*
X427207Y288829D01*
X427178Y288715D01*
X427179Y288709D01*
X427178Y288703D01*
X427189Y288587D01*
X427198Y288470D01*
X427200Y288464D01*
X427201Y288458D01*
X427249Y288351D01*
X427294Y288244D01*
X427299Y288238D01*
X427301Y288233D01*
X427313Y288220D01*
X427399Y288113D01*
X463520Y251992D01*
X463578Y251950D01*
X463630Y251901D01*
X463677Y251879D01*
X463719Y251848D01*
X463788Y251827D01*
X463853Y251797D01*
X463905Y251791D01*
X463955Y251776D01*
X464026Y251778D01*
X464097Y251770D01*
X464148Y251781D01*
X464200Y251782D01*
X464268Y251807D01*
X464338Y251822D01*
X464382Y251849D01*
X464431Y251867D01*
X464487Y251912D01*
X464549Y251948D01*
X464583Y251988D01*
X464623Y252020D01*
X464662Y252081D01*
X464709Y252135D01*
X464728Y252184D01*
X464756Y252227D01*
X464774Y252297D01*
X464801Y252363D01*
X464809Y252435D01*
X464817Y252466D01*
X464815Y252489D01*
X464819Y252530D01*
X464819Y254782D01*
X464899Y254862D01*
X464911Y254878D01*
X464926Y254890D01*
X464982Y254978D01*
X465043Y255061D01*
X465048Y255080D01*
X465059Y255097D01*
X465084Y255198D01*
X465115Y255297D01*
X465114Y255317D01*
X465119Y255336D01*
X465111Y255439D01*
X465109Y255542D01*
X465102Y255561D01*
X465100Y255581D01*
X465060Y255676D01*
X465024Y255773D01*
X465012Y255789D01*
X465004Y255807D01*
X464899Y255938D01*
X464819Y256018D01*
X464819Y262782D01*
X464899Y262862D01*
X464911Y262878D01*
X464926Y262890D01*
X464982Y262978D01*
X465043Y263061D01*
X465048Y263080D01*
X465059Y263097D01*
X465084Y263198D01*
X465115Y263297D01*
X465114Y263317D01*
X465119Y263336D01*
X465111Y263439D01*
X465109Y263542D01*
X465102Y263561D01*
X465100Y263581D01*
X465060Y263676D01*
X465024Y263773D01*
X465012Y263789D01*
X465004Y263807D01*
X464899Y263938D01*
X464819Y264018D01*
X464819Y271095D01*
X464801Y271207D01*
X464785Y271322D01*
X464781Y271332D01*
X464780Y271338D01*
X464769Y271358D01*
X464717Y271476D01*
X464484Y271879D01*
X464311Y272526D01*
X464311Y274131D01*
X473710Y274131D01*
X473729Y274134D01*
X473749Y274132D01*
X473851Y274154D01*
X473953Y274170D01*
X473970Y274180D01*
X473990Y274184D01*
X474079Y274237D01*
X474170Y274286D01*
X474184Y274300D01*
X474201Y274310D01*
X474222Y274335D01*
X474223Y274334D01*
X474298Y274262D01*
X474316Y274254D01*
X474331Y274241D01*
X474428Y274202D01*
X474521Y274159D01*
X474541Y274157D01*
X474559Y274149D01*
X474726Y274131D01*
X484125Y274131D01*
X484125Y272525D01*
X483952Y271879D01*
X483719Y271476D01*
X483678Y271369D01*
X483635Y271262D01*
X483634Y271252D01*
X483632Y271246D01*
X483631Y271224D01*
X483617Y271095D01*
X483617Y264018D01*
X483537Y263938D01*
X483525Y263922D01*
X483510Y263910D01*
X483454Y263823D01*
X483393Y263739D01*
X483388Y263720D01*
X483377Y263703D01*
X483351Y263602D01*
X483321Y263504D01*
X483322Y263484D01*
X483317Y263464D01*
X483325Y263361D01*
X483327Y263258D01*
X483334Y263239D01*
X483336Y263219D01*
X483376Y263124D01*
X483412Y263027D01*
X483424Y263011D01*
X483432Y262993D01*
X483537Y262862D01*
X483617Y262782D01*
X483617Y256018D01*
X483537Y255938D01*
X483525Y255922D01*
X483510Y255910D01*
X483454Y255823D01*
X483393Y255739D01*
X483388Y255720D01*
X483377Y255703D01*
X483352Y255602D01*
X483321Y255504D01*
X483322Y255484D01*
X483317Y255464D01*
X483325Y255361D01*
X483327Y255258D01*
X483334Y255239D01*
X483336Y255219D01*
X483376Y255124D01*
X483412Y255027D01*
X483424Y255011D01*
X483432Y254993D01*
X483537Y254862D01*
X483617Y254782D01*
X483617Y248018D01*
X482426Y246827D01*
X470522Y246827D01*
X470451Y246816D01*
X470380Y246814D01*
X470331Y246796D01*
X470279Y246788D01*
X470216Y246754D01*
X470149Y246729D01*
X470108Y246697D01*
X470062Y246672D01*
X470013Y246620D01*
X469957Y246576D01*
X469928Y246532D01*
X469893Y246494D01*
X469862Y246429D01*
X469824Y246369D01*
X469811Y246318D01*
X469789Y246271D01*
X469781Y246200D01*
X469764Y246130D01*
X469768Y246078D01*
X469762Y246027D01*
X469777Y245956D01*
X469783Y245885D01*
X469803Y245837D01*
X469814Y245786D01*
X469851Y245725D01*
X469879Y245659D01*
X469924Y245603D01*
X469940Y245575D01*
X469958Y245560D01*
X469984Y245528D01*
X485649Y229863D01*
X485649Y214637D01*
X471163Y200151D01*
X448872Y200151D01*
X448801Y200140D01*
X448730Y200138D01*
X448681Y200120D01*
X448629Y200112D01*
X448566Y200078D01*
X448499Y200053D01*
X448458Y200021D01*
X448412Y199996D01*
X448363Y199944D01*
X448307Y199900D01*
X448278Y199856D01*
X448243Y199818D01*
X448212Y199753D01*
X448174Y199693D01*
X448161Y199642D01*
X448139Y199595D01*
X448131Y199524D01*
X448114Y199454D01*
X448118Y199402D01*
X448112Y199351D01*
X448127Y199280D01*
X448133Y199209D01*
X448153Y199161D01*
X448164Y199110D01*
X448201Y199049D01*
X448229Y198983D01*
X448274Y198927D01*
X448290Y198899D01*
X448299Y198892D01*
X448301Y198889D01*
X448312Y198879D01*
X448334Y198852D01*
X450874Y196312D01*
X450948Y196259D01*
X451017Y196199D01*
X451047Y196187D01*
X451074Y196168D01*
X451161Y196141D01*
X451245Y196107D01*
X451286Y196103D01*
X451309Y196096D01*
X451341Y196097D01*
X451412Y196089D01*
X593798Y196089D01*
X593888Y196103D01*
G37*
%LPC*%
G36*
X400418Y312419D02*
X400418Y312419D01*
X399227Y313610D01*
X399227Y330026D01*
X400418Y331217D01*
X407182Y331217D01*
X407262Y331137D01*
X407278Y331125D01*
X407290Y331110D01*
X407377Y331054D01*
X407461Y330993D01*
X407480Y330988D01*
X407497Y330977D01*
X407598Y330952D01*
X407696Y330921D01*
X407716Y330922D01*
X407736Y330917D01*
X407839Y330925D01*
X407942Y330927D01*
X407961Y330934D01*
X407981Y330936D01*
X408076Y330976D01*
X408173Y331012D01*
X408189Y331024D01*
X408207Y331032D01*
X408338Y331137D01*
X408418Y331217D01*
X415182Y331217D01*
X415262Y331137D01*
X415278Y331125D01*
X415290Y331110D01*
X415377Y331054D01*
X415461Y330993D01*
X415480Y330988D01*
X415497Y330977D01*
X415598Y330952D01*
X415696Y330921D01*
X415716Y330922D01*
X415736Y330917D01*
X415839Y330925D01*
X415942Y330927D01*
X415961Y330934D01*
X415981Y330936D01*
X416076Y330976D01*
X416173Y331012D01*
X416189Y331024D01*
X416207Y331032D01*
X416338Y331137D01*
X416418Y331217D01*
X423182Y331217D01*
X423262Y331137D01*
X423278Y331125D01*
X423290Y331110D01*
X423377Y331054D01*
X423461Y330993D01*
X423480Y330988D01*
X423497Y330977D01*
X423598Y330952D01*
X423696Y330921D01*
X423716Y330922D01*
X423736Y330917D01*
X423839Y330925D01*
X423942Y330927D01*
X423961Y330934D01*
X423981Y330936D01*
X424076Y330976D01*
X424173Y331012D01*
X424189Y331024D01*
X424207Y331032D01*
X424338Y331137D01*
X424418Y331217D01*
X431182Y331217D01*
X431262Y331137D01*
X431278Y331125D01*
X431290Y331110D01*
X431377Y331054D01*
X431461Y330993D01*
X431480Y330988D01*
X431497Y330977D01*
X431598Y330952D01*
X431696Y330921D01*
X431716Y330922D01*
X431736Y330917D01*
X431839Y330925D01*
X431942Y330927D01*
X431961Y330934D01*
X431981Y330936D01*
X432076Y330976D01*
X432173Y331012D01*
X432189Y331024D01*
X432207Y331032D01*
X432338Y331137D01*
X432418Y331217D01*
X439166Y331217D01*
X439186Y331220D01*
X439205Y331218D01*
X439307Y331240D01*
X439409Y331256D01*
X439426Y331266D01*
X439446Y331270D01*
X439535Y331323D01*
X439626Y331372D01*
X439640Y331386D01*
X439657Y331396D01*
X439724Y331475D01*
X439796Y331550D01*
X439804Y331568D01*
X439817Y331583D01*
X439856Y331679D01*
X439899Y331773D01*
X439901Y331793D01*
X439909Y331811D01*
X439927Y331978D01*
X439927Y333702D01*
X439913Y333792D01*
X439905Y333883D01*
X439893Y333913D01*
X439888Y333945D01*
X439845Y334025D01*
X439809Y334109D01*
X439783Y334141D01*
X439772Y334162D01*
X439749Y334184D01*
X439704Y334240D01*
X423648Y350296D01*
X423574Y350349D01*
X423505Y350409D01*
X423475Y350421D01*
X423448Y350440D01*
X423361Y350467D01*
X423277Y350501D01*
X423236Y350505D01*
X423213Y350512D01*
X423181Y350511D01*
X423110Y350519D01*
X411767Y350519D01*
X411722Y350512D01*
X411676Y350514D01*
X411601Y350492D01*
X411525Y350480D01*
X411484Y350458D01*
X411440Y350445D01*
X411376Y350401D01*
X411307Y350364D01*
X411276Y350331D01*
X411238Y350305D01*
X411192Y350243D01*
X411138Y350186D01*
X411118Y350144D01*
X411091Y350108D01*
X411067Y350034D01*
X411034Y349963D01*
X411029Y349917D01*
X411015Y349874D01*
X411016Y349796D01*
X411007Y349719D01*
X411017Y349674D01*
X411017Y349628D01*
X411055Y349496D01*
X411059Y349478D01*
X411062Y349474D01*
X411064Y349467D01*
X411862Y347541D01*
X411862Y344863D01*
X410837Y342389D01*
X408943Y340495D01*
X406469Y339470D01*
X403791Y339470D01*
X401317Y340495D01*
X399423Y342389D01*
X399301Y342683D01*
X399240Y342782D01*
X399180Y342883D01*
X399175Y342887D01*
X399172Y342892D01*
X399082Y342967D01*
X398993Y343043D01*
X398987Y343045D01*
X398982Y343049D01*
X398874Y343091D01*
X398765Y343135D01*
X398757Y343136D01*
X398752Y343137D01*
X398734Y343138D01*
X398598Y343153D01*
X301067Y343153D01*
X300952Y343134D01*
X300836Y343117D01*
X300830Y343115D01*
X300824Y343114D01*
X300722Y343059D01*
X300617Y343006D01*
X300612Y343001D01*
X300607Y342998D01*
X300527Y342914D01*
X300445Y342830D01*
X300441Y342824D01*
X300437Y342820D01*
X300430Y342803D01*
X300364Y342683D01*
X300347Y342643D01*
X298453Y340749D01*
X295979Y339724D01*
X293301Y339724D01*
X290827Y340749D01*
X288933Y342643D01*
X287908Y345117D01*
X287908Y347795D01*
X288933Y350269D01*
X290827Y352163D01*
X293301Y353188D01*
X295979Y353188D01*
X298453Y352163D01*
X300347Y350269D01*
X300574Y349721D01*
X300636Y349621D01*
X300696Y349521D01*
X300700Y349517D01*
X300704Y349512D01*
X300794Y349437D01*
X300883Y349361D01*
X300888Y349359D01*
X300893Y349355D01*
X301002Y349313D01*
X301111Y349269D01*
X301118Y349268D01*
X301123Y349267D01*
X301141Y349266D01*
X301277Y349251D01*
X398598Y349251D01*
X398712Y349269D01*
X398829Y349287D01*
X398834Y349289D01*
X398841Y349290D01*
X398943Y349345D01*
X399048Y349398D01*
X399052Y349403D01*
X399058Y349406D01*
X399138Y349490D01*
X399220Y349574D01*
X399224Y349580D01*
X399227Y349584D01*
X399235Y349601D01*
X399301Y349721D01*
X399423Y350015D01*
X401317Y351909D01*
X403791Y352934D01*
X404949Y352934D01*
X405020Y352945D01*
X405091Y352947D01*
X405140Y352965D01*
X405192Y352973D01*
X405255Y353007D01*
X405322Y353032D01*
X405363Y353064D01*
X405409Y353089D01*
X405458Y353140D01*
X405514Y353185D01*
X405543Y353229D01*
X405578Y353267D01*
X405609Y353332D01*
X405647Y353392D01*
X405660Y353443D01*
X405682Y353490D01*
X405690Y353561D01*
X405707Y353631D01*
X405703Y353683D01*
X405709Y353734D01*
X405694Y353805D01*
X405688Y353876D01*
X405668Y353924D01*
X405657Y353975D01*
X405620Y354036D01*
X405592Y354102D01*
X405547Y354158D01*
X405531Y354186D01*
X405513Y354201D01*
X405487Y354233D01*
X399289Y360431D01*
X399273Y360443D01*
X399260Y360459D01*
X399173Y360515D01*
X399089Y360575D01*
X399070Y360581D01*
X399053Y360592D01*
X398953Y360617D01*
X398854Y360647D01*
X398834Y360647D01*
X398815Y360652D01*
X398712Y360644D01*
X398608Y360641D01*
X398590Y360634D01*
X398570Y360633D01*
X398475Y360592D01*
X398377Y360557D01*
X398362Y360544D01*
X398343Y360536D01*
X398212Y360431D01*
X397898Y360117D01*
X394350Y358647D01*
X390510Y358647D01*
X386962Y360117D01*
X384247Y362832D01*
X382777Y366380D01*
X382777Y385460D01*
X384247Y389008D01*
X386962Y391723D01*
X390510Y393193D01*
X394350Y393193D01*
X397898Y391723D01*
X400613Y389008D01*
X402083Y385460D01*
X402083Y366576D01*
X402097Y366486D01*
X402105Y366395D01*
X402117Y366365D01*
X402122Y366333D01*
X402165Y366253D01*
X402201Y366169D01*
X402227Y366137D01*
X402238Y366116D01*
X402261Y366094D01*
X402306Y366038D01*
X411504Y356840D01*
X411578Y356787D01*
X411647Y356727D01*
X411677Y356715D01*
X411704Y356696D01*
X411791Y356669D01*
X411875Y356635D01*
X411916Y356631D01*
X411939Y356624D01*
X411971Y356625D01*
X412042Y356617D01*
X425951Y356617D01*
X446025Y336543D01*
X446025Y331978D01*
X446028Y331958D01*
X446026Y331939D01*
X446048Y331837D01*
X446064Y331735D01*
X446074Y331718D01*
X446078Y331698D01*
X446131Y331609D01*
X446180Y331518D01*
X446194Y331504D01*
X446204Y331487D01*
X446283Y331420D01*
X446358Y331348D01*
X446376Y331340D01*
X446391Y331327D01*
X446487Y331288D01*
X446581Y331245D01*
X446601Y331243D01*
X446619Y331235D01*
X446786Y331217D01*
X447294Y331217D01*
X447314Y331220D01*
X447333Y331218D01*
X447435Y331240D01*
X447537Y331256D01*
X447554Y331266D01*
X447574Y331270D01*
X447663Y331323D01*
X447754Y331372D01*
X447768Y331386D01*
X447785Y331396D01*
X447852Y331475D01*
X447924Y331550D01*
X447932Y331568D01*
X447945Y331583D01*
X447984Y331679D01*
X448027Y331773D01*
X448029Y331793D01*
X448037Y331811D01*
X448055Y331978D01*
X448055Y337766D01*
X448041Y337856D01*
X448033Y337947D01*
X448021Y337977D01*
X448016Y338009D01*
X447973Y338089D01*
X447937Y338173D01*
X447911Y338205D01*
X447900Y338226D01*
X447877Y338248D01*
X447832Y338304D01*
X425680Y360456D01*
X425606Y360509D01*
X425537Y360569D01*
X425507Y360581D01*
X425480Y360600D01*
X425393Y360627D01*
X425309Y360661D01*
X425268Y360665D01*
X425245Y360672D01*
X425213Y360671D01*
X425142Y360679D01*
X424176Y360679D01*
X424086Y360665D01*
X423995Y360657D01*
X423965Y360645D01*
X423933Y360640D01*
X423852Y360597D01*
X423768Y360561D01*
X423736Y360535D01*
X423715Y360524D01*
X423693Y360501D01*
X423637Y360456D01*
X423298Y360117D01*
X419750Y358647D01*
X415910Y358647D01*
X412362Y360117D01*
X409647Y362832D01*
X408177Y366380D01*
X408177Y385460D01*
X409647Y389008D01*
X412362Y391723D01*
X415910Y393193D01*
X419750Y393193D01*
X423298Y391723D01*
X426013Y389008D01*
X427483Y385460D01*
X427483Y367538D01*
X427486Y367518D01*
X427484Y367499D01*
X427506Y367397D01*
X427522Y367295D01*
X427532Y367278D01*
X427536Y367258D01*
X427589Y367169D01*
X427638Y367078D01*
X427652Y367064D01*
X427662Y367047D01*
X427741Y366980D01*
X427816Y366908D01*
X427834Y366900D01*
X427849Y366887D01*
X427888Y366871D01*
X454153Y340607D01*
X454153Y331978D01*
X454156Y331958D01*
X454154Y331939D01*
X454176Y331837D01*
X454192Y331735D01*
X454202Y331718D01*
X454206Y331698D01*
X454259Y331609D01*
X454308Y331518D01*
X454322Y331504D01*
X454332Y331487D01*
X454411Y331420D01*
X454486Y331348D01*
X454504Y331340D01*
X454519Y331327D01*
X454615Y331288D01*
X454709Y331245D01*
X454729Y331243D01*
X454747Y331235D01*
X454914Y331217D01*
X455182Y331217D01*
X455262Y331137D01*
X455278Y331125D01*
X455290Y331110D01*
X455377Y331054D01*
X455461Y330993D01*
X455480Y330988D01*
X455497Y330977D01*
X455598Y330952D01*
X455696Y330921D01*
X455716Y330922D01*
X455736Y330917D01*
X455839Y330925D01*
X455942Y330927D01*
X455961Y330934D01*
X455981Y330936D01*
X456076Y330976D01*
X456173Y331012D01*
X456189Y331024D01*
X456207Y331032D01*
X456338Y331137D01*
X456418Y331217D01*
X456638Y331217D01*
X456728Y331231D01*
X456819Y331239D01*
X456849Y331251D01*
X456881Y331256D01*
X456961Y331299D01*
X457045Y331335D01*
X457077Y331361D01*
X457098Y331372D01*
X457120Y331395D01*
X457176Y331440D01*
X457992Y332256D01*
X458045Y332330D01*
X458105Y332399D01*
X458117Y332429D01*
X458136Y332456D01*
X458163Y332543D01*
X458197Y332627D01*
X458201Y332668D01*
X458208Y332691D01*
X458207Y332723D01*
X458215Y332794D01*
X458215Y345894D01*
X458201Y345984D01*
X458193Y346075D01*
X458181Y346105D01*
X458176Y346137D01*
X458133Y346217D01*
X458097Y346301D01*
X458071Y346333D01*
X458060Y346354D01*
X458037Y346376D01*
X457992Y346432D01*
X445953Y358471D01*
X445858Y358540D01*
X445765Y358609D01*
X445759Y358611D01*
X445753Y358615D01*
X445642Y358649D01*
X445531Y358685D01*
X445524Y358685D01*
X445518Y358687D01*
X445402Y358684D01*
X445285Y358683D01*
X445278Y358681D01*
X445272Y358681D01*
X445255Y358674D01*
X445161Y358647D01*
X441310Y358647D01*
X437762Y360117D01*
X435047Y362832D01*
X433577Y366380D01*
X433577Y385460D01*
X435047Y389008D01*
X437762Y391723D01*
X441310Y393193D01*
X445150Y393193D01*
X448698Y391723D01*
X451413Y389008D01*
X452883Y385460D01*
X452883Y366380D01*
X451413Y362832D01*
X451353Y362772D01*
X451341Y362755D01*
X451325Y362743D01*
X451269Y362656D01*
X451209Y362572D01*
X451203Y362553D01*
X451192Y362536D01*
X451167Y362435D01*
X451137Y362337D01*
X451137Y362317D01*
X451132Y362297D01*
X451140Y362195D01*
X451143Y362091D01*
X451150Y362072D01*
X451151Y362052D01*
X451192Y361958D01*
X451227Y361860D01*
X451240Y361844D01*
X451248Y361826D01*
X451353Y361695D01*
X464313Y348735D01*
X464313Y330401D01*
X464327Y330311D01*
X464335Y330220D01*
X464347Y330191D01*
X464352Y330159D01*
X464373Y330120D01*
X464373Y313610D01*
X463182Y312419D01*
X456418Y312419D01*
X456338Y312499D01*
X456322Y312511D01*
X456310Y312526D01*
X456222Y312582D01*
X456139Y312643D01*
X456120Y312648D01*
X456103Y312659D01*
X456002Y312684D01*
X455903Y312715D01*
X455883Y312714D01*
X455864Y312719D01*
X455761Y312711D01*
X455658Y312709D01*
X455639Y312702D01*
X455619Y312700D01*
X455524Y312660D01*
X455427Y312624D01*
X455411Y312612D01*
X455393Y312604D01*
X455262Y312499D01*
X455182Y312419D01*
X448418Y312419D01*
X448338Y312499D01*
X448322Y312511D01*
X448310Y312526D01*
X448222Y312582D01*
X448139Y312643D01*
X448120Y312648D01*
X448103Y312659D01*
X448002Y312684D01*
X447903Y312715D01*
X447883Y312714D01*
X447864Y312719D01*
X447761Y312711D01*
X447658Y312709D01*
X447639Y312702D01*
X447619Y312700D01*
X447524Y312660D01*
X447427Y312624D01*
X447411Y312612D01*
X447393Y312604D01*
X447262Y312499D01*
X447182Y312419D01*
X440418Y312419D01*
X440338Y312499D01*
X440322Y312511D01*
X440310Y312526D01*
X440222Y312582D01*
X440139Y312643D01*
X440120Y312648D01*
X440103Y312659D01*
X440002Y312684D01*
X439903Y312715D01*
X439883Y312714D01*
X439864Y312719D01*
X439761Y312711D01*
X439658Y312709D01*
X439639Y312702D01*
X439619Y312700D01*
X439524Y312660D01*
X439427Y312624D01*
X439411Y312612D01*
X439393Y312604D01*
X439262Y312499D01*
X439182Y312419D01*
X432418Y312419D01*
X432338Y312499D01*
X432322Y312511D01*
X432310Y312526D01*
X432222Y312582D01*
X432139Y312643D01*
X432120Y312648D01*
X432103Y312659D01*
X432002Y312684D01*
X431903Y312715D01*
X431883Y312714D01*
X431864Y312719D01*
X431761Y312711D01*
X431658Y312709D01*
X431639Y312702D01*
X431619Y312700D01*
X431524Y312660D01*
X431427Y312624D01*
X431411Y312612D01*
X431393Y312604D01*
X431262Y312499D01*
X431182Y312419D01*
X424418Y312419D01*
X424338Y312499D01*
X424322Y312511D01*
X424310Y312526D01*
X424222Y312582D01*
X424139Y312643D01*
X424120Y312648D01*
X424103Y312659D01*
X424002Y312684D01*
X423903Y312715D01*
X423883Y312714D01*
X423864Y312719D01*
X423761Y312711D01*
X423658Y312709D01*
X423639Y312702D01*
X423619Y312700D01*
X423524Y312660D01*
X423427Y312624D01*
X423411Y312612D01*
X423393Y312604D01*
X423262Y312499D01*
X423182Y312419D01*
X416418Y312419D01*
X416338Y312499D01*
X416322Y312511D01*
X416310Y312526D01*
X416222Y312582D01*
X416139Y312643D01*
X416120Y312648D01*
X416103Y312659D01*
X416002Y312684D01*
X415903Y312715D01*
X415883Y312714D01*
X415864Y312719D01*
X415761Y312711D01*
X415658Y312709D01*
X415639Y312702D01*
X415619Y312700D01*
X415524Y312660D01*
X415427Y312624D01*
X415411Y312612D01*
X415393Y312604D01*
X415262Y312499D01*
X415182Y312419D01*
X408418Y312419D01*
X408338Y312499D01*
X408322Y312511D01*
X408310Y312526D01*
X408222Y312582D01*
X408139Y312643D01*
X408120Y312648D01*
X408103Y312659D01*
X408002Y312684D01*
X407903Y312715D01*
X407883Y312714D01*
X407864Y312719D01*
X407761Y312711D01*
X407658Y312709D01*
X407639Y312702D01*
X407619Y312700D01*
X407524Y312660D01*
X407427Y312624D01*
X407411Y312612D01*
X407393Y312604D01*
X407262Y312499D01*
X407182Y312419D01*
X400418Y312419D01*
G37*
%LPD*%
%LPC*%
G36*
X820976Y344677D02*
X820976Y344677D01*
X814577Y351076D01*
X814577Y351790D01*
X814574Y351810D01*
X814576Y351829D01*
X814554Y351931D01*
X814538Y352033D01*
X814528Y352050D01*
X814524Y352070D01*
X814471Y352159D01*
X814422Y352250D01*
X814408Y352264D01*
X814398Y352281D01*
X814319Y352348D01*
X814244Y352420D01*
X814226Y352428D01*
X814211Y352441D01*
X814115Y352480D01*
X814021Y352523D01*
X814001Y352525D01*
X813983Y352533D01*
X813816Y352551D01*
X797313Y352551D01*
X771120Y378744D01*
X771046Y378797D01*
X770977Y378857D01*
X770947Y378869D01*
X770920Y378888D01*
X770833Y378915D01*
X770749Y378949D01*
X770708Y378953D01*
X770685Y378960D01*
X770653Y378959D01*
X770582Y378967D01*
X615694Y378967D01*
X615674Y378964D01*
X615655Y378966D01*
X615553Y378944D01*
X615451Y378928D01*
X615434Y378918D01*
X615414Y378914D01*
X615325Y378861D01*
X615234Y378812D01*
X615220Y378798D01*
X615203Y378788D01*
X615136Y378709D01*
X615064Y378634D01*
X615056Y378616D01*
X615043Y378601D01*
X615004Y378505D01*
X614961Y378411D01*
X614959Y378391D01*
X614951Y378373D01*
X614933Y378206D01*
X614933Y377738D01*
X613742Y376547D01*
X599058Y376547D01*
X597867Y377738D01*
X597867Y394422D01*
X599058Y395613D01*
X613742Y395613D01*
X614933Y394422D01*
X614933Y385826D01*
X614936Y385806D01*
X614934Y385787D01*
X614956Y385685D01*
X614972Y385583D01*
X614982Y385566D01*
X614986Y385546D01*
X615039Y385457D01*
X615088Y385366D01*
X615102Y385352D01*
X615112Y385335D01*
X615191Y385268D01*
X615266Y385196D01*
X615284Y385188D01*
X615299Y385175D01*
X615395Y385136D01*
X615489Y385093D01*
X615509Y385091D01*
X615527Y385083D01*
X615694Y385065D01*
X773423Y385065D01*
X799616Y358872D01*
X799690Y358819D01*
X799759Y358759D01*
X799789Y358747D01*
X799816Y358728D01*
X799903Y358701D01*
X799987Y358667D01*
X800028Y358663D01*
X800051Y358656D01*
X800083Y358657D01*
X800154Y358649D01*
X813816Y358649D01*
X813836Y358652D01*
X813855Y358650D01*
X813957Y358672D01*
X814059Y358688D01*
X814076Y358698D01*
X814096Y358702D01*
X814185Y358755D01*
X814276Y358804D01*
X814290Y358818D01*
X814307Y358828D01*
X814374Y358907D01*
X814446Y358982D01*
X814454Y359000D01*
X814467Y359015D01*
X814506Y359111D01*
X814549Y359205D01*
X814551Y359225D01*
X814559Y359243D01*
X814577Y359410D01*
X814577Y360124D01*
X820976Y366523D01*
X830024Y366523D01*
X836423Y360124D01*
X836423Y351076D01*
X830024Y344677D01*
X820976Y344677D01*
G37*
%LPD*%
%LPC*%
G36*
X199187Y191917D02*
X199187Y191917D01*
X191773Y194988D01*
X186098Y200663D01*
X183027Y208077D01*
X183027Y216103D01*
X186098Y223517D01*
X191773Y229192D01*
X199187Y232263D01*
X207213Y232263D01*
X214627Y229192D01*
X220302Y223517D01*
X223373Y216103D01*
X223373Y208077D01*
X220302Y200663D01*
X214627Y194988D01*
X207213Y191917D01*
X199187Y191917D01*
G37*
%LPD*%
%LPC*%
G36*
X199187Y360827D02*
X199187Y360827D01*
X191773Y363898D01*
X186098Y369573D01*
X183027Y376987D01*
X183027Y385013D01*
X186098Y392427D01*
X191773Y398102D01*
X199187Y401173D01*
X207213Y401173D01*
X214627Y398102D01*
X220302Y392427D01*
X223373Y385013D01*
X223373Y376987D01*
X220302Y369573D01*
X214627Y363898D01*
X207213Y360827D01*
X199187Y360827D01*
G37*
%LPD*%
%LPC*%
G36*
X534347Y284860D02*
X534347Y284860D01*
X531873Y285885D01*
X529979Y287779D01*
X528954Y290253D01*
X528954Y292931D01*
X529979Y295405D01*
X531873Y297299D01*
X534347Y298324D01*
X537025Y298324D01*
X537320Y298202D01*
X537433Y298175D01*
X537547Y298146D01*
X537553Y298147D01*
X537559Y298146D01*
X537675Y298157D01*
X537792Y298166D01*
X537798Y298168D01*
X537804Y298169D01*
X537911Y298216D01*
X538018Y298262D01*
X538024Y298267D01*
X538029Y298269D01*
X538042Y298281D01*
X538149Y298367D01*
X541558Y301776D01*
X543567Y303785D01*
X578106Y303785D01*
X578126Y303788D01*
X578145Y303786D01*
X578247Y303808D01*
X578349Y303824D01*
X578366Y303834D01*
X578386Y303838D01*
X578475Y303891D01*
X578566Y303940D01*
X578580Y303954D01*
X578597Y303964D01*
X578664Y304043D01*
X578736Y304118D01*
X578744Y304136D01*
X578757Y304151D01*
X578796Y304247D01*
X578839Y304341D01*
X578841Y304361D01*
X578849Y304379D01*
X578867Y304546D01*
X578867Y313142D01*
X580058Y314333D01*
X594742Y314333D01*
X595933Y313142D01*
X595933Y313093D01*
X595937Y313069D01*
X595934Y313045D01*
X595956Y312948D01*
X595972Y312850D01*
X595984Y312829D01*
X595989Y312805D01*
X596041Y312720D01*
X596088Y312633D01*
X596105Y312616D01*
X596118Y312596D01*
X596194Y312532D01*
X596266Y312463D01*
X596288Y312453D01*
X596306Y312438D01*
X596399Y312402D01*
X596489Y312360D01*
X596513Y312357D01*
X596535Y312348D01*
X596635Y312344D01*
X596733Y312333D01*
X596757Y312338D01*
X596781Y312337D01*
X596877Y312364D01*
X596974Y312385D01*
X596994Y312397D01*
X597018Y312404D01*
X597100Y312460D01*
X597185Y312511D01*
X597201Y312529D01*
X597220Y312543D01*
X597280Y312622D01*
X597345Y312698D01*
X597354Y312720D01*
X597368Y312740D01*
X597429Y312896D01*
X597532Y313281D01*
X597867Y313860D01*
X598340Y314333D01*
X598919Y314668D01*
X599566Y314841D01*
X604877Y314841D01*
X604877Y305562D01*
X604880Y305542D01*
X604878Y305523D01*
X604900Y305421D01*
X604917Y305319D01*
X604926Y305302D01*
X604930Y305282D01*
X604983Y305193D01*
X605032Y305102D01*
X605046Y305088D01*
X605056Y305071D01*
X605135Y305004D01*
X605210Y304933D01*
X605228Y304924D01*
X605243Y304911D01*
X605339Y304872D01*
X605433Y304829D01*
X605453Y304827D01*
X605471Y304819D01*
X605638Y304801D01*
X606401Y304801D01*
X606401Y304799D01*
X605638Y304799D01*
X605618Y304796D01*
X605599Y304798D01*
X605497Y304776D01*
X605395Y304759D01*
X605378Y304750D01*
X605358Y304746D01*
X605269Y304693D01*
X605178Y304644D01*
X605164Y304630D01*
X605147Y304620D01*
X605080Y304541D01*
X605009Y304466D01*
X605000Y304448D01*
X604987Y304433D01*
X604948Y304337D01*
X604905Y304243D01*
X604903Y304223D01*
X604895Y304205D01*
X604877Y304038D01*
X604877Y294759D01*
X599566Y294759D01*
X598919Y294932D01*
X598340Y295267D01*
X597867Y295740D01*
X597532Y296319D01*
X597429Y296704D01*
X597419Y296726D01*
X597415Y296750D01*
X597369Y296838D01*
X597328Y296928D01*
X597312Y296946D01*
X597300Y296967D01*
X597228Y297036D01*
X597161Y297109D01*
X597140Y297120D01*
X597122Y297137D01*
X597032Y297179D01*
X596945Y297226D01*
X596921Y297230D01*
X596899Y297240D01*
X596800Y297251D01*
X596702Y297268D01*
X596678Y297265D01*
X596655Y297267D01*
X596558Y297246D01*
X596459Y297231D01*
X596438Y297220D01*
X596414Y297215D01*
X596329Y297164D01*
X596240Y297119D01*
X596224Y297101D01*
X596203Y297089D01*
X596138Y297013D01*
X596069Y296942D01*
X596059Y296920D01*
X596043Y296902D01*
X596006Y296810D01*
X595963Y296720D01*
X595960Y296696D01*
X595951Y296674D01*
X595933Y296507D01*
X595933Y296458D01*
X594742Y295267D01*
X580058Y295267D01*
X578867Y296458D01*
X578867Y296926D01*
X578864Y296946D01*
X578866Y296965D01*
X578844Y297067D01*
X578828Y297169D01*
X578818Y297186D01*
X578814Y297206D01*
X578761Y297295D01*
X578712Y297386D01*
X578698Y297400D01*
X578688Y297417D01*
X578609Y297484D01*
X578534Y297556D01*
X578516Y297564D01*
X578501Y297577D01*
X578405Y297616D01*
X578311Y297659D01*
X578291Y297661D01*
X578273Y297669D01*
X578106Y297687D01*
X546408Y297687D01*
X546318Y297673D01*
X546227Y297665D01*
X546197Y297653D01*
X546165Y297648D01*
X546085Y297605D01*
X546001Y297569D01*
X545969Y297543D01*
X545948Y297532D01*
X545926Y297509D01*
X545870Y297464D01*
X542461Y294055D01*
X542393Y293960D01*
X542323Y293866D01*
X542321Y293861D01*
X542317Y293855D01*
X542283Y293743D01*
X542247Y293633D01*
X542247Y293626D01*
X542245Y293620D01*
X542248Y293504D01*
X542249Y293387D01*
X542251Y293379D01*
X542251Y293374D01*
X542258Y293357D01*
X542296Y293226D01*
X542418Y292931D01*
X542418Y290253D01*
X541393Y287779D01*
X539499Y285885D01*
X537025Y284860D01*
X534347Y284860D01*
G37*
%LPD*%
%LPC*%
G36*
X548317Y329564D02*
X548317Y329564D01*
X545843Y330589D01*
X543949Y332483D01*
X542924Y334957D01*
X542924Y337635D01*
X543046Y337930D01*
X543073Y338043D01*
X543102Y338157D01*
X543101Y338163D01*
X543102Y338169D01*
X543091Y338285D01*
X543082Y338402D01*
X543080Y338408D01*
X543079Y338414D01*
X543031Y338521D01*
X542986Y338628D01*
X542981Y338634D01*
X542979Y338639D01*
X542967Y338652D01*
X542881Y338759D01*
X533069Y348571D01*
X532975Y348639D01*
X532880Y348709D01*
X532874Y348711D01*
X532869Y348715D01*
X532758Y348749D01*
X532647Y348785D01*
X532640Y348785D01*
X532634Y348787D01*
X532518Y348784D01*
X532401Y348783D01*
X532393Y348781D01*
X532388Y348781D01*
X532371Y348774D01*
X532240Y348736D01*
X531945Y348614D01*
X529267Y348614D01*
X526793Y349639D01*
X524899Y351533D01*
X523874Y354007D01*
X523874Y356685D01*
X524899Y359159D01*
X526793Y361053D01*
X529267Y362078D01*
X531945Y362078D01*
X534419Y361053D01*
X536313Y359159D01*
X537338Y356685D01*
X537338Y354007D01*
X537216Y353712D01*
X537189Y353599D01*
X537160Y353485D01*
X537161Y353479D01*
X537160Y353473D01*
X537171Y353357D01*
X537180Y353240D01*
X537182Y353234D01*
X537183Y353228D01*
X537231Y353120D01*
X537276Y353014D01*
X537281Y353008D01*
X537283Y353003D01*
X537295Y352990D01*
X537381Y352883D01*
X547193Y343071D01*
X547287Y343003D01*
X547382Y342933D01*
X547388Y342931D01*
X547393Y342927D01*
X547504Y342893D01*
X547615Y342857D01*
X547622Y342857D01*
X547628Y342855D01*
X547744Y342858D01*
X547861Y342859D01*
X547869Y342861D01*
X547874Y342861D01*
X547891Y342868D01*
X548022Y342906D01*
X548317Y343028D01*
X550995Y343028D01*
X553469Y342003D01*
X555363Y340109D01*
X556388Y337635D01*
X556388Y334957D01*
X555363Y332483D01*
X553469Y330589D01*
X550995Y329564D01*
X548317Y329564D01*
G37*
%LPD*%
%LPC*%
G36*
X204938Y307085D02*
X204938Y307085D01*
X201110Y308671D01*
X198181Y311600D01*
X196595Y315428D01*
X196595Y319572D01*
X198181Y323400D01*
X201110Y326329D01*
X204938Y327915D01*
X209082Y327915D01*
X212910Y326329D01*
X215839Y323400D01*
X217425Y319572D01*
X217425Y315428D01*
X215839Y311600D01*
X212910Y308671D01*
X209082Y307085D01*
X204938Y307085D01*
G37*
%LPD*%
%LPC*%
G36*
X204938Y256285D02*
X204938Y256285D01*
X201110Y257871D01*
X198181Y260800D01*
X196595Y264628D01*
X196595Y268772D01*
X198181Y272600D01*
X201110Y275529D01*
X204938Y277115D01*
X209082Y277115D01*
X212910Y275529D01*
X215839Y272600D01*
X217425Y268772D01*
X217425Y264628D01*
X215839Y260800D01*
X212910Y257871D01*
X209082Y256285D01*
X204938Y256285D01*
G37*
%LPD*%
%LPC*%
G36*
X204938Y281685D02*
X204938Y281685D01*
X201110Y283271D01*
X198181Y286200D01*
X196595Y290028D01*
X196595Y294172D01*
X198181Y298000D01*
X201110Y300929D01*
X204938Y302515D01*
X209082Y302515D01*
X212910Y300929D01*
X215839Y298000D01*
X217425Y294172D01*
X217425Y290028D01*
X215839Y286200D01*
X212910Y283271D01*
X209082Y281685D01*
X204938Y281685D01*
G37*
%LPD*%
%LPC*%
G36*
X827023Y255523D02*
X827023Y255523D01*
X827023Y265431D01*
X830235Y265431D01*
X836931Y258735D01*
X836931Y255523D01*
X827023Y255523D01*
G37*
%LPD*%
%LPC*%
G36*
X827023Y230123D02*
X827023Y230123D01*
X827023Y240031D01*
X830235Y240031D01*
X836931Y233335D01*
X836931Y230123D01*
X827023Y230123D01*
G37*
%LPD*%
%LPC*%
G36*
X814069Y255523D02*
X814069Y255523D01*
X814069Y258735D01*
X820765Y265431D01*
X823977Y265431D01*
X823977Y255523D01*
X814069Y255523D01*
G37*
%LPD*%
%LPC*%
G36*
X814069Y230123D02*
X814069Y230123D01*
X814069Y233335D01*
X820765Y240031D01*
X823977Y240031D01*
X823977Y230123D01*
X814069Y230123D01*
G37*
%LPD*%
%LPC*%
G36*
X827023Y217169D02*
X827023Y217169D01*
X827023Y227077D01*
X836931Y227077D01*
X836931Y223865D01*
X830235Y217169D01*
X827023Y217169D01*
G37*
%LPD*%
%LPC*%
G36*
X827023Y242569D02*
X827023Y242569D01*
X827023Y252477D01*
X836931Y252477D01*
X836931Y249265D01*
X830235Y242569D01*
X827023Y242569D01*
G37*
%LPD*%
%LPC*%
G36*
X820765Y242569D02*
X820765Y242569D01*
X814069Y249265D01*
X814069Y252477D01*
X823977Y252477D01*
X823977Y242569D01*
X820765Y242569D01*
G37*
%LPD*%
%LPC*%
G36*
X820765Y217169D02*
X820765Y217169D01*
X814069Y223865D01*
X814069Y227077D01*
X823977Y227077D01*
X823977Y217169D01*
X820765Y217169D01*
G37*
%LPD*%
%LPC*%
G36*
X607923Y306323D02*
X607923Y306323D01*
X607923Y314841D01*
X613234Y314841D01*
X613881Y314668D01*
X614460Y314333D01*
X614933Y313860D01*
X615268Y313281D01*
X615441Y312634D01*
X615441Y306323D01*
X607923Y306323D01*
G37*
%LPD*%
%LPC*%
G36*
X317753Y333603D02*
X317753Y333603D01*
X317753Y341121D01*
X324064Y341121D01*
X324711Y340948D01*
X325290Y340613D01*
X325763Y340140D01*
X326098Y339561D01*
X326271Y338914D01*
X326271Y333603D01*
X317753Y333603D01*
G37*
%LPD*%
%LPC*%
G36*
X607923Y294759D02*
X607923Y294759D01*
X607923Y303277D01*
X615441Y303277D01*
X615441Y296965D01*
X615268Y296319D01*
X614933Y295740D01*
X614460Y295267D01*
X613881Y294932D01*
X613234Y294759D01*
X607923Y294759D01*
G37*
%LPD*%
%LPC*%
G36*
X306189Y333603D02*
X306189Y333603D01*
X306189Y338914D01*
X306362Y339561D01*
X306697Y340140D01*
X307170Y340613D01*
X307749Y340948D01*
X308396Y341121D01*
X314707Y341121D01*
X314707Y333603D01*
X306189Y333603D01*
G37*
%LPD*%
%LPC*%
G36*
X317753Y240539D02*
X317753Y240539D01*
X317753Y248057D01*
X326271Y248057D01*
X326271Y242746D01*
X326098Y242099D01*
X325763Y241520D01*
X325290Y241047D01*
X324711Y240712D01*
X324064Y240539D01*
X317753Y240539D01*
G37*
%LPD*%
%LPC*%
G36*
X527303Y201169D02*
X527303Y201169D01*
X527303Y208687D01*
X535821Y208687D01*
X535821Y203376D01*
X535648Y202729D01*
X535313Y202150D01*
X534840Y201677D01*
X534261Y201342D01*
X533614Y201169D01*
X527303Y201169D01*
G37*
%LPD*%
%LPC*%
G36*
X308396Y240539D02*
X308396Y240539D01*
X307749Y240712D01*
X307170Y241047D01*
X306697Y241520D01*
X306362Y242099D01*
X306189Y242746D01*
X306189Y248057D01*
X314707Y248057D01*
X314707Y240539D01*
X308396Y240539D01*
G37*
%LPD*%
%LPC*%
G36*
X517946Y201169D02*
X517946Y201169D01*
X517299Y201342D01*
X516720Y201677D01*
X516247Y202150D01*
X515912Y202729D01*
X515739Y203376D01*
X515739Y208687D01*
X524257Y208687D01*
X524257Y201169D01*
X517946Y201169D01*
G37*
%LPD*%
%LPC*%
G36*
X825499Y228599D02*
X825499Y228599D01*
X825499Y228601D01*
X825501Y228601D01*
X825501Y228599D01*
X825499Y228599D01*
G37*
%LPD*%
%LPC*%
G36*
X825499Y253999D02*
X825499Y253999D01*
X825499Y254001D01*
X825501Y254001D01*
X825501Y253999D01*
X825499Y253999D01*
G37*
%LPD*%
D10*
X266700Y309245D03*
X266700Y273685D03*
D11*
X316230Y249580D03*
X316230Y268580D03*
X316230Y332080D03*
X316230Y313080D03*
D12*
X586740Y210113D03*
X586740Y231847D03*
X556260Y210113D03*
X556260Y231847D03*
D11*
X525780Y229210D03*
X525780Y210210D03*
D13*
X587400Y304800D03*
X606400Y304800D03*
X587400Y386080D03*
X606400Y386080D03*
D14*
X825500Y228600D03*
X825500Y254000D03*
X825500Y279400D03*
X825500Y304800D03*
X825500Y330200D03*
X825500Y355600D03*
D15*
X207010Y266700D03*
X207010Y292100D03*
X207010Y317500D03*
D13*
X606400Y266700D03*
X587400Y266700D03*
X530200Y381000D03*
X511200Y381000D03*
X606400Y342900D03*
X587400Y342900D03*
D16*
X389382Y251400D03*
X389382Y259400D03*
X389382Y267400D03*
X389382Y275400D03*
X389382Y283400D03*
X389382Y291400D03*
X389382Y299400D03*
X389382Y307400D03*
D17*
X403800Y321818D03*
X411800Y321818D03*
X419800Y321818D03*
X427800Y321818D03*
X435800Y321818D03*
X443800Y321818D03*
X451800Y321818D03*
X459800Y321818D03*
D16*
X474218Y307400D03*
X474218Y299400D03*
X474218Y291400D03*
X474218Y283400D03*
X474218Y275400D03*
X474218Y267400D03*
X474218Y259400D03*
X474218Y251400D03*
D17*
X459800Y236982D03*
X451800Y236982D03*
X443800Y236982D03*
X435800Y236982D03*
X427800Y236982D03*
X419800Y236982D03*
X411800Y236982D03*
X403800Y236982D03*
D18*
X261037Y316437D02*
X261037Y362763D01*
X272363Y362763D01*
X272363Y316437D01*
X261037Y316437D01*
X261037Y320023D02*
X272363Y320023D01*
X272363Y323609D02*
X261037Y323609D01*
X261037Y327195D02*
X272363Y327195D01*
X272363Y330781D02*
X261037Y330781D01*
X261037Y334367D02*
X272363Y334367D01*
X272363Y337953D02*
X261037Y337953D01*
X261037Y341539D02*
X272363Y341539D01*
X272363Y345125D02*
X261037Y345125D01*
X261037Y348711D02*
X272363Y348711D01*
X272363Y352297D02*
X261037Y352297D01*
X261037Y355883D02*
X272363Y355883D01*
X272363Y359469D02*
X261037Y359469D01*
X261037Y267763D02*
X261037Y221437D01*
X261037Y267763D02*
X272363Y267763D01*
X272363Y221437D01*
X261037Y221437D01*
X261037Y225023D02*
X272363Y225023D01*
X272363Y228609D02*
X261037Y228609D01*
X261037Y232195D02*
X272363Y232195D01*
X272363Y235781D02*
X261037Y235781D01*
X261037Y239367D02*
X272363Y239367D01*
X272363Y242953D02*
X261037Y242953D01*
X261037Y246539D02*
X272363Y246539D01*
X272363Y250125D02*
X261037Y250125D01*
X261037Y253711D02*
X272363Y253711D01*
X272363Y257297D02*
X261037Y257297D01*
X261037Y260883D02*
X272363Y260883D01*
X272363Y264469D02*
X261037Y264469D01*
D19*
X367030Y368300D02*
X367030Y383540D01*
X392430Y383540D02*
X392430Y368300D01*
X417830Y368300D02*
X417830Y383540D01*
X443230Y383540D02*
X443230Y368300D01*
X468630Y368300D02*
X468630Y383540D01*
D20*
X757682Y279400D03*
X791718Y279400D03*
D21*
X487680Y204470D03*
X647700Y340360D03*
X736600Y355600D03*
X632460Y287020D03*
X356870Y229870D03*
D22*
X408940Y208280D03*
X224790Y297180D03*
X541020Y276860D03*
X774700Y254000D03*
D23*
X586740Y231847D02*
X585216Y232664D01*
X715264Y280416D02*
X755904Y280416D01*
X757682Y279400D01*
X534416Y229616D02*
X526288Y229616D01*
X550672Y245872D02*
X556768Y239776D01*
X544322Y239522D02*
X535940Y247904D01*
X556768Y239776D02*
X556768Y233680D01*
X526288Y229616D02*
X525780Y229210D01*
X556260Y231847D02*
X556768Y233680D01*
X585216Y233680D02*
X585216Y243840D01*
X581152Y247904D01*
X552704Y247904D01*
X550672Y245872D02*
X544322Y239522D01*
X550672Y245872D02*
X552704Y247904D01*
X585216Y233680D02*
X586740Y231847D01*
X402336Y276352D02*
X390144Y276352D01*
X402336Y276352D02*
X404368Y278384D01*
X404368Y288544D01*
X402336Y290576D01*
X390144Y290576D01*
X390144Y276352D02*
X389382Y275400D01*
X390144Y290576D02*
X389382Y291400D01*
X463296Y300736D02*
X473456Y300736D01*
X463296Y300736D02*
X461264Y298704D01*
X414528Y298704D01*
X404368Y288544D01*
X473456Y300736D02*
X474218Y299400D01*
X496062Y346862D02*
X530200Y381000D01*
X496062Y346862D02*
X496062Y313182D01*
X487680Y304800D02*
X481584Y298704D01*
X487680Y304800D02*
X496062Y313182D01*
X481584Y298704D02*
X475488Y298704D01*
X474218Y299400D01*
X356870Y255270D02*
X350012Y255270D01*
X356870Y255270D02*
X375920Y274320D01*
X388112Y274320D01*
X389382Y275400D01*
X497332Y304800D02*
X535940Y266192D01*
X497332Y304800D02*
X487680Y304800D01*
D21*
X715264Y280416D03*
X350012Y255270D03*
X535940Y247904D03*
D23*
X535940Y266192D01*
X544322Y239522D02*
X534416Y229616D01*
X625094Y312928D02*
X616204Y321818D01*
X511048Y321818D01*
D21*
X625094Y312928D03*
X511048Y321818D03*
D23*
X530606Y355346D02*
X549656Y336296D01*
D21*
X530606Y355346D03*
X549656Y336296D03*
D23*
X207518Y266192D02*
X207010Y266700D01*
X438150Y234219D02*
X438150Y222250D01*
X438150Y234219D02*
X435800Y236982D01*
D21*
X438150Y222250D03*
D23*
X442976Y230886D02*
X442976Y235712D01*
X442976Y230886D02*
X451612Y222250D01*
X442976Y235712D02*
X443800Y236982D01*
X685038Y283718D02*
X685038Y318008D01*
X685038Y283718D02*
X653288Y251968D01*
X595376Y251968D01*
D21*
X451612Y222250D03*
X685038Y318008D03*
X595376Y251968D03*
D23*
X405130Y346202D02*
X294894Y346202D01*
X294640Y346456D01*
X554736Y286512D02*
X613664Y286512D01*
X634238Y307086D01*
X634238Y348742D01*
D21*
X294640Y346456D03*
X405130Y346202D03*
X554736Y286512D03*
X634238Y348742D03*
D23*
X453136Y247904D02*
X453136Y237744D01*
X453136Y247904D02*
X432054Y268986D01*
X406400Y268986D01*
X451800Y236982D02*
X453136Y237744D01*
D21*
X406400Y268986D03*
D23*
X792480Y280416D02*
X824992Y280416D01*
X792480Y280416D02*
X791718Y279400D01*
X824992Y280416D02*
X825500Y279400D01*
X388112Y298704D02*
X355600Y298704D01*
X327152Y270256D01*
X316992Y270256D01*
X388112Y298704D02*
X389382Y299400D01*
X316992Y270256D02*
X316230Y268580D01*
X314960Y270256D02*
X296672Y270256D01*
X272288Y245872D01*
X268224Y245872D01*
X314960Y270256D02*
X316230Y268580D01*
X268224Y245872D02*
X266700Y244600D01*
X382016Y306832D02*
X388112Y306832D01*
X382016Y306832D02*
X379984Y308864D01*
X329184Y308864D01*
X323088Y314960D01*
X316992Y314960D01*
X388112Y306832D02*
X389382Y307400D01*
X316992Y314960D02*
X316230Y313080D01*
X314960Y314960D02*
X282448Y314960D01*
X268224Y329184D01*
X268224Y339344D01*
X314960Y314960D02*
X316230Y313080D01*
X268224Y339344D02*
X266700Y339600D01*
X412496Y235712D02*
X412496Y223520D01*
X447040Y188976D01*
X597408Y188976D01*
X692912Y284480D01*
X692912Y316992D01*
X696976Y321056D01*
X696976Y337820D01*
X677164Y357632D01*
X593344Y357632D01*
X589280Y353568D01*
X589280Y343408D01*
X411800Y236982D02*
X412496Y235712D01*
X587400Y342900D02*
X589280Y343408D01*
X587400Y266700D02*
X588772Y265176D01*
X420624Y235712D02*
X420624Y222250D01*
X449834Y193040D01*
X595376Y193040D01*
X601472Y199136D01*
X601472Y241808D01*
X599440Y243840D01*
X592074Y243840D01*
X587248Y248666D01*
X587248Y266192D01*
X420624Y235712D02*
X419800Y236982D01*
X587248Y266192D02*
X587400Y266700D01*
X824992Y331216D02*
X825500Y330200D01*
X605536Y335280D02*
X605536Y341376D01*
X605536Y335280D02*
X597408Y327152D01*
X579120Y327152D01*
X573024Y333248D01*
X573024Y353568D01*
X581152Y361696D01*
X691388Y361696D01*
X723900Y329184D01*
X824992Y329184D01*
X606400Y342900D02*
X605536Y341376D01*
X824992Y329184D02*
X825500Y330200D01*
X607060Y267208D02*
X606400Y266700D01*
X607568Y266192D02*
X647192Y266192D01*
X671576Y290576D01*
X701040Y290576D02*
X737616Y290576D01*
X751840Y304800D01*
X825500Y304800D01*
X607568Y266192D02*
X606400Y266700D01*
D21*
X671576Y290576D03*
X701040Y290576D03*
D23*
X481584Y284480D02*
X475488Y284480D01*
X481584Y284480D02*
X483616Y282448D01*
X504444Y282448D01*
X507746Y279146D01*
X535686Y291592D02*
X544830Y300736D01*
X583184Y300736D01*
X587248Y304800D01*
X475488Y284480D02*
X474218Y283400D01*
X587248Y304800D02*
X587400Y304800D01*
D21*
X507746Y279146D03*
X535686Y291592D03*
D23*
X607060Y385572D02*
X606400Y386080D01*
X611072Y382016D02*
X772160Y382016D01*
X798576Y355600D01*
X825500Y355600D01*
X611072Y382016D02*
X606400Y386080D01*
X473456Y353568D02*
X473456Y308864D01*
X473456Y353568D02*
X475488Y355600D01*
X475488Y357632D01*
X469392Y363728D01*
X469392Y375920D01*
X473456Y308864D02*
X474218Y307400D01*
X469392Y375920D02*
X468630Y375920D01*
X442976Y335280D02*
X442976Y323088D01*
X442976Y335280D02*
X424688Y353568D01*
X410464Y353568D01*
X394208Y369824D01*
X394208Y375920D01*
X442976Y323088D02*
X443800Y321818D01*
X394208Y375920D02*
X392430Y375920D01*
X451104Y339344D02*
X451104Y323088D01*
X451104Y339344D02*
X426720Y363728D01*
X424688Y363728D01*
X418592Y369824D01*
X418592Y375920D01*
X451104Y323088D02*
X451800Y321818D01*
X418592Y375920D02*
X417830Y375920D01*
X512064Y382016D02*
X512064Y390144D01*
X518160Y396240D01*
X577596Y396240D01*
X587400Y386436D02*
X587400Y386080D01*
X587400Y386436D02*
X577596Y396240D01*
X512064Y382016D02*
X511200Y381000D01*
X428752Y235712D02*
X428752Y220218D01*
X445770Y203200D01*
X482600Y228600D02*
X420624Y290576D01*
X427800Y236982D02*
X428752Y235712D01*
X491744Y382016D02*
X510032Y382016D01*
X491744Y382016D02*
X475488Y398272D01*
X386080Y398272D01*
X375920Y388112D01*
X373888Y388112D01*
X367792Y382016D01*
X367792Y375920D01*
X510032Y382016D02*
X511200Y381000D01*
X367792Y375920D02*
X367030Y375920D01*
D21*
X420624Y290576D03*
D23*
X445770Y203200D02*
X469900Y203200D01*
X482600Y215900D01*
X482600Y228600D01*
X459232Y323088D02*
X459232Y329184D01*
X461264Y331216D01*
X461264Y347472D01*
X445008Y363728D01*
X445008Y375920D01*
X459232Y323088D02*
X459800Y321818D01*
X445008Y375920D02*
X443230Y375920D01*
M02*
