G04 EAGLE Gerber RS-274X export*
G75*
%MOMM*%
%FSLAX34Y34*%
%LPD*%
%INSilkscreen Bottom*%
%IPPOS*%
%AMOC8*
5,1,8,0,0,1.08239X$1,22.5*%
G01*
%ADD10C,0.152400*%
%ADD11C,0.101600*%
%ADD12C,0.076200*%
%ADD13C,0.127000*%

G36*
X413707Y331599D02*
X413707Y331599D01*
X413709Y331598D01*
X413752Y331618D01*
X413796Y331636D01*
X413796Y331638D01*
X413798Y331639D01*
X413831Y331724D01*
X413831Y334264D01*
X413830Y334266D01*
X413831Y334268D01*
X413811Y334311D01*
X413793Y334355D01*
X413791Y334355D01*
X413790Y334357D01*
X413705Y334390D01*
X409895Y334390D01*
X409893Y334389D01*
X409891Y334390D01*
X409848Y334370D01*
X409804Y334352D01*
X409804Y334350D01*
X409802Y334349D01*
X409769Y334264D01*
X409769Y331724D01*
X409770Y331722D01*
X409769Y331720D01*
X409789Y331677D01*
X409807Y331633D01*
X409809Y331633D01*
X409810Y331631D01*
X409895Y331598D01*
X413705Y331598D01*
X413707Y331599D01*
G37*
G36*
X486666Y281370D02*
X486666Y281370D01*
X486668Y281369D01*
X486711Y281389D01*
X486755Y281407D01*
X486755Y281409D01*
X486757Y281410D01*
X486790Y281495D01*
X486790Y285305D01*
X486789Y285307D01*
X486790Y285309D01*
X486770Y285352D01*
X486752Y285396D01*
X486750Y285396D01*
X486749Y285398D01*
X486664Y285431D01*
X484124Y285431D01*
X484122Y285430D01*
X484120Y285431D01*
X484077Y285411D01*
X484033Y285393D01*
X484033Y285391D01*
X484031Y285390D01*
X483998Y285305D01*
X483998Y281495D01*
X483999Y281493D01*
X483998Y281491D01*
X484018Y281448D01*
X484036Y281404D01*
X484038Y281404D01*
X484039Y281402D01*
X484124Y281369D01*
X486664Y281369D01*
X486666Y281370D01*
G37*
G36*
X421707Y224411D02*
X421707Y224411D01*
X421709Y224410D01*
X421752Y224430D01*
X421796Y224448D01*
X421796Y224450D01*
X421798Y224451D01*
X421831Y224536D01*
X421831Y227076D01*
X421830Y227078D01*
X421831Y227080D01*
X421811Y227123D01*
X421793Y227167D01*
X421791Y227167D01*
X421790Y227169D01*
X421705Y227202D01*
X417895Y227202D01*
X417893Y227201D01*
X417891Y227202D01*
X417848Y227182D01*
X417804Y227164D01*
X417804Y227162D01*
X417802Y227161D01*
X417769Y227076D01*
X417769Y224536D01*
X417770Y224534D01*
X417769Y224532D01*
X417789Y224489D01*
X417807Y224445D01*
X417809Y224445D01*
X417810Y224443D01*
X417895Y224410D01*
X421705Y224410D01*
X421707Y224411D01*
G37*
D10*
X304038Y226568D02*
X298619Y218892D01*
X293201Y226568D01*
X298619Y218892D02*
X298619Y210312D01*
X287504Y222956D02*
X282988Y226568D01*
X282988Y210312D01*
X278473Y210312D02*
X287504Y210312D01*
D11*
X329438Y246389D02*
X329438Y248986D01*
X329438Y246389D02*
X329440Y246290D01*
X329446Y246190D01*
X329455Y246091D01*
X329468Y245993D01*
X329485Y245895D01*
X329506Y245797D01*
X329531Y245701D01*
X329559Y245606D01*
X329591Y245512D01*
X329626Y245419D01*
X329665Y245327D01*
X329708Y245237D01*
X329753Y245149D01*
X329803Y245062D01*
X329855Y244978D01*
X329911Y244895D01*
X329969Y244815D01*
X330031Y244737D01*
X330096Y244662D01*
X330164Y244589D01*
X330234Y244519D01*
X330307Y244451D01*
X330382Y244386D01*
X330460Y244324D01*
X330540Y244266D01*
X330623Y244210D01*
X330707Y244158D01*
X330794Y244108D01*
X330882Y244063D01*
X330972Y244020D01*
X331064Y243981D01*
X331157Y243946D01*
X331251Y243914D01*
X331346Y243886D01*
X331442Y243861D01*
X331540Y243840D01*
X331638Y243823D01*
X331736Y243810D01*
X331835Y243801D01*
X331935Y243795D01*
X332034Y243793D01*
X338526Y243793D01*
X338625Y243795D01*
X338725Y243801D01*
X338824Y243810D01*
X338922Y243823D01*
X339020Y243840D01*
X339118Y243861D01*
X339214Y243886D01*
X339309Y243914D01*
X339403Y243946D01*
X339496Y243981D01*
X339588Y244020D01*
X339678Y244063D01*
X339766Y244108D01*
X339853Y244158D01*
X339937Y244210D01*
X340020Y244266D01*
X340100Y244324D01*
X340178Y244386D01*
X340253Y244451D01*
X340326Y244519D01*
X340396Y244589D01*
X340464Y244662D01*
X340529Y244737D01*
X340591Y244815D01*
X340649Y244895D01*
X340705Y244978D01*
X340757Y245062D01*
X340807Y245149D01*
X340852Y245237D01*
X340895Y245327D01*
X340934Y245419D01*
X340969Y245511D01*
X341001Y245606D01*
X341029Y245701D01*
X341054Y245797D01*
X341075Y245895D01*
X341092Y245993D01*
X341105Y246091D01*
X341114Y246190D01*
X341120Y246290D01*
X341122Y246389D01*
X341122Y248986D01*
X338526Y253351D02*
X341122Y256596D01*
X329438Y256596D01*
X329438Y253351D02*
X329438Y259842D01*
X338526Y264781D02*
X341122Y268026D01*
X329438Y268026D01*
X329438Y264781D02*
X329438Y271272D01*
X329438Y312984D02*
X329438Y315581D01*
X329438Y312984D02*
X329440Y312885D01*
X329446Y312785D01*
X329455Y312686D01*
X329468Y312588D01*
X329485Y312490D01*
X329506Y312392D01*
X329531Y312296D01*
X329559Y312201D01*
X329591Y312107D01*
X329626Y312014D01*
X329665Y311922D01*
X329708Y311832D01*
X329753Y311744D01*
X329803Y311657D01*
X329855Y311573D01*
X329911Y311490D01*
X329969Y311410D01*
X330031Y311332D01*
X330096Y311257D01*
X330164Y311184D01*
X330234Y311114D01*
X330307Y311046D01*
X330382Y310981D01*
X330460Y310919D01*
X330540Y310861D01*
X330623Y310805D01*
X330707Y310753D01*
X330794Y310703D01*
X330882Y310658D01*
X330972Y310615D01*
X331064Y310576D01*
X331157Y310541D01*
X331251Y310509D01*
X331346Y310481D01*
X331442Y310456D01*
X331540Y310435D01*
X331638Y310418D01*
X331736Y310405D01*
X331835Y310396D01*
X331935Y310390D01*
X332034Y310388D01*
X338526Y310388D01*
X338625Y310390D01*
X338725Y310396D01*
X338824Y310405D01*
X338922Y310418D01*
X339020Y310435D01*
X339118Y310456D01*
X339214Y310481D01*
X339309Y310509D01*
X339403Y310541D01*
X339496Y310576D01*
X339588Y310615D01*
X339678Y310658D01*
X339766Y310703D01*
X339853Y310753D01*
X339937Y310805D01*
X340020Y310861D01*
X340100Y310919D01*
X340178Y310981D01*
X340253Y311046D01*
X340326Y311114D01*
X340396Y311184D01*
X340464Y311257D01*
X340529Y311332D01*
X340591Y311410D01*
X340649Y311490D01*
X340705Y311573D01*
X340757Y311657D01*
X340807Y311744D01*
X340852Y311832D01*
X340895Y311922D01*
X340934Y312014D01*
X340969Y312106D01*
X341001Y312201D01*
X341029Y312296D01*
X341054Y312392D01*
X341075Y312490D01*
X341092Y312588D01*
X341105Y312686D01*
X341114Y312785D01*
X341120Y312885D01*
X341122Y312984D01*
X341122Y315581D01*
X338526Y319946D02*
X341122Y323192D01*
X329438Y323192D01*
X329438Y326437D02*
X329438Y319946D01*
X341122Y334946D02*
X341120Y335053D01*
X341114Y335159D01*
X341104Y335265D01*
X341091Y335371D01*
X341073Y335477D01*
X341052Y335581D01*
X341027Y335685D01*
X340998Y335788D01*
X340966Y335889D01*
X340929Y335989D01*
X340889Y336088D01*
X340846Y336186D01*
X340799Y336282D01*
X340748Y336376D01*
X340694Y336468D01*
X340637Y336558D01*
X340577Y336646D01*
X340513Y336731D01*
X340446Y336814D01*
X340376Y336895D01*
X340304Y336973D01*
X340228Y337049D01*
X340150Y337121D01*
X340069Y337191D01*
X339986Y337258D01*
X339901Y337322D01*
X339813Y337382D01*
X339723Y337439D01*
X339631Y337493D01*
X339537Y337544D01*
X339441Y337591D01*
X339343Y337634D01*
X339244Y337674D01*
X339144Y337711D01*
X339043Y337743D01*
X338940Y337772D01*
X338836Y337797D01*
X338732Y337818D01*
X338626Y337836D01*
X338520Y337849D01*
X338414Y337859D01*
X338308Y337865D01*
X338201Y337867D01*
X341122Y334946D02*
X341120Y334825D01*
X341114Y334704D01*
X341104Y334584D01*
X341091Y334463D01*
X341073Y334344D01*
X341052Y334224D01*
X341027Y334106D01*
X340998Y333989D01*
X340965Y333872D01*
X340929Y333757D01*
X340888Y333643D01*
X340845Y333530D01*
X340797Y333418D01*
X340746Y333309D01*
X340691Y333201D01*
X340633Y333094D01*
X340572Y332990D01*
X340507Y332888D01*
X340439Y332788D01*
X340368Y332690D01*
X340294Y332594D01*
X340217Y332501D01*
X340136Y332411D01*
X340053Y332323D01*
X339967Y332238D01*
X339878Y332155D01*
X339787Y332076D01*
X339693Y331999D01*
X339597Y331926D01*
X339499Y331856D01*
X339398Y331789D01*
X339295Y331725D01*
X339190Y331665D01*
X339083Y331608D01*
X338975Y331554D01*
X338865Y331504D01*
X338753Y331458D01*
X338640Y331415D01*
X338525Y331376D01*
X335929Y336894D02*
X336006Y336973D01*
X336087Y337049D01*
X336170Y337122D01*
X336255Y337192D01*
X336343Y337259D01*
X336433Y337323D01*
X336525Y337383D01*
X336620Y337440D01*
X336716Y337494D01*
X336814Y337545D01*
X336914Y337592D01*
X337016Y337636D01*
X337119Y337676D01*
X337223Y337712D01*
X337329Y337744D01*
X337435Y337773D01*
X337543Y337798D01*
X337651Y337820D01*
X337761Y337837D01*
X337870Y337851D01*
X337980Y337860D01*
X338091Y337866D01*
X338201Y337868D01*
X335929Y336894D02*
X329438Y331376D01*
X329438Y337867D01*
D10*
X576580Y239268D02*
X576580Y202692D01*
X596900Y202692D02*
X596900Y239268D01*
D12*
X625503Y205105D02*
X628156Y205105D01*
X628258Y205107D01*
X628359Y205113D01*
X628460Y205123D01*
X628561Y205136D01*
X628661Y205154D01*
X628760Y205175D01*
X628859Y205200D01*
X628956Y205229D01*
X629053Y205261D01*
X629148Y205297D01*
X629241Y205337D01*
X629333Y205380D01*
X629423Y205427D01*
X629512Y205478D01*
X629598Y205531D01*
X629682Y205588D01*
X629764Y205648D01*
X629844Y205711D01*
X629921Y205777D01*
X629996Y205846D01*
X630068Y205918D01*
X630137Y205993D01*
X630203Y206070D01*
X630266Y206150D01*
X630326Y206232D01*
X630383Y206316D01*
X630436Y206402D01*
X630487Y206491D01*
X630534Y206581D01*
X630577Y206673D01*
X630617Y206766D01*
X630653Y206861D01*
X630685Y206958D01*
X630714Y207055D01*
X630739Y207154D01*
X630760Y207253D01*
X630778Y207353D01*
X630791Y207454D01*
X630801Y207555D01*
X630807Y207656D01*
X630809Y207758D01*
X630809Y214390D01*
X630807Y214492D01*
X630801Y214593D01*
X630791Y214694D01*
X630778Y214795D01*
X630760Y214895D01*
X630739Y214994D01*
X630714Y215093D01*
X630685Y215190D01*
X630653Y215287D01*
X630617Y215382D01*
X630577Y215475D01*
X630534Y215567D01*
X630487Y215657D01*
X630436Y215746D01*
X630383Y215832D01*
X630326Y215916D01*
X630266Y215998D01*
X630203Y216078D01*
X630137Y216155D01*
X630068Y216230D01*
X629996Y216302D01*
X629921Y216371D01*
X629844Y216437D01*
X629764Y216500D01*
X629682Y216560D01*
X629598Y216617D01*
X629512Y216670D01*
X629423Y216721D01*
X629333Y216768D01*
X629241Y216811D01*
X629148Y216851D01*
X629053Y216887D01*
X628956Y216919D01*
X628859Y216948D01*
X628760Y216973D01*
X628661Y216994D01*
X628561Y217012D01*
X628460Y217025D01*
X628359Y217035D01*
X628258Y217041D01*
X628156Y217043D01*
X625503Y217043D01*
X621255Y214390D02*
X617939Y217043D01*
X617939Y205105D01*
X621255Y205105D02*
X614623Y205105D01*
X609825Y205105D02*
X606509Y205105D01*
X606395Y205107D01*
X606280Y205113D01*
X606166Y205123D01*
X606053Y205137D01*
X605939Y205154D01*
X605827Y205176D01*
X605715Y205201D01*
X605605Y205231D01*
X605495Y205264D01*
X605387Y205301D01*
X605280Y205341D01*
X605174Y205386D01*
X605070Y205433D01*
X604968Y205485D01*
X604868Y205540D01*
X604769Y205598D01*
X604673Y205660D01*
X604578Y205725D01*
X604487Y205793D01*
X604397Y205865D01*
X604310Y205939D01*
X604226Y206016D01*
X604144Y206097D01*
X604065Y206180D01*
X603989Y206265D01*
X603916Y206354D01*
X603847Y206444D01*
X603780Y206537D01*
X603717Y206633D01*
X603657Y206730D01*
X603600Y206830D01*
X603547Y206931D01*
X603497Y207034D01*
X603451Y207139D01*
X603408Y207245D01*
X603370Y207353D01*
X603335Y207462D01*
X603304Y207572D01*
X603276Y207683D01*
X603253Y207795D01*
X603233Y207908D01*
X603217Y208021D01*
X603205Y208135D01*
X603197Y208249D01*
X603193Y208364D01*
X603193Y208478D01*
X603197Y208593D01*
X603205Y208707D01*
X603217Y208821D01*
X603233Y208934D01*
X603253Y209047D01*
X603276Y209159D01*
X603304Y209270D01*
X603335Y209380D01*
X603370Y209489D01*
X603408Y209597D01*
X603451Y209703D01*
X603497Y209808D01*
X603547Y209911D01*
X603600Y210012D01*
X603657Y210112D01*
X603717Y210209D01*
X603780Y210305D01*
X603847Y210398D01*
X603916Y210488D01*
X603989Y210577D01*
X604065Y210662D01*
X604144Y210745D01*
X604226Y210826D01*
X604310Y210903D01*
X604397Y210977D01*
X604487Y211049D01*
X604578Y211117D01*
X604673Y211182D01*
X604769Y211244D01*
X604868Y211302D01*
X604968Y211357D01*
X605070Y211409D01*
X605174Y211456D01*
X605280Y211501D01*
X605387Y211541D01*
X605495Y211578D01*
X605605Y211611D01*
X605715Y211641D01*
X605827Y211666D01*
X605939Y211688D01*
X606053Y211705D01*
X606166Y211719D01*
X606280Y211729D01*
X606395Y211735D01*
X606509Y211737D01*
X605846Y217043D02*
X609825Y217043D01*
X605846Y217043D02*
X605744Y217041D01*
X605643Y217035D01*
X605542Y217025D01*
X605441Y217012D01*
X605341Y216994D01*
X605242Y216973D01*
X605143Y216948D01*
X605046Y216919D01*
X604949Y216887D01*
X604854Y216851D01*
X604761Y216811D01*
X604669Y216768D01*
X604579Y216721D01*
X604490Y216670D01*
X604404Y216617D01*
X604320Y216560D01*
X604238Y216500D01*
X604158Y216437D01*
X604081Y216371D01*
X604006Y216302D01*
X603934Y216230D01*
X603865Y216155D01*
X603799Y216078D01*
X603736Y215998D01*
X603676Y215916D01*
X603619Y215832D01*
X603566Y215746D01*
X603515Y215657D01*
X603468Y215567D01*
X603425Y215475D01*
X603385Y215382D01*
X603349Y215287D01*
X603317Y215190D01*
X603288Y215093D01*
X603263Y214994D01*
X603242Y214895D01*
X603224Y214795D01*
X603211Y214694D01*
X603201Y214593D01*
X603195Y214492D01*
X603193Y214390D01*
X603195Y214288D01*
X603201Y214187D01*
X603211Y214086D01*
X603224Y213985D01*
X603242Y213885D01*
X603263Y213786D01*
X603288Y213687D01*
X603317Y213590D01*
X603349Y213493D01*
X603385Y213398D01*
X603425Y213305D01*
X603468Y213213D01*
X603515Y213123D01*
X603566Y213034D01*
X603619Y212948D01*
X603676Y212864D01*
X603736Y212782D01*
X603799Y212702D01*
X603865Y212625D01*
X603934Y212550D01*
X604006Y212478D01*
X604081Y212409D01*
X604158Y212343D01*
X604238Y212280D01*
X604320Y212220D01*
X604404Y212163D01*
X604490Y212110D01*
X604579Y212059D01*
X604669Y212012D01*
X604761Y211969D01*
X604854Y211929D01*
X604949Y211893D01*
X605046Y211861D01*
X605143Y211832D01*
X605242Y211807D01*
X605341Y211786D01*
X605441Y211768D01*
X605542Y211755D01*
X605643Y211745D01*
X605744Y211739D01*
X605846Y211737D01*
X608499Y211737D01*
D10*
X546100Y202692D02*
X546100Y239268D01*
X566420Y239268D02*
X566420Y202692D01*
D12*
X569623Y244475D02*
X572276Y244475D01*
X572378Y244477D01*
X572479Y244483D01*
X572580Y244493D01*
X572681Y244506D01*
X572781Y244524D01*
X572880Y244545D01*
X572979Y244570D01*
X573076Y244599D01*
X573173Y244631D01*
X573268Y244667D01*
X573361Y244707D01*
X573453Y244750D01*
X573543Y244797D01*
X573632Y244848D01*
X573718Y244901D01*
X573802Y244958D01*
X573884Y245018D01*
X573964Y245081D01*
X574041Y245147D01*
X574116Y245216D01*
X574188Y245288D01*
X574257Y245363D01*
X574323Y245440D01*
X574386Y245520D01*
X574446Y245602D01*
X574503Y245686D01*
X574556Y245772D01*
X574607Y245861D01*
X574654Y245951D01*
X574697Y246043D01*
X574737Y246136D01*
X574773Y246231D01*
X574805Y246328D01*
X574834Y246425D01*
X574859Y246524D01*
X574880Y246623D01*
X574898Y246723D01*
X574911Y246824D01*
X574921Y246925D01*
X574927Y247026D01*
X574929Y247128D01*
X574929Y253760D01*
X574927Y253862D01*
X574921Y253963D01*
X574911Y254064D01*
X574898Y254165D01*
X574880Y254265D01*
X574859Y254364D01*
X574834Y254463D01*
X574805Y254560D01*
X574773Y254657D01*
X574737Y254752D01*
X574697Y254845D01*
X574654Y254937D01*
X574607Y255027D01*
X574556Y255116D01*
X574503Y255202D01*
X574446Y255286D01*
X574386Y255368D01*
X574323Y255448D01*
X574257Y255525D01*
X574188Y255600D01*
X574116Y255672D01*
X574041Y255741D01*
X573964Y255807D01*
X573884Y255870D01*
X573802Y255930D01*
X573718Y255987D01*
X573632Y256040D01*
X573543Y256091D01*
X573453Y256138D01*
X573361Y256181D01*
X573268Y256221D01*
X573173Y256257D01*
X573076Y256289D01*
X572979Y256318D01*
X572880Y256343D01*
X572781Y256364D01*
X572681Y256382D01*
X572580Y256395D01*
X572479Y256405D01*
X572378Y256411D01*
X572276Y256413D01*
X569623Y256413D01*
X565375Y253760D02*
X562059Y256413D01*
X562059Y244475D01*
X565375Y244475D02*
X558743Y244475D01*
X553945Y247128D02*
X551292Y256413D01*
X553945Y247128D02*
X547313Y247128D01*
X549303Y249781D02*
X549303Y244475D01*
D11*
X511246Y216408D02*
X508649Y216408D01*
X511246Y216408D02*
X511345Y216410D01*
X511445Y216416D01*
X511544Y216425D01*
X511642Y216438D01*
X511740Y216455D01*
X511838Y216476D01*
X511934Y216501D01*
X512029Y216529D01*
X512123Y216561D01*
X512216Y216596D01*
X512308Y216635D01*
X512398Y216678D01*
X512486Y216723D01*
X512573Y216773D01*
X512657Y216825D01*
X512740Y216881D01*
X512820Y216939D01*
X512898Y217001D01*
X512973Y217066D01*
X513046Y217134D01*
X513116Y217204D01*
X513184Y217277D01*
X513249Y217352D01*
X513311Y217430D01*
X513369Y217510D01*
X513425Y217593D01*
X513477Y217677D01*
X513527Y217764D01*
X513572Y217852D01*
X513615Y217942D01*
X513654Y218034D01*
X513689Y218127D01*
X513721Y218221D01*
X513749Y218316D01*
X513774Y218412D01*
X513795Y218510D01*
X513812Y218608D01*
X513825Y218706D01*
X513834Y218805D01*
X513840Y218905D01*
X513842Y219004D01*
X513842Y225496D01*
X513840Y225595D01*
X513834Y225695D01*
X513825Y225794D01*
X513812Y225892D01*
X513795Y225990D01*
X513774Y226088D01*
X513749Y226184D01*
X513721Y226279D01*
X513689Y226373D01*
X513654Y226466D01*
X513615Y226558D01*
X513572Y226648D01*
X513527Y226736D01*
X513477Y226823D01*
X513425Y226907D01*
X513369Y226990D01*
X513311Y227070D01*
X513249Y227148D01*
X513184Y227223D01*
X513116Y227296D01*
X513046Y227366D01*
X512973Y227434D01*
X512898Y227499D01*
X512820Y227561D01*
X512740Y227619D01*
X512657Y227675D01*
X512573Y227727D01*
X512486Y227777D01*
X512398Y227822D01*
X512308Y227865D01*
X512216Y227904D01*
X512123Y227939D01*
X512029Y227971D01*
X511934Y227999D01*
X511838Y228024D01*
X511740Y228045D01*
X511642Y228062D01*
X511544Y228075D01*
X511445Y228084D01*
X511345Y228090D01*
X511246Y228092D01*
X508649Y228092D01*
X504284Y225496D02*
X501038Y228092D01*
X501038Y216408D01*
X497793Y216408D02*
X504284Y216408D01*
X492854Y216408D02*
X488959Y216408D01*
X488860Y216410D01*
X488760Y216416D01*
X488661Y216425D01*
X488563Y216438D01*
X488465Y216455D01*
X488367Y216476D01*
X488271Y216501D01*
X488176Y216529D01*
X488082Y216561D01*
X487989Y216596D01*
X487897Y216635D01*
X487807Y216678D01*
X487719Y216723D01*
X487632Y216773D01*
X487548Y216825D01*
X487465Y216881D01*
X487385Y216939D01*
X487307Y217001D01*
X487232Y217066D01*
X487159Y217134D01*
X487089Y217204D01*
X487021Y217277D01*
X486956Y217352D01*
X486894Y217430D01*
X486836Y217510D01*
X486780Y217593D01*
X486728Y217677D01*
X486678Y217764D01*
X486633Y217852D01*
X486590Y217942D01*
X486551Y218034D01*
X486516Y218127D01*
X486484Y218221D01*
X486456Y218316D01*
X486431Y218412D01*
X486410Y218510D01*
X486393Y218608D01*
X486380Y218706D01*
X486371Y218805D01*
X486365Y218905D01*
X486363Y219004D01*
X486363Y220303D01*
X486365Y220402D01*
X486371Y220502D01*
X486380Y220601D01*
X486393Y220699D01*
X486410Y220797D01*
X486431Y220895D01*
X486456Y220991D01*
X486484Y221086D01*
X486516Y221180D01*
X486551Y221273D01*
X486590Y221365D01*
X486633Y221455D01*
X486678Y221543D01*
X486728Y221630D01*
X486780Y221714D01*
X486836Y221797D01*
X486894Y221877D01*
X486956Y221955D01*
X487021Y222030D01*
X487089Y222103D01*
X487159Y222173D01*
X487232Y222241D01*
X487307Y222306D01*
X487385Y222368D01*
X487465Y222426D01*
X487548Y222482D01*
X487632Y222534D01*
X487719Y222584D01*
X487807Y222629D01*
X487897Y222672D01*
X487989Y222711D01*
X488082Y222746D01*
X488176Y222778D01*
X488271Y222806D01*
X488367Y222831D01*
X488465Y222852D01*
X488563Y222869D01*
X488661Y222882D01*
X488760Y222891D01*
X488860Y222897D01*
X488959Y222899D01*
X492854Y222899D01*
X492854Y228092D01*
X486363Y228092D01*
X567624Y298958D02*
X570221Y298958D01*
X570320Y298960D01*
X570420Y298966D01*
X570519Y298975D01*
X570617Y298988D01*
X570715Y299005D01*
X570813Y299026D01*
X570909Y299051D01*
X571004Y299079D01*
X571098Y299111D01*
X571191Y299146D01*
X571283Y299185D01*
X571373Y299228D01*
X571461Y299273D01*
X571548Y299323D01*
X571632Y299375D01*
X571715Y299431D01*
X571795Y299489D01*
X571873Y299551D01*
X571948Y299616D01*
X572021Y299684D01*
X572091Y299754D01*
X572159Y299827D01*
X572224Y299902D01*
X572286Y299980D01*
X572344Y300060D01*
X572400Y300143D01*
X572452Y300227D01*
X572502Y300314D01*
X572547Y300402D01*
X572590Y300492D01*
X572629Y300584D01*
X572664Y300677D01*
X572696Y300771D01*
X572724Y300866D01*
X572749Y300962D01*
X572770Y301060D01*
X572787Y301158D01*
X572800Y301256D01*
X572809Y301355D01*
X572815Y301455D01*
X572817Y301554D01*
X572817Y308046D01*
X572815Y308145D01*
X572809Y308245D01*
X572800Y308344D01*
X572787Y308442D01*
X572770Y308540D01*
X572749Y308638D01*
X572724Y308734D01*
X572696Y308829D01*
X572664Y308923D01*
X572629Y309016D01*
X572590Y309108D01*
X572547Y309198D01*
X572502Y309286D01*
X572452Y309373D01*
X572400Y309457D01*
X572344Y309540D01*
X572286Y309620D01*
X572224Y309698D01*
X572159Y309773D01*
X572091Y309846D01*
X572021Y309916D01*
X571948Y309984D01*
X571873Y310049D01*
X571795Y310111D01*
X571715Y310169D01*
X571632Y310225D01*
X571548Y310277D01*
X571461Y310327D01*
X571373Y310372D01*
X571283Y310415D01*
X571191Y310454D01*
X571098Y310489D01*
X571004Y310521D01*
X570909Y310549D01*
X570813Y310574D01*
X570715Y310595D01*
X570617Y310612D01*
X570519Y310625D01*
X570420Y310634D01*
X570320Y310640D01*
X570221Y310642D01*
X567624Y310642D01*
X563259Y308046D02*
X560014Y310642D01*
X560014Y298958D01*
X563259Y298958D02*
X556768Y298958D01*
X551829Y305449D02*
X547934Y305449D01*
X547835Y305447D01*
X547735Y305441D01*
X547636Y305432D01*
X547538Y305419D01*
X547440Y305402D01*
X547342Y305381D01*
X547246Y305356D01*
X547151Y305328D01*
X547057Y305296D01*
X546964Y305261D01*
X546872Y305222D01*
X546782Y305179D01*
X546694Y305134D01*
X546607Y305084D01*
X546523Y305032D01*
X546440Y304976D01*
X546360Y304918D01*
X546282Y304856D01*
X546207Y304791D01*
X546134Y304723D01*
X546064Y304653D01*
X545996Y304580D01*
X545931Y304505D01*
X545869Y304427D01*
X545811Y304347D01*
X545755Y304264D01*
X545703Y304180D01*
X545653Y304093D01*
X545608Y304005D01*
X545565Y303915D01*
X545526Y303823D01*
X545491Y303730D01*
X545459Y303636D01*
X545431Y303541D01*
X545406Y303445D01*
X545385Y303347D01*
X545368Y303249D01*
X545355Y303151D01*
X545346Y303052D01*
X545340Y302952D01*
X545338Y302853D01*
X545338Y302204D01*
X545340Y302091D01*
X545346Y301978D01*
X545356Y301865D01*
X545370Y301752D01*
X545387Y301640D01*
X545409Y301529D01*
X545434Y301419D01*
X545464Y301309D01*
X545497Y301201D01*
X545534Y301094D01*
X545574Y300988D01*
X545619Y300884D01*
X545667Y300781D01*
X545718Y300680D01*
X545773Y300581D01*
X545831Y300484D01*
X545893Y300389D01*
X545958Y300296D01*
X546026Y300206D01*
X546097Y300118D01*
X546172Y300032D01*
X546249Y299949D01*
X546329Y299869D01*
X546412Y299792D01*
X546498Y299717D01*
X546586Y299646D01*
X546676Y299578D01*
X546769Y299513D01*
X546864Y299451D01*
X546961Y299393D01*
X547060Y299338D01*
X547161Y299287D01*
X547264Y299239D01*
X547368Y299194D01*
X547474Y299154D01*
X547581Y299117D01*
X547689Y299084D01*
X547799Y299054D01*
X547909Y299029D01*
X548020Y299007D01*
X548132Y298990D01*
X548245Y298976D01*
X548358Y298966D01*
X548471Y298960D01*
X548584Y298958D01*
X548697Y298960D01*
X548810Y298966D01*
X548923Y298976D01*
X549036Y298990D01*
X549148Y299007D01*
X549259Y299029D01*
X549369Y299054D01*
X549479Y299084D01*
X549587Y299117D01*
X549694Y299154D01*
X549800Y299194D01*
X549904Y299239D01*
X550007Y299287D01*
X550108Y299338D01*
X550207Y299393D01*
X550304Y299451D01*
X550399Y299513D01*
X550492Y299578D01*
X550582Y299646D01*
X550670Y299717D01*
X550756Y299792D01*
X550839Y299869D01*
X550919Y299949D01*
X550996Y300032D01*
X551071Y300118D01*
X551142Y300206D01*
X551210Y300296D01*
X551275Y300389D01*
X551337Y300484D01*
X551395Y300581D01*
X551450Y300680D01*
X551501Y300781D01*
X551549Y300884D01*
X551594Y300988D01*
X551634Y301094D01*
X551671Y301201D01*
X551704Y301309D01*
X551734Y301419D01*
X551759Y301529D01*
X551781Y301640D01*
X551798Y301752D01*
X551812Y301865D01*
X551822Y301978D01*
X551828Y302091D01*
X551830Y302204D01*
X551829Y302204D02*
X551829Y305449D01*
X551827Y305592D01*
X551821Y305735D01*
X551811Y305878D01*
X551797Y306020D01*
X551780Y306162D01*
X551758Y306304D01*
X551733Y306445D01*
X551703Y306585D01*
X551670Y306724D01*
X551633Y306862D01*
X551592Y306999D01*
X551548Y307135D01*
X551499Y307270D01*
X551447Y307403D01*
X551392Y307535D01*
X551332Y307665D01*
X551269Y307794D01*
X551203Y307921D01*
X551133Y308046D01*
X551060Y308168D01*
X550983Y308289D01*
X550903Y308408D01*
X550820Y308524D01*
X550734Y308639D01*
X550645Y308750D01*
X550552Y308860D01*
X550457Y308966D01*
X550358Y309070D01*
X550257Y309171D01*
X550153Y309270D01*
X550047Y309365D01*
X549937Y309458D01*
X549826Y309547D01*
X549711Y309633D01*
X549595Y309716D01*
X549476Y309796D01*
X549355Y309873D01*
X549233Y309946D01*
X549108Y310016D01*
X548981Y310082D01*
X548852Y310145D01*
X548722Y310205D01*
X548590Y310260D01*
X548457Y310312D01*
X548322Y310361D01*
X548186Y310405D01*
X548049Y310446D01*
X547911Y310483D01*
X547772Y310516D01*
X547632Y310546D01*
X547491Y310571D01*
X547349Y310593D01*
X547207Y310610D01*
X547065Y310624D01*
X546922Y310634D01*
X546779Y310640D01*
X546636Y310642D01*
X643824Y378968D02*
X646421Y378968D01*
X646520Y378970D01*
X646620Y378976D01*
X646719Y378985D01*
X646817Y378998D01*
X646915Y379015D01*
X647013Y379036D01*
X647109Y379061D01*
X647204Y379089D01*
X647298Y379121D01*
X647391Y379156D01*
X647483Y379195D01*
X647573Y379238D01*
X647661Y379283D01*
X647748Y379333D01*
X647832Y379385D01*
X647915Y379441D01*
X647995Y379499D01*
X648073Y379561D01*
X648148Y379626D01*
X648221Y379694D01*
X648291Y379764D01*
X648359Y379837D01*
X648424Y379912D01*
X648486Y379990D01*
X648544Y380070D01*
X648600Y380153D01*
X648652Y380237D01*
X648702Y380324D01*
X648747Y380412D01*
X648790Y380502D01*
X648829Y380594D01*
X648864Y380687D01*
X648896Y380781D01*
X648924Y380876D01*
X648949Y380972D01*
X648970Y381070D01*
X648987Y381168D01*
X649000Y381266D01*
X649009Y381365D01*
X649015Y381465D01*
X649017Y381564D01*
X649017Y388056D01*
X649015Y388155D01*
X649009Y388255D01*
X649000Y388354D01*
X648987Y388452D01*
X648970Y388550D01*
X648949Y388648D01*
X648924Y388744D01*
X648896Y388839D01*
X648864Y388933D01*
X648829Y389026D01*
X648790Y389118D01*
X648747Y389208D01*
X648702Y389296D01*
X648652Y389383D01*
X648600Y389467D01*
X648544Y389550D01*
X648486Y389630D01*
X648424Y389708D01*
X648359Y389783D01*
X648291Y389856D01*
X648221Y389926D01*
X648148Y389994D01*
X648073Y390059D01*
X647995Y390121D01*
X647915Y390179D01*
X647832Y390235D01*
X647748Y390287D01*
X647661Y390337D01*
X647573Y390382D01*
X647483Y390425D01*
X647391Y390464D01*
X647298Y390499D01*
X647204Y390531D01*
X647109Y390559D01*
X647013Y390584D01*
X646915Y390605D01*
X646817Y390622D01*
X646719Y390635D01*
X646620Y390644D01*
X646520Y390650D01*
X646421Y390652D01*
X643824Y390652D01*
X639459Y388056D02*
X636214Y390652D01*
X636214Y378968D01*
X639459Y378968D02*
X632968Y378968D01*
X628029Y389354D02*
X628029Y390652D01*
X621538Y390652D01*
X624784Y378968D01*
X577342Y272542D02*
X577342Y260858D01*
X577342Y272542D02*
X574096Y272542D01*
X573983Y272540D01*
X573870Y272534D01*
X573757Y272524D01*
X573644Y272510D01*
X573532Y272493D01*
X573421Y272471D01*
X573311Y272446D01*
X573201Y272416D01*
X573093Y272383D01*
X572986Y272346D01*
X572880Y272306D01*
X572776Y272261D01*
X572673Y272213D01*
X572572Y272162D01*
X572473Y272107D01*
X572376Y272049D01*
X572281Y271987D01*
X572188Y271922D01*
X572098Y271854D01*
X572010Y271783D01*
X571924Y271708D01*
X571841Y271631D01*
X571761Y271551D01*
X571684Y271468D01*
X571609Y271382D01*
X571538Y271294D01*
X571470Y271204D01*
X571405Y271111D01*
X571343Y271016D01*
X571285Y270919D01*
X571230Y270820D01*
X571179Y270719D01*
X571131Y270616D01*
X571086Y270512D01*
X571046Y270406D01*
X571009Y270299D01*
X570976Y270191D01*
X570946Y270081D01*
X570921Y269971D01*
X570899Y269860D01*
X570882Y269748D01*
X570868Y269635D01*
X570858Y269522D01*
X570852Y269409D01*
X570850Y269296D01*
X570852Y269183D01*
X570858Y269070D01*
X570868Y268957D01*
X570882Y268844D01*
X570899Y268732D01*
X570921Y268621D01*
X570946Y268511D01*
X570976Y268401D01*
X571009Y268293D01*
X571046Y268186D01*
X571086Y268080D01*
X571131Y267976D01*
X571179Y267873D01*
X571230Y267772D01*
X571285Y267673D01*
X571343Y267576D01*
X571405Y267481D01*
X571470Y267388D01*
X571538Y267298D01*
X571609Y267210D01*
X571684Y267124D01*
X571761Y267041D01*
X571841Y266961D01*
X571924Y266884D01*
X572010Y266809D01*
X572098Y266738D01*
X572188Y266670D01*
X572281Y266605D01*
X572376Y266543D01*
X572473Y266485D01*
X572572Y266430D01*
X572673Y266379D01*
X572776Y266331D01*
X572880Y266286D01*
X572986Y266246D01*
X573093Y266209D01*
X573201Y266176D01*
X573311Y266146D01*
X573421Y266121D01*
X573532Y266099D01*
X573644Y266082D01*
X573757Y266068D01*
X573870Y266058D01*
X573983Y266052D01*
X574096Y266050D01*
X574096Y266051D02*
X577342Y266051D01*
X573447Y266051D02*
X570851Y260858D01*
X565986Y269946D02*
X562740Y272542D01*
X562740Y260858D01*
X559495Y260858D02*
X565986Y260858D01*
X554556Y266700D02*
X554553Y266930D01*
X554545Y267160D01*
X554531Y267389D01*
X554512Y267618D01*
X554487Y267847D01*
X554457Y268075D01*
X554422Y268302D01*
X554381Y268528D01*
X554335Y268753D01*
X554283Y268977D01*
X554226Y269200D01*
X554164Y269421D01*
X554096Y269641D01*
X554023Y269859D01*
X553945Y270075D01*
X553862Y270289D01*
X553774Y270502D01*
X553681Y270712D01*
X553582Y270919D01*
X553549Y271009D01*
X553513Y271098D01*
X553473Y271186D01*
X553429Y271271D01*
X553382Y271355D01*
X553332Y271437D01*
X553278Y271517D01*
X553222Y271594D01*
X553162Y271670D01*
X553099Y271743D01*
X553034Y271813D01*
X552965Y271881D01*
X552894Y271945D01*
X552821Y272007D01*
X552745Y272066D01*
X552667Y272122D01*
X552586Y272175D01*
X552504Y272224D01*
X552420Y272270D01*
X552333Y272313D01*
X552246Y272352D01*
X552156Y272388D01*
X552066Y272420D01*
X551974Y272448D01*
X551881Y272473D01*
X551787Y272494D01*
X551693Y272511D01*
X551598Y272525D01*
X551502Y272534D01*
X551406Y272540D01*
X551310Y272542D01*
X551214Y272540D01*
X551118Y272534D01*
X551022Y272525D01*
X550927Y272511D01*
X550833Y272494D01*
X550739Y272473D01*
X550646Y272448D01*
X550554Y272420D01*
X550464Y272388D01*
X550374Y272352D01*
X550287Y272313D01*
X550200Y272270D01*
X550116Y272224D01*
X550034Y272175D01*
X549953Y272122D01*
X549875Y272066D01*
X549799Y272007D01*
X549726Y271945D01*
X549655Y271881D01*
X549586Y271813D01*
X549521Y271743D01*
X549458Y271670D01*
X549398Y271595D01*
X549342Y271517D01*
X549288Y271437D01*
X549238Y271355D01*
X549191Y271271D01*
X549148Y271186D01*
X549107Y271098D01*
X549071Y271009D01*
X549038Y270919D01*
X549039Y270919D02*
X548940Y270711D01*
X548847Y270501D01*
X548759Y270289D01*
X548676Y270075D01*
X548598Y269858D01*
X548525Y269640D01*
X548457Y269421D01*
X548395Y269199D01*
X548338Y268977D01*
X548286Y268753D01*
X548240Y268528D01*
X548199Y268302D01*
X548164Y268074D01*
X548134Y267847D01*
X548109Y267618D01*
X548090Y267389D01*
X548076Y267160D01*
X548068Y266930D01*
X548065Y266700D01*
X554556Y266700D02*
X554553Y266470D01*
X554545Y266240D01*
X554531Y266011D01*
X554512Y265782D01*
X554487Y265553D01*
X554457Y265325D01*
X554422Y265098D01*
X554381Y264872D01*
X554335Y264647D01*
X554283Y264423D01*
X554226Y264200D01*
X554164Y263979D01*
X554096Y263759D01*
X554023Y263541D01*
X553945Y263325D01*
X553862Y263111D01*
X553774Y262899D01*
X553681Y262688D01*
X553582Y262481D01*
X553549Y262391D01*
X553513Y262302D01*
X553472Y262214D01*
X553429Y262129D01*
X553382Y262045D01*
X553332Y261963D01*
X553278Y261883D01*
X553222Y261806D01*
X553162Y261730D01*
X553099Y261657D01*
X553034Y261587D01*
X552965Y261519D01*
X552894Y261455D01*
X552821Y261393D01*
X552745Y261334D01*
X552667Y261278D01*
X552586Y261225D01*
X552504Y261176D01*
X552420Y261130D01*
X552333Y261087D01*
X552246Y261048D01*
X552156Y261012D01*
X552066Y260980D01*
X551974Y260952D01*
X551881Y260927D01*
X551787Y260906D01*
X551693Y260889D01*
X551598Y260875D01*
X551502Y260866D01*
X551406Y260860D01*
X551310Y260858D01*
X549038Y262481D02*
X548939Y262688D01*
X548846Y262899D01*
X548758Y263111D01*
X548675Y263325D01*
X548597Y263541D01*
X548524Y263759D01*
X548456Y263979D01*
X548394Y264200D01*
X548337Y264423D01*
X548285Y264647D01*
X548239Y264872D01*
X548198Y265098D01*
X548163Y265325D01*
X548133Y265553D01*
X548108Y265782D01*
X548089Y266011D01*
X548075Y266240D01*
X548067Y266470D01*
X548064Y266700D01*
X549038Y262481D02*
X549071Y262391D01*
X549107Y262302D01*
X549148Y262214D01*
X549191Y262129D01*
X549238Y262045D01*
X549288Y261963D01*
X549342Y261883D01*
X549398Y261805D01*
X549458Y261730D01*
X549521Y261657D01*
X549586Y261587D01*
X549655Y261519D01*
X549726Y261455D01*
X549799Y261393D01*
X549875Y261334D01*
X549953Y261278D01*
X550034Y261225D01*
X550116Y261176D01*
X550200Y261130D01*
X550287Y261087D01*
X550374Y261048D01*
X550464Y261012D01*
X550554Y260980D01*
X550646Y260952D01*
X550739Y260927D01*
X550833Y260906D01*
X550927Y260889D01*
X551022Y260875D01*
X551118Y260866D01*
X551214Y260860D01*
X551310Y260858D01*
X553907Y263454D02*
X548714Y269946D01*
X522732Y356108D02*
X522732Y367792D01*
X519486Y367792D01*
X519373Y367790D01*
X519260Y367784D01*
X519147Y367774D01*
X519034Y367760D01*
X518922Y367743D01*
X518811Y367721D01*
X518701Y367696D01*
X518591Y367666D01*
X518483Y367633D01*
X518376Y367596D01*
X518270Y367556D01*
X518166Y367511D01*
X518063Y367463D01*
X517962Y367412D01*
X517863Y367357D01*
X517766Y367299D01*
X517671Y367237D01*
X517578Y367172D01*
X517488Y367104D01*
X517400Y367033D01*
X517314Y366958D01*
X517231Y366881D01*
X517151Y366801D01*
X517074Y366718D01*
X516999Y366632D01*
X516928Y366544D01*
X516860Y366454D01*
X516795Y366361D01*
X516733Y366266D01*
X516675Y366169D01*
X516620Y366070D01*
X516569Y365969D01*
X516521Y365866D01*
X516476Y365762D01*
X516436Y365656D01*
X516399Y365549D01*
X516366Y365441D01*
X516336Y365331D01*
X516311Y365221D01*
X516289Y365110D01*
X516272Y364998D01*
X516258Y364885D01*
X516248Y364772D01*
X516242Y364659D01*
X516240Y364546D01*
X516242Y364433D01*
X516248Y364320D01*
X516258Y364207D01*
X516272Y364094D01*
X516289Y363982D01*
X516311Y363871D01*
X516336Y363761D01*
X516366Y363651D01*
X516399Y363543D01*
X516436Y363436D01*
X516476Y363330D01*
X516521Y363226D01*
X516569Y363123D01*
X516620Y363022D01*
X516675Y362923D01*
X516733Y362826D01*
X516795Y362731D01*
X516860Y362638D01*
X516928Y362548D01*
X516999Y362460D01*
X517074Y362374D01*
X517151Y362291D01*
X517231Y362211D01*
X517314Y362134D01*
X517400Y362059D01*
X517488Y361988D01*
X517578Y361920D01*
X517671Y361855D01*
X517766Y361793D01*
X517863Y361735D01*
X517962Y361680D01*
X518063Y361629D01*
X518166Y361581D01*
X518270Y361536D01*
X518376Y361496D01*
X518483Y361459D01*
X518591Y361426D01*
X518701Y361396D01*
X518811Y361371D01*
X518922Y361349D01*
X519034Y361332D01*
X519147Y361318D01*
X519260Y361308D01*
X519373Y361302D01*
X519486Y361300D01*
X519486Y361301D02*
X522732Y361301D01*
X518837Y361301D02*
X516241Y356108D01*
X511376Y365196D02*
X508130Y367792D01*
X508130Y356108D01*
X504885Y356108D02*
X511376Y356108D01*
X499946Y365196D02*
X496700Y367792D01*
X496700Y356108D01*
X493455Y356108D02*
X499946Y356108D01*
X574802Y348742D02*
X574802Y337058D01*
X574802Y348742D02*
X571556Y348742D01*
X571443Y348740D01*
X571330Y348734D01*
X571217Y348724D01*
X571104Y348710D01*
X570992Y348693D01*
X570881Y348671D01*
X570771Y348646D01*
X570661Y348616D01*
X570553Y348583D01*
X570446Y348546D01*
X570340Y348506D01*
X570236Y348461D01*
X570133Y348413D01*
X570032Y348362D01*
X569933Y348307D01*
X569836Y348249D01*
X569741Y348187D01*
X569648Y348122D01*
X569558Y348054D01*
X569470Y347983D01*
X569384Y347908D01*
X569301Y347831D01*
X569221Y347751D01*
X569144Y347668D01*
X569069Y347582D01*
X568998Y347494D01*
X568930Y347404D01*
X568865Y347311D01*
X568803Y347216D01*
X568745Y347119D01*
X568690Y347020D01*
X568639Y346919D01*
X568591Y346816D01*
X568546Y346712D01*
X568506Y346606D01*
X568469Y346499D01*
X568436Y346391D01*
X568406Y346281D01*
X568381Y346171D01*
X568359Y346060D01*
X568342Y345948D01*
X568328Y345835D01*
X568318Y345722D01*
X568312Y345609D01*
X568310Y345496D01*
X568312Y345383D01*
X568318Y345270D01*
X568328Y345157D01*
X568342Y345044D01*
X568359Y344932D01*
X568381Y344821D01*
X568406Y344711D01*
X568436Y344601D01*
X568469Y344493D01*
X568506Y344386D01*
X568546Y344280D01*
X568591Y344176D01*
X568639Y344073D01*
X568690Y343972D01*
X568745Y343873D01*
X568803Y343776D01*
X568865Y343681D01*
X568930Y343588D01*
X568998Y343498D01*
X569069Y343410D01*
X569144Y343324D01*
X569221Y343241D01*
X569301Y343161D01*
X569384Y343084D01*
X569470Y343009D01*
X569558Y342938D01*
X569648Y342870D01*
X569741Y342805D01*
X569836Y342743D01*
X569933Y342685D01*
X570032Y342630D01*
X570133Y342579D01*
X570236Y342531D01*
X570340Y342486D01*
X570446Y342446D01*
X570553Y342409D01*
X570661Y342376D01*
X570771Y342346D01*
X570881Y342321D01*
X570992Y342299D01*
X571104Y342282D01*
X571217Y342268D01*
X571330Y342258D01*
X571443Y342252D01*
X571556Y342250D01*
X571556Y342251D02*
X574802Y342251D01*
X570907Y342251D02*
X568311Y337058D01*
X560849Y342251D02*
X556955Y342251D01*
X560849Y342251D02*
X560948Y342253D01*
X561048Y342259D01*
X561147Y342268D01*
X561245Y342281D01*
X561343Y342298D01*
X561441Y342319D01*
X561537Y342344D01*
X561632Y342372D01*
X561726Y342404D01*
X561819Y342439D01*
X561911Y342478D01*
X562001Y342521D01*
X562089Y342566D01*
X562176Y342616D01*
X562260Y342668D01*
X562343Y342724D01*
X562423Y342782D01*
X562501Y342844D01*
X562576Y342909D01*
X562649Y342977D01*
X562719Y343047D01*
X562787Y343120D01*
X562852Y343195D01*
X562914Y343273D01*
X562972Y343353D01*
X563028Y343436D01*
X563080Y343520D01*
X563130Y343607D01*
X563175Y343695D01*
X563218Y343785D01*
X563257Y343877D01*
X563292Y343970D01*
X563324Y344064D01*
X563352Y344159D01*
X563377Y344255D01*
X563398Y344353D01*
X563415Y344451D01*
X563428Y344549D01*
X563437Y344648D01*
X563443Y344748D01*
X563445Y344847D01*
X563446Y344847D02*
X563446Y345496D01*
X563444Y345609D01*
X563438Y345722D01*
X563428Y345835D01*
X563414Y345948D01*
X563397Y346060D01*
X563375Y346171D01*
X563350Y346281D01*
X563320Y346391D01*
X563287Y346499D01*
X563250Y346606D01*
X563210Y346712D01*
X563165Y346816D01*
X563117Y346919D01*
X563066Y347020D01*
X563011Y347119D01*
X562953Y347216D01*
X562891Y347311D01*
X562826Y347404D01*
X562758Y347494D01*
X562687Y347582D01*
X562612Y347668D01*
X562535Y347751D01*
X562455Y347831D01*
X562372Y347908D01*
X562286Y347983D01*
X562198Y348054D01*
X562108Y348122D01*
X562015Y348187D01*
X561920Y348249D01*
X561823Y348307D01*
X561724Y348362D01*
X561623Y348413D01*
X561520Y348461D01*
X561416Y348506D01*
X561310Y348546D01*
X561203Y348583D01*
X561095Y348616D01*
X560985Y348646D01*
X560875Y348671D01*
X560764Y348693D01*
X560652Y348710D01*
X560539Y348724D01*
X560426Y348734D01*
X560313Y348740D01*
X560200Y348742D01*
X560087Y348740D01*
X559974Y348734D01*
X559861Y348724D01*
X559748Y348710D01*
X559636Y348693D01*
X559525Y348671D01*
X559415Y348646D01*
X559305Y348616D01*
X559197Y348583D01*
X559090Y348546D01*
X558984Y348506D01*
X558880Y348461D01*
X558777Y348413D01*
X558676Y348362D01*
X558577Y348307D01*
X558480Y348249D01*
X558385Y348187D01*
X558292Y348122D01*
X558202Y348054D01*
X558114Y347983D01*
X558028Y347908D01*
X557945Y347831D01*
X557865Y347751D01*
X557788Y347668D01*
X557713Y347582D01*
X557642Y347494D01*
X557574Y347404D01*
X557509Y347311D01*
X557447Y347216D01*
X557389Y347119D01*
X557334Y347020D01*
X557283Y346919D01*
X557235Y346816D01*
X557190Y346712D01*
X557150Y346606D01*
X557113Y346499D01*
X557080Y346391D01*
X557050Y346281D01*
X557025Y346171D01*
X557003Y346060D01*
X556986Y345948D01*
X556972Y345835D01*
X556962Y345722D01*
X556956Y345609D01*
X556954Y345496D01*
X556955Y345496D02*
X556955Y342251D01*
X556954Y342251D02*
X556956Y342108D01*
X556962Y341965D01*
X556972Y341822D01*
X556986Y341680D01*
X557003Y341538D01*
X557025Y341396D01*
X557050Y341255D01*
X557080Y341115D01*
X557113Y340976D01*
X557150Y340838D01*
X557191Y340701D01*
X557235Y340565D01*
X557284Y340430D01*
X557336Y340297D01*
X557391Y340165D01*
X557451Y340035D01*
X557514Y339906D01*
X557580Y339779D01*
X557650Y339655D01*
X557723Y339532D01*
X557800Y339411D01*
X557880Y339292D01*
X557963Y339176D01*
X558049Y339061D01*
X558138Y338950D01*
X558231Y338840D01*
X558326Y338734D01*
X558425Y338630D01*
X558526Y338529D01*
X558630Y338430D01*
X558736Y338335D01*
X558846Y338242D01*
X558957Y338153D01*
X559072Y338067D01*
X559188Y337984D01*
X559307Y337904D01*
X559428Y337827D01*
X559551Y337754D01*
X559675Y337684D01*
X559802Y337618D01*
X559931Y337555D01*
X560061Y337495D01*
X560193Y337440D01*
X560326Y337388D01*
X560461Y337339D01*
X560597Y337295D01*
X560734Y337254D01*
X560872Y337217D01*
X561011Y337184D01*
X561151Y337154D01*
X561292Y337129D01*
X561434Y337107D01*
X561576Y337090D01*
X561718Y337076D01*
X561861Y337066D01*
X562004Y337060D01*
X562147Y337058D01*
D12*
X373853Y244912D02*
X373853Y240933D01*
X373853Y244912D02*
X376174Y247897D01*
X373853Y244912D02*
X371531Y247897D01*
X373853Y244912D02*
X377500Y243586D01*
X373853Y244912D02*
X370205Y243586D01*
X393065Y321197D02*
X393065Y329819D01*
X393065Y321197D02*
X393063Y321083D01*
X393057Y320968D01*
X393047Y320854D01*
X393033Y320741D01*
X393016Y320627D01*
X392994Y320515D01*
X392969Y320403D01*
X392939Y320293D01*
X392906Y320183D01*
X392869Y320075D01*
X392829Y319968D01*
X392784Y319862D01*
X392737Y319758D01*
X392685Y319656D01*
X392630Y319556D01*
X392572Y319457D01*
X392510Y319361D01*
X392445Y319266D01*
X392377Y319175D01*
X392305Y319085D01*
X392231Y318998D01*
X392154Y318914D01*
X392073Y318832D01*
X391990Y318753D01*
X391905Y318677D01*
X391816Y318604D01*
X391726Y318535D01*
X391633Y318468D01*
X391537Y318405D01*
X391440Y318345D01*
X391340Y318288D01*
X391239Y318235D01*
X391136Y318185D01*
X391031Y318139D01*
X390925Y318096D01*
X390817Y318058D01*
X390708Y318023D01*
X390598Y317992D01*
X390487Y317964D01*
X390375Y317941D01*
X390262Y317921D01*
X390149Y317905D01*
X390035Y317893D01*
X389921Y317885D01*
X389806Y317881D01*
X389692Y317881D01*
X389577Y317885D01*
X389463Y317893D01*
X389349Y317905D01*
X389236Y317921D01*
X389123Y317941D01*
X389011Y317964D01*
X388900Y317992D01*
X388790Y318023D01*
X388681Y318058D01*
X388573Y318096D01*
X388467Y318139D01*
X388362Y318185D01*
X388259Y318235D01*
X388158Y318288D01*
X388058Y318345D01*
X387961Y318405D01*
X387865Y318468D01*
X387772Y318535D01*
X387682Y318604D01*
X387593Y318677D01*
X387508Y318753D01*
X387425Y318832D01*
X387344Y318914D01*
X387267Y318998D01*
X387193Y319085D01*
X387121Y319175D01*
X387053Y319266D01*
X386988Y319361D01*
X386926Y319457D01*
X386868Y319556D01*
X386813Y319656D01*
X386761Y319758D01*
X386714Y319862D01*
X386669Y319968D01*
X386629Y320075D01*
X386592Y320183D01*
X386559Y320293D01*
X386529Y320403D01*
X386504Y320515D01*
X386482Y320627D01*
X386465Y320741D01*
X386451Y320854D01*
X386441Y320968D01*
X386435Y321083D01*
X386433Y321197D01*
X386433Y329819D01*
X378601Y329819D02*
X381254Y320534D01*
X374622Y320534D01*
X376612Y323187D02*
X376612Y317881D01*
D13*
X254000Y350100D02*
X242200Y350100D01*
X242200Y234100D01*
X254000Y234100D01*
X279400Y350100D02*
X291200Y350100D01*
X291200Y234100D01*
X279400Y234100D01*
D10*
X733044Y279400D02*
X743204Y279400D01*
X733044Y279400D02*
X730504Y279400D01*
X733044Y279400D02*
X733044Y273050D01*
X733044Y279400D02*
X733044Y285750D01*
X733044Y279400D02*
X740664Y273050D01*
X740664Y274320D02*
X733044Y279400D01*
X740664Y275590D01*
X740664Y276860D02*
X733044Y279400D01*
X740664Y278130D01*
X740664Y285750D02*
X733044Y279400D01*
X740664Y284480D01*
X740664Y283210D02*
X733044Y279400D01*
X740664Y281940D01*
X740664Y280670D02*
X733044Y279400D01*
X740664Y273050D02*
X740664Y285750D01*
X747014Y295148D02*
X802386Y295148D01*
X802386Y290576D01*
X802386Y263652D02*
X747014Y263652D01*
X747014Y268224D01*
X747014Y290576D02*
X747014Y295148D01*
X802386Y268224D02*
X802386Y263652D01*
D12*
X783350Y298831D02*
X780697Y298831D01*
X783350Y298831D02*
X783452Y298833D01*
X783553Y298839D01*
X783654Y298849D01*
X783755Y298862D01*
X783855Y298880D01*
X783954Y298901D01*
X784053Y298926D01*
X784150Y298955D01*
X784247Y298987D01*
X784342Y299023D01*
X784435Y299063D01*
X784527Y299106D01*
X784617Y299153D01*
X784706Y299204D01*
X784792Y299257D01*
X784876Y299314D01*
X784958Y299374D01*
X785038Y299437D01*
X785115Y299503D01*
X785190Y299572D01*
X785262Y299644D01*
X785331Y299719D01*
X785397Y299796D01*
X785460Y299876D01*
X785520Y299958D01*
X785577Y300042D01*
X785630Y300128D01*
X785681Y300217D01*
X785728Y300307D01*
X785771Y300399D01*
X785811Y300492D01*
X785847Y300587D01*
X785879Y300684D01*
X785908Y300781D01*
X785933Y300880D01*
X785954Y300979D01*
X785972Y301079D01*
X785985Y301180D01*
X785995Y301281D01*
X786001Y301382D01*
X786003Y301484D01*
X786003Y308116D01*
X786001Y308218D01*
X785995Y308319D01*
X785985Y308420D01*
X785972Y308521D01*
X785954Y308621D01*
X785933Y308720D01*
X785908Y308819D01*
X785879Y308916D01*
X785847Y309013D01*
X785811Y309108D01*
X785771Y309201D01*
X785728Y309293D01*
X785681Y309383D01*
X785630Y309472D01*
X785577Y309558D01*
X785520Y309642D01*
X785460Y309724D01*
X785397Y309804D01*
X785331Y309881D01*
X785262Y309956D01*
X785190Y310028D01*
X785115Y310097D01*
X785038Y310163D01*
X784958Y310226D01*
X784876Y310286D01*
X784792Y310343D01*
X784706Y310396D01*
X784617Y310447D01*
X784527Y310494D01*
X784435Y310537D01*
X784342Y310577D01*
X784247Y310613D01*
X784150Y310645D01*
X784053Y310674D01*
X783954Y310699D01*
X783855Y310720D01*
X783755Y310738D01*
X783654Y310751D01*
X783553Y310761D01*
X783452Y310767D01*
X783350Y310769D01*
X780697Y310769D01*
X776004Y310769D02*
X776004Y298831D01*
X776004Y310769D02*
X772688Y310769D01*
X772574Y310767D01*
X772459Y310761D01*
X772345Y310751D01*
X772232Y310737D01*
X772118Y310720D01*
X772006Y310698D01*
X771894Y310673D01*
X771784Y310643D01*
X771674Y310610D01*
X771566Y310573D01*
X771459Y310533D01*
X771353Y310488D01*
X771249Y310441D01*
X771147Y310389D01*
X771047Y310334D01*
X770948Y310276D01*
X770852Y310214D01*
X770757Y310149D01*
X770666Y310081D01*
X770576Y310009D01*
X770489Y309935D01*
X770405Y309858D01*
X770323Y309777D01*
X770244Y309694D01*
X770168Y309609D01*
X770095Y309520D01*
X770026Y309430D01*
X769959Y309337D01*
X769896Y309241D01*
X769836Y309144D01*
X769779Y309044D01*
X769726Y308943D01*
X769676Y308840D01*
X769630Y308735D01*
X769587Y308629D01*
X769549Y308521D01*
X769514Y308412D01*
X769483Y308302D01*
X769455Y308191D01*
X769432Y308079D01*
X769412Y307966D01*
X769396Y307853D01*
X769384Y307739D01*
X769376Y307625D01*
X769372Y307510D01*
X769372Y307396D01*
X769376Y307281D01*
X769384Y307167D01*
X769396Y307053D01*
X769412Y306940D01*
X769432Y306827D01*
X769455Y306715D01*
X769483Y306604D01*
X769514Y306494D01*
X769549Y306385D01*
X769587Y306277D01*
X769630Y306171D01*
X769676Y306066D01*
X769726Y305963D01*
X769779Y305862D01*
X769836Y305762D01*
X769896Y305665D01*
X769959Y305569D01*
X770026Y305476D01*
X770095Y305386D01*
X770168Y305297D01*
X770244Y305212D01*
X770323Y305129D01*
X770405Y305048D01*
X770489Y304971D01*
X770576Y304897D01*
X770666Y304825D01*
X770757Y304757D01*
X770852Y304692D01*
X770948Y304630D01*
X771047Y304572D01*
X771147Y304517D01*
X771249Y304465D01*
X771353Y304418D01*
X771459Y304373D01*
X771566Y304333D01*
X771674Y304296D01*
X771784Y304263D01*
X771894Y304233D01*
X772006Y304208D01*
X772118Y304186D01*
X772232Y304169D01*
X772345Y304155D01*
X772459Y304145D01*
X772574Y304139D01*
X772688Y304137D01*
X776004Y304137D01*
X772024Y304137D02*
X769371Y298831D01*
X764638Y308116D02*
X761322Y310769D01*
X761322Y298831D01*
X764638Y298831D02*
X758006Y298831D01*
M02*
