G04 EAGLE Gerber RS-274X export*
G75*
%MOMM*%
%FSLAX34Y34*%
%LPD*%
%INSoldermask Bottom*%
%IPPOS*%
%AMOC8*
5,1,8,0,0,1.08239X$1,22.5*%
G01*
%ADD10C,2.205738*%
%ADD11R,1.703200X1.503200*%
%ADD12R,1.498600X1.941475*%
%ADD13R,1.503200X1.703200*%
%ADD14P,2.144431X8X202.500000*%
%ADD15C,1.879600*%
%ADD16R,1.676400X0.711200*%
%ADD17R,0.711200X1.676400*%
%ADD18C,0.582488*%
%ADD19C,1.727200*%
%ADD20R,2.387600X1.778000*%
%ADD21C,1.143000*%
%ADD22C,1.159600*%


D10*
X203200Y381000D03*
X203200Y212090D03*
X800100Y389890D03*
X800100Y203200D03*
D11*
X316230Y249580D03*
X316230Y268580D03*
X316230Y332080D03*
X316230Y313080D03*
D12*
X586740Y210113D03*
X586740Y231847D03*
X556260Y210113D03*
X556260Y231847D03*
D11*
X525780Y229210D03*
X525780Y210210D03*
D13*
X587400Y304800D03*
X606400Y304800D03*
X587400Y386080D03*
X606400Y386080D03*
D14*
X825500Y228600D03*
X825500Y254000D03*
X825500Y279400D03*
X825500Y304800D03*
X825500Y330200D03*
X825500Y355600D03*
D15*
X207010Y266700D03*
X207010Y292100D03*
X207010Y317500D03*
D13*
X606400Y266700D03*
X587400Y266700D03*
X530200Y381000D03*
X511200Y381000D03*
X606400Y342900D03*
X587400Y342900D03*
D16*
X389382Y251400D03*
X389382Y259400D03*
X389382Y267400D03*
X389382Y275400D03*
X389382Y283400D03*
X389382Y291400D03*
X389382Y299400D03*
X389382Y307400D03*
D17*
X403800Y321818D03*
X411800Y321818D03*
X419800Y321818D03*
X427800Y321818D03*
X435800Y321818D03*
X443800Y321818D03*
X451800Y321818D03*
X459800Y321818D03*
D16*
X474218Y307400D03*
X474218Y299400D03*
X474218Y291400D03*
X474218Y283400D03*
X474218Y275400D03*
X474218Y267400D03*
X474218Y259400D03*
X474218Y251400D03*
D17*
X459800Y236982D03*
X451800Y236982D03*
X443800Y236982D03*
X435800Y236982D03*
X427800Y236982D03*
X419800Y236982D03*
X411800Y236982D03*
X403800Y236982D03*
D18*
X261046Y316446D02*
X261046Y362754D01*
X272354Y362754D01*
X272354Y316446D01*
X261046Y316446D01*
X261046Y321980D02*
X272354Y321980D01*
X272354Y327514D02*
X261046Y327514D01*
X261046Y333048D02*
X272354Y333048D01*
X272354Y338582D02*
X261046Y338582D01*
X261046Y344116D02*
X272354Y344116D01*
X272354Y349650D02*
X261046Y349650D01*
X261046Y355184D02*
X272354Y355184D01*
X272354Y360718D02*
X261046Y360718D01*
X261046Y267754D02*
X261046Y221446D01*
X261046Y267754D02*
X272354Y267754D01*
X272354Y221446D01*
X261046Y221446D01*
X261046Y226980D02*
X272354Y226980D01*
X272354Y232514D02*
X261046Y232514D01*
X261046Y238048D02*
X272354Y238048D01*
X272354Y243582D02*
X261046Y243582D01*
X261046Y249116D02*
X272354Y249116D01*
X272354Y254650D02*
X261046Y254650D01*
X261046Y260184D02*
X272354Y260184D01*
X272354Y265718D02*
X261046Y265718D01*
D19*
X367030Y368300D02*
X367030Y383540D01*
X392430Y383540D02*
X392430Y368300D01*
X417830Y368300D02*
X417830Y383540D01*
X443230Y383540D02*
X443230Y368300D01*
X468630Y368300D02*
X468630Y383540D01*
D20*
X757682Y279400D03*
X791718Y279400D03*
D21*
X487680Y204470D03*
X647700Y340360D03*
X736600Y355600D03*
X632460Y287020D03*
X356870Y229870D03*
D22*
X408940Y208280D03*
X224790Y297180D03*
X541020Y276860D03*
X774700Y254000D03*
D21*
X715264Y280416D03*
X350012Y255270D03*
X535940Y247904D03*
X625094Y312928D03*
X511048Y321818D03*
X530606Y355346D03*
X549656Y336296D03*
X438150Y222250D03*
X451612Y222250D03*
X685038Y318008D03*
X595376Y251968D03*
X294640Y346456D03*
X405130Y346202D03*
X554736Y286512D03*
X634238Y348742D03*
X406400Y268986D03*
X671576Y290576D03*
X701040Y290576D03*
X507746Y279146D03*
X535686Y291592D03*
X420624Y290576D03*
M02*
