G04 EAGLE Gerber RS-274X export*
G75*
%MOMM*%
%FSLAX34Y34*%
%LPD*%
%INSolderpaste Bottom*%
%IPPOS*%
%AMOC8*
5,1,8,0,0,1.08239X$1,22.5*%
G01*
%ADD10R,1.500000X1.300000*%
%ADD11R,1.295400X1.738275*%
%ADD12R,1.300000X1.500000*%
%ADD13R,1.473200X0.508000*%
%ADD14R,0.508000X1.473200*%
%ADD15C,0.377500*%
%ADD16R,2.184400X1.574800*%


D10*
X316230Y249580D03*
X316230Y268580D03*
X316230Y332080D03*
X316230Y313080D03*
D11*
X586740Y210113D03*
X586740Y231847D03*
X556260Y210113D03*
X556260Y231847D03*
D10*
X525780Y229210D03*
X525780Y210210D03*
D12*
X587400Y304800D03*
X606400Y304800D03*
X587400Y386080D03*
X606400Y386080D03*
X606400Y266700D03*
X587400Y266700D03*
X530200Y381000D03*
X511200Y381000D03*
X606400Y342900D03*
X587400Y342900D03*
D13*
X389382Y251400D03*
X389382Y259400D03*
X389382Y267400D03*
X389382Y275400D03*
X389382Y283400D03*
X389382Y291400D03*
X389382Y299400D03*
X389382Y307400D03*
D14*
X403800Y321818D03*
X411800Y321818D03*
X419800Y321818D03*
X427800Y321818D03*
X435800Y321818D03*
X443800Y321818D03*
X451800Y321818D03*
X459800Y321818D03*
D13*
X474218Y307400D03*
X474218Y299400D03*
X474218Y291400D03*
X474218Y283400D03*
X474218Y275400D03*
X474218Y267400D03*
X474218Y259400D03*
X474218Y251400D03*
D14*
X459800Y236982D03*
X451800Y236982D03*
X443800Y236982D03*
X435800Y236982D03*
X427800Y236982D03*
X419800Y236982D03*
X411800Y236982D03*
X403800Y236982D03*
D15*
X261037Y316437D02*
X261037Y362763D01*
X272363Y362763D01*
X272363Y316437D01*
X261037Y316437D01*
X261037Y320023D02*
X272363Y320023D01*
X272363Y323609D02*
X261037Y323609D01*
X261037Y327195D02*
X272363Y327195D01*
X272363Y330781D02*
X261037Y330781D01*
X261037Y334367D02*
X272363Y334367D01*
X272363Y337953D02*
X261037Y337953D01*
X261037Y341539D02*
X272363Y341539D01*
X272363Y345125D02*
X261037Y345125D01*
X261037Y348711D02*
X272363Y348711D01*
X272363Y352297D02*
X261037Y352297D01*
X261037Y355883D02*
X272363Y355883D01*
X272363Y359469D02*
X261037Y359469D01*
X261037Y267763D02*
X261037Y221437D01*
X261037Y267763D02*
X272363Y267763D01*
X272363Y221437D01*
X261037Y221437D01*
X261037Y225023D02*
X272363Y225023D01*
X272363Y228609D02*
X261037Y228609D01*
X261037Y232195D02*
X272363Y232195D01*
X272363Y235781D02*
X261037Y235781D01*
X261037Y239367D02*
X272363Y239367D01*
X272363Y242953D02*
X261037Y242953D01*
X261037Y246539D02*
X272363Y246539D01*
X272363Y250125D02*
X261037Y250125D01*
X261037Y253711D02*
X272363Y253711D01*
X272363Y257297D02*
X261037Y257297D01*
X261037Y260883D02*
X272363Y260883D01*
X272363Y264469D02*
X261037Y264469D01*
D16*
X757682Y279400D03*
X791718Y279400D03*
M02*
