M48
;GenerationSoftware,Autodesk,EAGLE,9.6.2*%
;CreationDate,2021-09-06T11:46:33Z*%
FMAT,2
ICI,OFF
METRIC,TZ,000.000
T4C0.533
T3C0.550
T2C1.016
T1C2.003
%
G90
M71
T1
X80010Y20320
X80010Y38989
X20320Y21209
X20320Y38100
T2
X46863Y37592
X44323Y37592
X41783Y37592
X39243Y37592
X36703Y37592
X20701Y31750
X20701Y29210
X20701Y26670
X82550Y35560
X82550Y33020
X82550Y30480
X82550Y27940
X82550Y25400
X82550Y22860
T3
X40894Y20828
X22479Y29718
X54102Y27686
X77470Y25400
T4
X55474Y28651
X63424Y34874
X48768Y20447
X67158Y29058
X70104Y29058
X50775Y27915
X53569Y29159
X42062Y29058
X40513Y34620
X29464Y34646
X59538Y25197
X68504Y31801
X45161Y22225
X43815Y22225
X54966Y33630
X53061Y35535
X51105Y32182
X62509Y31293
X53594Y24790
X35001Y25527
X71526Y28042
X35687Y22987
X63246Y28702
X73660Y35560
X64770Y34036
X40640Y26899
M30